%TF.GenerationSoftware,KiCad,Pcbnew,(6.0.9)*%
%TF.CreationDate,2022-11-08T23:38:06-07:00*%
%TF.ProjectId,gnctr-wack-a-mole-pcb,676e6374-722d-4776-9163-6b2d612d6d6f,rev?*%
%TF.SameCoordinates,Original*%
%TF.FileFunction,Soldermask,Top*%
%TF.FilePolarity,Negative*%
%FSLAX46Y46*%
G04 Gerber Fmt 4.6, Leading zero omitted, Abs format (unit mm)*
G04 Created by KiCad (PCBNEW (6.0.9)) date 2022-11-08 23:38:06*
%MOMM*%
%LPD*%
G01*
G04 APERTURE LIST*
G04 Aperture macros list*
%AMRoundRect*
0 Rectangle with rounded corners*
0 $1 Rounding radius*
0 $2 $3 $4 $5 $6 $7 $8 $9 X,Y pos of 4 corners*
0 Add a 4 corners polygon primitive as box body*
4,1,4,$2,$3,$4,$5,$6,$7,$8,$9,$2,$3,0*
0 Add four circle primitives for the rounded corners*
1,1,$1+$1,$2,$3*
1,1,$1+$1,$4,$5*
1,1,$1+$1,$6,$7*
1,1,$1+$1,$8,$9*
0 Add four rect primitives between the rounded corners*
20,1,$1+$1,$2,$3,$4,$5,0*
20,1,$1+$1,$4,$5,$6,$7,0*
20,1,$1+$1,$6,$7,$8,$9,0*
20,1,$1+$1,$8,$9,$2,$3,0*%
G04 Aperture macros list end*
%ADD10C,2.000000*%
%ADD11R,3.000000X3.000000*%
%ADD12C,3.000000*%
%ADD13RoundRect,0.250001X-0.462499X-0.624999X0.462499X-0.624999X0.462499X0.624999X-0.462499X0.624999X0*%
%ADD14RoundRect,0.250000X-0.400000X-0.625000X0.400000X-0.625000X0.400000X0.625000X-0.400000X0.625000X0*%
%ADD15R,1.700000X1.700000*%
%ADD16O,1.700000X1.700000*%
%ADD17C,4.000000*%
%ADD18C,6.000000*%
%ADD19C,1.524000*%
%ADD20O,2.197100X1.524000*%
%ADD21O,1.536700X1.998980*%
%ADD22O,1.539240X1.998980*%
%ADD23O,2.199640X1.524000*%
%ADD24C,3.197860*%
G04 APERTURE END LIST*
D10*
%TO.C,SW11*%
X241590000Y-132790000D03*
X241590000Y-126290000D03*
X246090000Y-132790000D03*
X246090000Y-126290000D03*
%TD*%
D11*
%TO.C,J2*%
X54610000Y-53340000D03*
D12*
X59690000Y-53340000D03*
X64770000Y-53340000D03*
X69850000Y-53340000D03*
X74930000Y-53340000D03*
X80010000Y-53340000D03*
%TD*%
D10*
%TO.C,SW2*%
X66330000Y-139020000D03*
X66330000Y-145520000D03*
X70830000Y-139020000D03*
X70830000Y-145520000D03*
%TD*%
D13*
%TO.C,D3*%
X77252500Y-135890000D03*
X80227500Y-135890000D03*
%TD*%
D11*
%TO.C,J17*%
X50800000Y-72295000D03*
D12*
X55880000Y-72295000D03*
X60960000Y-72295000D03*
X66040000Y-72295000D03*
X71120000Y-72295000D03*
X76200000Y-72295000D03*
%TD*%
D14*
%TO.C,R2*%
X67030000Y-132080000D03*
X70130000Y-132080000D03*
%TD*%
%TO.C,R4*%
X87350000Y-132080000D03*
X90450000Y-132080000D03*
%TD*%
D10*
%TO.C,SW7*%
X116840000Y-145520000D03*
X116840000Y-139020000D03*
X121340000Y-145520000D03*
X121340000Y-139020000D03*
%TD*%
D15*
%TO.C,J8*%
X246380000Y-115570000D03*
D16*
X243840000Y-115570000D03*
X246380000Y-113030000D03*
X243840000Y-113030000D03*
X246380000Y-110490000D03*
X243840000Y-110490000D03*
X246380000Y-107950000D03*
X243840000Y-107950000D03*
%TD*%
D11*
%TO.C,J3*%
X142240000Y-72390000D03*
D12*
X147320000Y-72390000D03*
X152400000Y-72390000D03*
X157480000Y-72390000D03*
X162560000Y-72390000D03*
X167640000Y-72390000D03*
%TD*%
D14*
%TO.C,R8*%
X127990000Y-132080000D03*
X131090000Y-132080000D03*
%TD*%
%TO.C,R1*%
X56870000Y-132080000D03*
X59970000Y-132080000D03*
%TD*%
D10*
%TO.C,SW9*%
X137450000Y-145520000D03*
X137450000Y-139020000D03*
X141950000Y-145520000D03*
X141950000Y-139020000D03*
%TD*%
%TO.C,SW3*%
X76200000Y-145520000D03*
X76200000Y-139020000D03*
X80700000Y-139020000D03*
X80700000Y-145520000D03*
%TD*%
D11*
%TO.C,J4*%
X159385000Y-58420000D03*
D12*
X164465000Y-58420000D03*
%TD*%
D17*
%TO.C,H3*%
X243840000Y-55880000D03*
%TD*%
D14*
%TO.C,R7*%
X117830000Y-132080000D03*
X120930000Y-132080000D03*
%TD*%
D13*
%TO.C,D4*%
X87412500Y-135890000D03*
X90387500Y-135890000D03*
%TD*%
D17*
%TO.C,H1*%
X45720000Y-55880000D03*
%TD*%
D13*
%TO.C,D2*%
X67092500Y-135890000D03*
X70067500Y-135890000D03*
%TD*%
%TO.C,D6*%
X107732500Y-135890000D03*
X110707500Y-135890000D03*
%TD*%
D11*
%TO.C,J16*%
X81280000Y-72295000D03*
D12*
X86360000Y-72295000D03*
X91440000Y-72295000D03*
X96520000Y-72295000D03*
X101600000Y-72295000D03*
X106680000Y-72295000D03*
%TD*%
D11*
%TO.C,J9*%
X170985000Y-58450000D03*
D12*
X176065000Y-58450000D03*
%TD*%
D11*
%TO.C,J13*%
X146050000Y-53340000D03*
D12*
X151130000Y-53340000D03*
%TD*%
D10*
%TO.C,SW6*%
X106970000Y-145520000D03*
X106970000Y-139020000D03*
X111470000Y-145520000D03*
X111470000Y-139020000D03*
%TD*%
%TO.C,SW10*%
X147610000Y-139020000D03*
X147610000Y-145520000D03*
X152110000Y-145520000D03*
X152110000Y-139020000D03*
%TD*%
D14*
%TO.C,R5*%
X97510000Y-132080000D03*
X100610000Y-132080000D03*
%TD*%
D15*
%TO.C,JP1*%
X175895000Y-67310000D03*
D16*
X173355000Y-67310000D03*
%TD*%
D11*
%TO.C,J10*%
X170815000Y-142270000D03*
D12*
X175895000Y-142270000D03*
%TD*%
D10*
%TO.C,SW4*%
X86650000Y-139020000D03*
X86650000Y-145520000D03*
X91150000Y-145520000D03*
X91150000Y-139020000D03*
%TD*%
D14*
%TO.C,R3*%
X77190000Y-132080000D03*
X80290000Y-132080000D03*
%TD*%
D13*
%TO.C,D1*%
X56715000Y-135890000D03*
X59690000Y-135890000D03*
%TD*%
D11*
%TO.C,J14*%
X111760000Y-72295000D03*
D12*
X116840000Y-72295000D03*
X121920000Y-72295000D03*
X127000000Y-72295000D03*
X132080000Y-72295000D03*
X137160000Y-72295000D03*
%TD*%
D10*
%TO.C,SW5*%
X96810000Y-145520000D03*
X96810000Y-139020000D03*
X101310000Y-145520000D03*
X101310000Y-139020000D03*
%TD*%
D18*
%TO.C,U1*%
X46090000Y-78350000D03*
X174890000Y-124850000D03*
X174890000Y-78350000D03*
X46090000Y-124850000D03*
D19*
X99060000Y-123800000D03*
X101600000Y-123800000D03*
X104140000Y-123800000D03*
X106680000Y-123800000D03*
X109220000Y-123800000D03*
X111760000Y-123800000D03*
X114300000Y-123800000D03*
X116840000Y-123800000D03*
X119380000Y-123800000D03*
X121920000Y-123800000D03*
%TD*%
D17*
%TO.C,H2*%
X243840000Y-142240000D03*
%TD*%
D14*
%TO.C,R6*%
X107670000Y-132080000D03*
X110770000Y-132080000D03*
%TD*%
D13*
%TO.C,D7*%
X117892500Y-135890000D03*
X120867500Y-135890000D03*
%TD*%
%TO.C,D5*%
X97572500Y-135890000D03*
X100547500Y-135890000D03*
%TD*%
D15*
%TO.C,J6*%
X246380000Y-83820000D03*
D16*
X243840000Y-83820000D03*
X246380000Y-81280000D03*
X243840000Y-81280000D03*
X246380000Y-78740000D03*
X243840000Y-78740000D03*
X246380000Y-76200000D03*
X243840000Y-76200000D03*
%TD*%
D13*
%TO.C,D8*%
X128052500Y-135890000D03*
X131027500Y-135890000D03*
%TD*%
D11*
%TO.C,J11*%
X85090000Y-53340000D03*
D12*
X90170000Y-53340000D03*
X95250000Y-53340000D03*
X100330000Y-53340000D03*
X105410000Y-53340000D03*
X110490000Y-53340000D03*
%TD*%
D10*
%TO.C,SW8*%
X127290000Y-145520000D03*
X127290000Y-139020000D03*
X131790000Y-145520000D03*
X131790000Y-139020000D03*
%TD*%
D17*
%TO.C,H4*%
X45720000Y-142240000D03*
%TD*%
D15*
%TO.C,J7*%
X246380000Y-99060000D03*
D16*
X243840000Y-99060000D03*
X246380000Y-96520000D03*
X243840000Y-96520000D03*
X246380000Y-93980000D03*
X243840000Y-93980000D03*
X246380000Y-91440000D03*
X243840000Y-91440000D03*
%TD*%
D10*
%TO.C,SW1*%
X56170000Y-139020000D03*
X56170000Y-145520000D03*
X60670000Y-139020000D03*
X60670000Y-145520000D03*
%TD*%
D11*
%TO.C,J12*%
X115570000Y-53340000D03*
D12*
X120650000Y-53340000D03*
X125730000Y-53340000D03*
X130810000Y-53340000D03*
X135890000Y-53340000D03*
X140970000Y-53340000D03*
%TD*%
D20*
%TO.C,J1*%
X186690000Y-56261000D03*
X186690000Y-58801000D03*
X186690000Y-61341000D03*
X186690000Y-63881000D03*
X186690000Y-66421000D03*
X186690000Y-68961000D03*
X186690000Y-71501000D03*
X186690000Y-74041000D03*
X186690000Y-76581000D03*
X186690000Y-79121000D03*
X186690000Y-83185000D03*
X186690000Y-85725000D03*
X186690000Y-88265000D03*
X186690000Y-90805000D03*
X186690000Y-93345000D03*
X186690000Y-95885000D03*
X186690000Y-98425000D03*
X186690000Y-100965000D03*
X186690000Y-106045000D03*
X186690000Y-108585000D03*
X186690000Y-111125000D03*
X186690000Y-113665000D03*
X186690000Y-116205000D03*
X186690000Y-118745000D03*
X186690000Y-121285000D03*
X186690000Y-123825000D03*
D21*
X186690000Y-134231380D03*
X189230000Y-134231380D03*
X191770000Y-134231380D03*
X194310000Y-134231380D03*
X196850000Y-134231380D03*
X199390000Y-134231380D03*
X201930000Y-134231380D03*
X204470000Y-134231380D03*
X207010000Y-134231380D03*
X209550000Y-134231380D03*
X212090000Y-134231380D03*
X214630000Y-134231380D03*
X217170000Y-134231380D03*
X219710000Y-134231380D03*
X222250000Y-134231380D03*
X224790000Y-134231380D03*
X227330000Y-134231380D03*
X229870000Y-134231380D03*
D22*
X186690000Y-131196080D03*
X189230000Y-131196080D03*
X191770000Y-131196080D03*
X194310000Y-131196080D03*
X196850000Y-131196080D03*
X199390000Y-131196080D03*
X201930000Y-131196080D03*
X204470000Y-131196080D03*
X207010000Y-131196080D03*
X209550000Y-131196080D03*
X212090000Y-131196080D03*
X214630000Y-131196080D03*
X217170000Y-131196080D03*
X219710000Y-131196080D03*
X222250000Y-131196080D03*
X224790000Y-131196080D03*
X227330000Y-131196080D03*
X229870000Y-131196080D03*
D20*
X234950000Y-128905000D03*
X234950000Y-126365000D03*
X234950000Y-123825000D03*
X234950000Y-121285000D03*
X234950000Y-118745000D03*
D23*
X234950000Y-116205000D03*
X234950000Y-113665000D03*
X234950000Y-111125000D03*
X234950000Y-106045000D03*
X234950000Y-103505000D03*
X234950000Y-100965000D03*
X234950000Y-98425000D03*
X234950000Y-95885000D03*
X234950000Y-93345000D03*
X234950000Y-90805000D03*
X234950000Y-88265000D03*
X234950000Y-83185000D03*
X234950000Y-80645000D03*
X234950000Y-78105000D03*
X234950000Y-75565000D03*
X234950000Y-73025000D03*
X234950000Y-70485000D03*
X234950000Y-67945000D03*
X234950000Y-65405000D03*
D24*
X186690000Y-52705000D03*
X201930000Y-103505000D03*
X229870000Y-103505000D03*
X234950000Y-51435000D03*
X186690000Y-127635000D03*
X234950000Y-133985000D03*
%TD*%
M02*
