%TF.GenerationSoftware,KiCad,Pcbnew,(6.0.9)*%
%TF.CreationDate,2022-11-08T23:38:09-07:00*%
%TF.ProjectId,gnctr-wack-a-mole-pcb,676e6374-722d-4776-9163-6b2d612d6d6f,rev?*%
%TF.SameCoordinates,Original*%
%TF.FileFunction,Drillmap*%
%TF.FilePolarity,Positive*%
%FSLAX45Y45*%
G04 Gerber Fmt 4.5, Leading zero omitted, Abs format (unit mm)*
G04 Created by KiCad (PCBNEW (6.0.9)) date 2022-11-08 23:38:09*
%MOMM*%
%LPD*%
G01*
G04 APERTURE LIST*
%ADD10C,0.100000*%
%ADD11C,0.200000*%
%ADD12C,0.040000*%
%ADD13C,0.076200*%
%ADD14C,0.100076*%
%ADD15C,0.110000*%
%ADD16C,0.152000*%
G04 APERTURE END LIST*
D10*
X3763500Y-4829000D02*
X25099500Y-4829000D01*
X25099500Y-4829000D02*
X25099500Y-14989000D01*
X25099500Y-14989000D02*
X3763500Y-14989000D01*
X3763500Y-14989000D02*
X3763500Y-4829000D01*
D11*
D12*
X5314000Y-13569000D02*
X5354000Y-13609000D01*
X5354000Y-13569000D02*
X5314000Y-13609000D01*
X6076000Y-10330500D02*
X6116000Y-10370500D01*
X6116000Y-10330500D02*
X6076000Y-10370500D01*
X6457000Y-13569000D02*
X6497000Y-13609000D01*
X6497000Y-13569000D02*
X6457000Y-13609000D01*
X7219000Y-10648000D02*
X7259000Y-10688000D01*
X7259000Y-10648000D02*
X7219000Y-10688000D01*
X7473000Y-13569000D02*
X7513000Y-13609000D01*
X7513000Y-13569000D02*
X7473000Y-13609000D01*
X8298500Y-10838500D02*
X8338500Y-10878500D01*
X8338500Y-10838500D02*
X8298500Y-10878500D01*
X8489000Y-13569000D02*
X8529000Y-13609000D01*
X8529000Y-13569000D02*
X8489000Y-13609000D01*
X9124000Y-11092500D02*
X9164000Y-11132500D01*
X9164000Y-11092500D02*
X9124000Y-11132500D01*
X9505000Y-13569000D02*
X9545000Y-13609000D01*
X9545000Y-13569000D02*
X9505000Y-13609000D01*
X10140000Y-10140000D02*
X10180000Y-10180000D01*
X10180000Y-10140000D02*
X10140000Y-10180000D01*
X10404100Y-10404100D02*
X10444100Y-10444100D01*
X10444100Y-10404100D02*
X10404100Y-10444100D01*
X10521000Y-9314500D02*
X10561000Y-9354500D01*
X10561000Y-9314500D02*
X10521000Y-9354500D01*
X10521000Y-11283000D02*
X10561000Y-11323000D01*
X10561000Y-11283000D02*
X10521000Y-11323000D01*
X10521000Y-13569000D02*
X10561000Y-13609000D01*
X10561000Y-13569000D02*
X10521000Y-13609000D01*
X10664800Y-10694700D02*
X10704800Y-10734700D01*
X10704800Y-10694700D02*
X10664800Y-10734700D01*
X10891900Y-10912100D02*
X10931900Y-10952100D01*
X10931900Y-10912100D02*
X10891900Y-10952100D01*
X11537000Y-12680000D02*
X11577000Y-12720000D01*
X11577000Y-12680000D02*
X11537000Y-12720000D01*
X11537000Y-13569000D02*
X11577000Y-13609000D01*
X11577000Y-13569000D02*
X11537000Y-13609000D01*
X11617500Y-11710500D02*
X11657500Y-11750500D01*
X11657500Y-11710500D02*
X11617500Y-11750500D01*
X12045000Y-11727500D02*
X12085000Y-11767500D01*
X12085000Y-11727500D02*
X12045000Y-11767500D01*
X12426000Y-12235500D02*
X12466000Y-12275500D01*
X12466000Y-12235500D02*
X12426000Y-12275500D01*
X12426000Y-13315000D02*
X12466000Y-13355000D01*
X12466000Y-13315000D02*
X12426000Y-13355000D01*
X12553000Y-13569000D02*
X12593000Y-13609000D01*
X12593000Y-13569000D02*
X12553000Y-13609000D01*
X13061000Y-9187500D02*
X13101000Y-9227500D01*
X13101000Y-9187500D02*
X13061000Y-9227500D01*
X13370500Y-9513000D02*
X13410500Y-9553000D01*
X13410500Y-9513000D02*
X13370500Y-9553000D01*
X14021500Y-9497000D02*
X14061500Y-9537000D01*
X14061500Y-9497000D02*
X14021500Y-9537000D01*
X14140500Y-9314500D02*
X14180500Y-9354500D01*
X14180500Y-9314500D02*
X14140500Y-9354500D01*
X14585000Y-12870500D02*
X14625000Y-12910500D01*
X14625000Y-12870500D02*
X14585000Y-12910500D01*
X15402500Y-9513000D02*
X15442500Y-9553000D01*
X15442500Y-9513000D02*
X15402500Y-9553000D01*
X17153400Y-8517400D02*
X17193400Y-8557400D01*
X17193400Y-8517400D02*
X17153400Y-8557400D01*
X17696500Y-12870500D02*
X17736500Y-12910500D01*
X17736500Y-12870500D02*
X17696500Y-12910500D01*
X19284000Y-12426000D02*
X19324000Y-12466000D01*
X19324000Y-12426000D02*
X19284000Y-12466000D01*
X19601500Y-10838500D02*
X19641500Y-10878500D01*
X19641500Y-10838500D02*
X19601500Y-10878500D01*
X19665000Y-10965500D02*
X19705000Y-11005500D01*
X19705000Y-10965500D02*
X19665000Y-11005500D01*
X19792000Y-11219500D02*
X19832000Y-11259500D01*
X19832000Y-11219500D02*
X19792000Y-11259500D01*
X19919000Y-11410000D02*
X19959000Y-11450000D01*
X19959000Y-11410000D02*
X19919000Y-11450000D01*
X19982500Y-11537000D02*
X20022500Y-11577000D01*
X20022500Y-11537000D02*
X19982500Y-11577000D01*
X20109500Y-12426000D02*
X20149500Y-12466000D01*
X20149500Y-12426000D02*
X20109500Y-12466000D01*
X20300000Y-11727500D02*
X20340000Y-11767500D01*
X20340000Y-11727500D02*
X20300000Y-11767500D01*
X20427000Y-11600500D02*
X20467000Y-11640500D01*
X20467000Y-11600500D02*
X20427000Y-11640500D01*
X20427000Y-12743500D02*
X20467000Y-12783500D01*
X20467000Y-12743500D02*
X20427000Y-12783500D01*
X20681000Y-12299000D02*
X20721000Y-12339000D01*
X20721000Y-12299000D02*
X20681000Y-12339000D01*
X22840000Y-7536500D02*
X22880000Y-7576500D01*
X22880000Y-7536500D02*
X22840000Y-7576500D01*
X22903500Y-8298500D02*
X22943500Y-8338500D01*
X22943500Y-8298500D02*
X22903500Y-8338500D01*
X23030500Y-7536500D02*
X23070500Y-7576500D01*
X23070500Y-7536500D02*
X23030500Y-7576500D01*
X23157500Y-8171500D02*
X23197500Y-8211500D01*
X23197500Y-8171500D02*
X23157500Y-8211500D01*
D13*
X9944100Y-12380000D02*
G75*
G03*
X9944100Y-12380000I-38100J0D01*
G01*
X10198100Y-12380000D02*
G75*
G03*
X10198100Y-12380000I-38100J0D01*
G01*
X10452100Y-12380000D02*
G75*
G03*
X10452100Y-12380000I-38100J0D01*
G01*
X10706100Y-12380000D02*
G75*
G03*
X10706100Y-12380000I-38100J0D01*
G01*
X10960100Y-12380000D02*
G75*
G03*
X10960100Y-12380000I-38100J0D01*
G01*
X11214100Y-12380000D02*
G75*
G03*
X11214100Y-12380000I-38100J0D01*
G01*
X11468100Y-12380000D02*
G75*
G03*
X11468100Y-12380000I-38100J0D01*
G01*
X11722100Y-12380000D02*
G75*
G03*
X11722100Y-12380000I-38100J0D01*
G01*
X11976100Y-12380000D02*
G75*
G03*
X11976100Y-12380000I-38100J0D01*
G01*
X12230100Y-12380000D02*
G75*
G03*
X12230100Y-12380000I-38100J0D01*
G01*
D10*
X17335500Y-6681000D02*
X17335500Y-6781000D01*
X17285500Y-6731000D02*
X17385500Y-6731000D01*
X17589500Y-6681000D02*
X17589500Y-6781000D01*
X17539500Y-6731000D02*
X17639500Y-6731000D01*
X24384000Y-7570000D02*
X24384000Y-7670000D01*
X24334000Y-7620000D02*
X24434000Y-7620000D01*
X24384000Y-7824000D02*
X24384000Y-7924000D01*
X24334000Y-7874000D02*
X24434000Y-7874000D01*
X24384000Y-8078000D02*
X24384000Y-8178000D01*
X24334000Y-8128000D02*
X24434000Y-8128000D01*
X24384000Y-8332000D02*
X24384000Y-8432000D01*
X24334000Y-8382000D02*
X24434000Y-8382000D01*
X24384000Y-9094000D02*
X24384000Y-9194000D01*
X24334000Y-9144000D02*
X24434000Y-9144000D01*
X24384000Y-9348000D02*
X24384000Y-9448000D01*
X24334000Y-9398000D02*
X24434000Y-9398000D01*
X24384000Y-9602000D02*
X24384000Y-9702000D01*
X24334000Y-9652000D02*
X24434000Y-9652000D01*
X24384000Y-9856000D02*
X24384000Y-9956000D01*
X24334000Y-9906000D02*
X24434000Y-9906000D01*
X24384000Y-10745000D02*
X24384000Y-10845000D01*
X24334000Y-10795000D02*
X24434000Y-10795000D01*
X24384000Y-10999000D02*
X24384000Y-11099000D01*
X24334000Y-11049000D02*
X24434000Y-11049000D01*
X24384000Y-11253000D02*
X24384000Y-11353000D01*
X24334000Y-11303000D02*
X24434000Y-11303000D01*
X24384000Y-11507000D02*
X24384000Y-11607000D01*
X24334000Y-11557000D02*
X24434000Y-11557000D01*
X24638000Y-7570000D02*
X24638000Y-7670000D01*
X24588000Y-7620000D02*
X24688000Y-7620000D01*
X24638000Y-7824000D02*
X24638000Y-7924000D01*
X24588000Y-7874000D02*
X24688000Y-7874000D01*
X24638000Y-8078000D02*
X24638000Y-8178000D01*
X24588000Y-8128000D02*
X24688000Y-8128000D01*
X24638000Y-8332000D02*
X24638000Y-8432000D01*
X24588000Y-8382000D02*
X24688000Y-8382000D01*
X24638000Y-9094000D02*
X24638000Y-9194000D01*
X24588000Y-9144000D02*
X24688000Y-9144000D01*
X24638000Y-9348000D02*
X24638000Y-9448000D01*
X24588000Y-9398000D02*
X24688000Y-9398000D01*
X24638000Y-9602000D02*
X24638000Y-9702000D01*
X24588000Y-9652000D02*
X24688000Y-9652000D01*
X24638000Y-9856000D02*
X24638000Y-9956000D01*
X24588000Y-9906000D02*
X24688000Y-9906000D01*
X24638000Y-10745000D02*
X24638000Y-10845000D01*
X24588000Y-10795000D02*
X24688000Y-10795000D01*
X24638000Y-10999000D02*
X24638000Y-11099000D01*
X24588000Y-11049000D02*
X24688000Y-11049000D01*
X24638000Y-11253000D02*
X24638000Y-11353000D01*
X24588000Y-11303000D02*
X24688000Y-11303000D01*
X24638000Y-11507000D02*
X24638000Y-11607000D01*
X24588000Y-11557000D02*
X24688000Y-11557000D01*
D14*
X18704383Y-5661482D02*
X18704383Y-5590718D01*
X18633618Y-5590718D01*
X18633618Y-5661482D01*
X18704383Y-5661482D01*
X18704383Y-5915482D02*
X18704383Y-5844717D01*
X18633618Y-5844717D01*
X18633618Y-5915482D01*
X18704383Y-5915482D01*
X18704383Y-6169482D02*
X18704383Y-6098717D01*
X18633618Y-6098717D01*
X18633618Y-6169482D01*
X18704383Y-6169482D01*
X18704383Y-6423482D02*
X18704383Y-6352717D01*
X18633618Y-6352717D01*
X18633618Y-6423482D01*
X18704383Y-6423482D01*
X18704383Y-6677482D02*
X18704383Y-6606717D01*
X18633618Y-6606717D01*
X18633618Y-6677482D01*
X18704383Y-6677482D01*
X18704383Y-6931482D02*
X18704383Y-6860717D01*
X18633618Y-6860717D01*
X18633618Y-6931482D01*
X18704383Y-6931482D01*
X18704383Y-7185482D02*
X18704383Y-7114717D01*
X18633618Y-7114717D01*
X18633618Y-7185482D01*
X18704383Y-7185482D01*
X18704383Y-7439482D02*
X18704383Y-7368717D01*
X18633618Y-7368717D01*
X18633618Y-7439482D01*
X18704383Y-7439482D01*
X18704383Y-7693482D02*
X18704383Y-7622717D01*
X18633618Y-7622717D01*
X18633618Y-7693482D01*
X18704383Y-7693482D01*
X18704383Y-7947482D02*
X18704383Y-7876717D01*
X18633618Y-7876717D01*
X18633618Y-7947482D01*
X18704383Y-7947482D01*
X18704383Y-8353882D02*
X18704383Y-8283117D01*
X18633618Y-8283117D01*
X18633618Y-8353882D01*
X18704383Y-8353882D01*
X18704383Y-8607883D02*
X18704383Y-8537118D01*
X18633618Y-8537118D01*
X18633618Y-8607883D01*
X18704383Y-8607883D01*
X18704383Y-8861883D02*
X18704383Y-8791118D01*
X18633618Y-8791118D01*
X18633618Y-8861883D01*
X18704383Y-8861883D01*
X18704383Y-9115883D02*
X18704383Y-9045118D01*
X18633618Y-9045118D01*
X18633618Y-9115883D01*
X18704383Y-9115883D01*
X18704383Y-9369883D02*
X18704383Y-9299118D01*
X18633618Y-9299118D01*
X18633618Y-9369883D01*
X18704383Y-9369883D01*
X18704383Y-9623883D02*
X18704383Y-9553118D01*
X18633618Y-9553118D01*
X18633618Y-9623883D01*
X18704383Y-9623883D01*
X18704383Y-9877883D02*
X18704383Y-9807118D01*
X18633618Y-9807118D01*
X18633618Y-9877883D01*
X18704383Y-9877883D01*
X18704383Y-10131883D02*
X18704383Y-10061118D01*
X18633618Y-10061118D01*
X18633618Y-10131883D01*
X18704383Y-10131883D01*
X18704383Y-10639883D02*
X18704383Y-10569118D01*
X18633618Y-10569118D01*
X18633618Y-10639883D01*
X18704383Y-10639883D01*
X18704383Y-10893883D02*
X18704383Y-10823118D01*
X18633618Y-10823118D01*
X18633618Y-10893883D01*
X18704383Y-10893883D01*
X18704383Y-11147883D02*
X18704383Y-11077118D01*
X18633618Y-11077118D01*
X18633618Y-11147883D01*
X18704383Y-11147883D01*
X18704383Y-11401882D02*
X18704383Y-11331117D01*
X18633618Y-11331117D01*
X18633618Y-11401882D01*
X18704383Y-11401882D01*
X18704383Y-11655882D02*
X18704383Y-11585117D01*
X18633618Y-11585117D01*
X18633618Y-11655882D01*
X18704383Y-11655882D01*
X18704383Y-11909882D02*
X18704383Y-11839117D01*
X18633618Y-11839117D01*
X18633618Y-11909882D01*
X18704383Y-11909882D01*
X18704383Y-12163882D02*
X18704383Y-12093117D01*
X18633618Y-12093117D01*
X18633618Y-12163882D01*
X18704383Y-12163882D01*
X18704383Y-12417882D02*
X18704383Y-12347117D01*
X18633618Y-12347117D01*
X18633618Y-12417882D01*
X18704383Y-12417882D01*
X18704383Y-13179882D02*
X18704383Y-13109117D01*
X18633618Y-13109117D01*
X18633618Y-13179882D01*
X18704383Y-13179882D01*
X18704383Y-13433882D02*
X18704383Y-13363117D01*
X18633618Y-13363117D01*
X18633618Y-13433882D01*
X18704383Y-13433882D01*
X18958383Y-13179882D02*
X18958383Y-13109117D01*
X18887618Y-13109117D01*
X18887618Y-13179882D01*
X18958383Y-13179882D01*
X18958383Y-13433882D02*
X18958383Y-13363117D01*
X18887618Y-13363117D01*
X18887618Y-13433882D01*
X18958383Y-13433882D01*
X19212383Y-13179882D02*
X19212383Y-13109117D01*
X19141618Y-13109117D01*
X19141618Y-13179882D01*
X19212383Y-13179882D01*
X19212383Y-13433882D02*
X19212383Y-13363117D01*
X19141618Y-13363117D01*
X19141618Y-13433882D01*
X19212383Y-13433882D01*
X19466383Y-13179882D02*
X19466383Y-13109117D01*
X19395618Y-13109117D01*
X19395618Y-13179882D01*
X19466383Y-13179882D01*
X19466383Y-13433882D02*
X19466383Y-13363117D01*
X19395618Y-13363117D01*
X19395618Y-13433882D01*
X19466383Y-13433882D01*
X19720383Y-13179882D02*
X19720383Y-13109117D01*
X19649618Y-13109117D01*
X19649618Y-13179882D01*
X19720383Y-13179882D01*
X19720383Y-13433882D02*
X19720383Y-13363117D01*
X19649618Y-13363117D01*
X19649618Y-13433882D01*
X19720383Y-13433882D01*
X19974383Y-13179882D02*
X19974383Y-13109117D01*
X19903618Y-13109117D01*
X19903618Y-13179882D01*
X19974383Y-13179882D01*
X19974383Y-13433882D02*
X19974383Y-13363117D01*
X19903618Y-13363117D01*
X19903618Y-13433882D01*
X19974383Y-13433882D01*
X20228383Y-13179882D02*
X20228383Y-13109117D01*
X20157618Y-13109117D01*
X20157618Y-13179882D01*
X20228383Y-13179882D01*
X20228383Y-13433882D02*
X20228383Y-13363117D01*
X20157618Y-13363117D01*
X20157618Y-13433882D01*
X20228383Y-13433882D01*
X20482383Y-13179882D02*
X20482383Y-13109117D01*
X20411618Y-13109117D01*
X20411618Y-13179882D01*
X20482383Y-13179882D01*
X20482383Y-13433882D02*
X20482383Y-13363117D01*
X20411618Y-13363117D01*
X20411618Y-13433882D01*
X20482383Y-13433882D01*
X20736383Y-13179882D02*
X20736383Y-13109117D01*
X20665618Y-13109117D01*
X20665618Y-13179882D01*
X20736383Y-13179882D01*
X20736383Y-13433882D02*
X20736383Y-13363117D01*
X20665618Y-13363117D01*
X20665618Y-13433882D01*
X20736383Y-13433882D01*
X20990383Y-13179882D02*
X20990383Y-13109117D01*
X20919618Y-13109117D01*
X20919618Y-13179882D01*
X20990383Y-13179882D01*
X20990383Y-13433882D02*
X20990383Y-13363117D01*
X20919618Y-13363117D01*
X20919618Y-13433882D01*
X20990383Y-13433882D01*
X21244383Y-13179882D02*
X21244383Y-13109117D01*
X21173618Y-13109117D01*
X21173618Y-13179882D01*
X21244383Y-13179882D01*
X21244383Y-13433882D02*
X21244383Y-13363117D01*
X21173618Y-13363117D01*
X21173618Y-13433882D01*
X21244383Y-13433882D01*
X21498383Y-13179882D02*
X21498383Y-13109117D01*
X21427618Y-13109117D01*
X21427618Y-13179882D01*
X21498383Y-13179882D01*
X21498383Y-13433882D02*
X21498383Y-13363117D01*
X21427618Y-13363117D01*
X21427618Y-13433882D01*
X21498383Y-13433882D01*
X21752383Y-13179882D02*
X21752383Y-13109117D01*
X21681618Y-13109117D01*
X21681618Y-13179882D01*
X21752383Y-13179882D01*
X21752383Y-13433882D02*
X21752383Y-13363117D01*
X21681618Y-13363117D01*
X21681618Y-13433882D01*
X21752383Y-13433882D01*
X22006383Y-13179882D02*
X22006383Y-13109117D01*
X21935618Y-13109117D01*
X21935618Y-13179882D01*
X22006383Y-13179882D01*
X22006383Y-13433882D02*
X22006383Y-13363117D01*
X21935618Y-13363117D01*
X21935618Y-13433882D01*
X22006383Y-13433882D01*
X22260383Y-13179882D02*
X22260383Y-13109117D01*
X22189618Y-13109117D01*
X22189618Y-13179882D01*
X22260383Y-13179882D01*
X22260383Y-13433882D02*
X22260383Y-13363117D01*
X22189618Y-13363117D01*
X22189618Y-13433882D01*
X22260383Y-13433882D01*
X22514382Y-13179882D02*
X22514382Y-13109117D01*
X22443617Y-13109117D01*
X22443617Y-13179882D01*
X22514382Y-13179882D01*
X22514382Y-13433882D02*
X22514382Y-13363117D01*
X22443617Y-13363117D01*
X22443617Y-13433882D01*
X22514382Y-13433882D01*
X22768382Y-13179882D02*
X22768382Y-13109117D01*
X22697617Y-13109117D01*
X22697617Y-13179882D01*
X22768382Y-13179882D01*
X22768382Y-13433882D02*
X22768382Y-13363117D01*
X22697617Y-13363117D01*
X22697617Y-13433882D01*
X22768382Y-13433882D01*
X23022382Y-13179882D02*
X23022382Y-13109117D01*
X22951617Y-13109117D01*
X22951617Y-13179882D01*
X23022382Y-13179882D01*
X23022382Y-13433882D02*
X23022382Y-13363117D01*
X22951617Y-13363117D01*
X22951617Y-13433882D01*
X23022382Y-13433882D01*
X23530382Y-6575882D02*
X23530382Y-6505117D01*
X23459617Y-6505117D01*
X23459617Y-6575882D01*
X23530382Y-6575882D01*
X23530382Y-6829882D02*
X23530382Y-6759117D01*
X23459617Y-6759117D01*
X23459617Y-6829882D01*
X23530382Y-6829882D01*
X23530382Y-7083882D02*
X23530382Y-7013117D01*
X23459617Y-7013117D01*
X23459617Y-7083882D01*
X23530382Y-7083882D01*
X23530382Y-7337882D02*
X23530382Y-7267117D01*
X23459617Y-7267117D01*
X23459617Y-7337882D01*
X23530382Y-7337882D01*
X23530382Y-7591882D02*
X23530382Y-7521117D01*
X23459617Y-7521117D01*
X23459617Y-7591882D01*
X23530382Y-7591882D01*
X23530382Y-7845882D02*
X23530382Y-7775117D01*
X23459617Y-7775117D01*
X23459617Y-7845882D01*
X23530382Y-7845882D01*
X23530382Y-8099882D02*
X23530382Y-8029117D01*
X23459617Y-8029117D01*
X23459617Y-8099882D01*
X23530382Y-8099882D01*
X23530382Y-8353882D02*
X23530382Y-8283117D01*
X23459617Y-8283117D01*
X23459617Y-8353882D01*
X23530382Y-8353882D01*
X23530382Y-8861883D02*
X23530382Y-8791118D01*
X23459617Y-8791118D01*
X23459617Y-8861883D01*
X23530382Y-8861883D01*
X23530382Y-9115883D02*
X23530382Y-9045118D01*
X23459617Y-9045118D01*
X23459617Y-9115883D01*
X23530382Y-9115883D01*
X23530382Y-9369883D02*
X23530382Y-9299118D01*
X23459617Y-9299118D01*
X23459617Y-9369883D01*
X23530382Y-9369883D01*
X23530382Y-9623883D02*
X23530382Y-9553118D01*
X23459617Y-9553118D01*
X23459617Y-9623883D01*
X23530382Y-9623883D01*
X23530382Y-9877883D02*
X23530382Y-9807118D01*
X23459617Y-9807118D01*
X23459617Y-9877883D01*
X23530382Y-9877883D01*
X23530382Y-10131883D02*
X23530382Y-10061118D01*
X23459617Y-10061118D01*
X23459617Y-10131883D01*
X23530382Y-10131883D01*
X23530382Y-10385883D02*
X23530382Y-10315118D01*
X23459617Y-10315118D01*
X23459617Y-10385883D01*
X23530382Y-10385883D01*
X23530382Y-10639883D02*
X23530382Y-10569118D01*
X23459617Y-10569118D01*
X23459617Y-10639883D01*
X23530382Y-10639883D01*
X23530382Y-11147883D02*
X23530382Y-11077118D01*
X23459617Y-11077118D01*
X23459617Y-11147883D01*
X23530382Y-11147883D01*
X23530382Y-11401882D02*
X23530382Y-11331117D01*
X23459617Y-11331117D01*
X23459617Y-11401882D01*
X23530382Y-11401882D01*
X23530382Y-11655882D02*
X23530382Y-11585117D01*
X23459617Y-11585117D01*
X23459617Y-11655882D01*
X23530382Y-11655882D01*
X23530382Y-11909882D02*
X23530382Y-11839117D01*
X23459617Y-11839117D01*
X23459617Y-11909882D01*
X23530382Y-11909882D01*
X23530382Y-12163882D02*
X23530382Y-12093117D01*
X23459617Y-12093117D01*
X23459617Y-12163882D01*
X23530382Y-12163882D01*
X23530382Y-12417882D02*
X23530382Y-12347117D01*
X23459617Y-12347117D01*
X23459617Y-12417882D01*
X23530382Y-12417882D01*
X23530382Y-12671882D02*
X23530382Y-12601117D01*
X23459617Y-12601117D01*
X23459617Y-12671882D01*
X23530382Y-12671882D01*
X23530382Y-12925882D02*
X23530382Y-12855117D01*
X23459617Y-12855117D01*
X23459617Y-12925882D01*
X23530382Y-12925882D01*
D15*
X5617000Y-13957000D02*
X5672000Y-13902000D01*
X5617000Y-13847000D01*
X5562000Y-13902000D01*
X5617000Y-13957000D01*
X5617000Y-14607000D02*
X5672000Y-14552000D01*
X5617000Y-14497000D01*
X5562000Y-14552000D01*
X5617000Y-14607000D01*
X6067000Y-13957000D02*
X6122000Y-13902000D01*
X6067000Y-13847000D01*
X6012000Y-13902000D01*
X6067000Y-13957000D01*
X6067000Y-14607000D02*
X6122000Y-14552000D01*
X6067000Y-14497000D01*
X6012000Y-14552000D01*
X6067000Y-14607000D01*
X6633000Y-13957000D02*
X6688000Y-13902000D01*
X6633000Y-13847000D01*
X6578000Y-13902000D01*
X6633000Y-13957000D01*
X6633000Y-14607000D02*
X6688000Y-14552000D01*
X6633000Y-14497000D01*
X6578000Y-14552000D01*
X6633000Y-14607000D01*
X7083000Y-13957000D02*
X7138000Y-13902000D01*
X7083000Y-13847000D01*
X7028000Y-13902000D01*
X7083000Y-13957000D01*
X7083000Y-14607000D02*
X7138000Y-14552000D01*
X7083000Y-14497000D01*
X7028000Y-14552000D01*
X7083000Y-14607000D01*
X7620000Y-13957000D02*
X7675000Y-13902000D01*
X7620000Y-13847000D01*
X7565000Y-13902000D01*
X7620000Y-13957000D01*
X7620000Y-14607000D02*
X7675000Y-14552000D01*
X7620000Y-14497000D01*
X7565000Y-14552000D01*
X7620000Y-14607000D01*
X8070000Y-13957000D02*
X8125000Y-13902000D01*
X8070000Y-13847000D01*
X8015000Y-13902000D01*
X8070000Y-13957000D01*
X8070000Y-14607000D02*
X8125000Y-14552000D01*
X8070000Y-14497000D01*
X8015000Y-14552000D01*
X8070000Y-14607000D01*
X8665000Y-13957000D02*
X8720000Y-13902000D01*
X8665000Y-13847000D01*
X8610000Y-13902000D01*
X8665000Y-13957000D01*
X8665000Y-14607000D02*
X8720000Y-14552000D01*
X8665000Y-14497000D01*
X8610000Y-14552000D01*
X8665000Y-14607000D01*
X9115000Y-13957000D02*
X9170000Y-13902000D01*
X9115000Y-13847000D01*
X9060000Y-13902000D01*
X9115000Y-13957000D01*
X9115000Y-14607000D02*
X9170000Y-14552000D01*
X9115000Y-14497000D01*
X9060000Y-14552000D01*
X9115000Y-14607000D01*
X9681000Y-13957000D02*
X9736000Y-13902000D01*
X9681000Y-13847000D01*
X9626000Y-13902000D01*
X9681000Y-13957000D01*
X9681000Y-14607000D02*
X9736000Y-14552000D01*
X9681000Y-14497000D01*
X9626000Y-14552000D01*
X9681000Y-14607000D01*
X10131000Y-13957000D02*
X10186000Y-13902000D01*
X10131000Y-13847000D01*
X10076000Y-13902000D01*
X10131000Y-13957000D01*
X10131000Y-14607000D02*
X10186000Y-14552000D01*
X10131000Y-14497000D01*
X10076000Y-14552000D01*
X10131000Y-14607000D01*
X10697000Y-13957000D02*
X10752000Y-13902000D01*
X10697000Y-13847000D01*
X10642000Y-13902000D01*
X10697000Y-13957000D01*
X10697000Y-14607000D02*
X10752000Y-14552000D01*
X10697000Y-14497000D01*
X10642000Y-14552000D01*
X10697000Y-14607000D01*
X11147000Y-13957000D02*
X11202000Y-13902000D01*
X11147000Y-13847000D01*
X11092000Y-13902000D01*
X11147000Y-13957000D01*
X11147000Y-14607000D02*
X11202000Y-14552000D01*
X11147000Y-14497000D01*
X11092000Y-14552000D01*
X11147000Y-14607000D01*
X11684000Y-13957000D02*
X11739000Y-13902000D01*
X11684000Y-13847000D01*
X11629000Y-13902000D01*
X11684000Y-13957000D01*
X11684000Y-14607000D02*
X11739000Y-14552000D01*
X11684000Y-14497000D01*
X11629000Y-14552000D01*
X11684000Y-14607000D01*
X12134000Y-13957000D02*
X12189000Y-13902000D01*
X12134000Y-13847000D01*
X12079000Y-13902000D01*
X12134000Y-13957000D01*
X12134000Y-14607000D02*
X12189000Y-14552000D01*
X12134000Y-14497000D01*
X12079000Y-14552000D01*
X12134000Y-14607000D01*
X12729000Y-13957000D02*
X12784000Y-13902000D01*
X12729000Y-13847000D01*
X12674000Y-13902000D01*
X12729000Y-13957000D01*
X12729000Y-14607000D02*
X12784000Y-14552000D01*
X12729000Y-14497000D01*
X12674000Y-14552000D01*
X12729000Y-14607000D01*
X13179000Y-13957000D02*
X13234000Y-13902000D01*
X13179000Y-13847000D01*
X13124000Y-13902000D01*
X13179000Y-13957000D01*
X13179000Y-14607000D02*
X13234000Y-14552000D01*
X13179000Y-14497000D01*
X13124000Y-14552000D01*
X13179000Y-14607000D01*
X13745000Y-13957000D02*
X13800000Y-13902000D01*
X13745000Y-13847000D01*
X13690000Y-13902000D01*
X13745000Y-13957000D01*
X13745000Y-14607000D02*
X13800000Y-14552000D01*
X13745000Y-14497000D01*
X13690000Y-14552000D01*
X13745000Y-14607000D01*
X14195000Y-13957000D02*
X14250000Y-13902000D01*
X14195000Y-13847000D01*
X14140000Y-13902000D01*
X14195000Y-13957000D01*
X14195000Y-14607000D02*
X14250000Y-14552000D01*
X14195000Y-14497000D01*
X14140000Y-14552000D01*
X14195000Y-14607000D01*
X14761000Y-13957000D02*
X14816000Y-13902000D01*
X14761000Y-13847000D01*
X14706000Y-13902000D01*
X14761000Y-13957000D01*
X14761000Y-14607000D02*
X14816000Y-14552000D01*
X14761000Y-14497000D01*
X14706000Y-14552000D01*
X14761000Y-14607000D01*
X15211000Y-13957000D02*
X15266000Y-13902000D01*
X15211000Y-13847000D01*
X15156000Y-13902000D01*
X15211000Y-13957000D01*
X15211000Y-14607000D02*
X15266000Y-14552000D01*
X15211000Y-14497000D01*
X15156000Y-14552000D01*
X15211000Y-14607000D01*
X24159000Y-12684000D02*
X24214000Y-12629000D01*
X24159000Y-12574000D01*
X24104000Y-12629000D01*
X24159000Y-12684000D01*
X24159000Y-13334000D02*
X24214000Y-13279000D01*
X24159000Y-13224000D01*
X24104000Y-13279000D01*
X24159000Y-13334000D01*
X24609000Y-12684000D02*
X24664000Y-12629000D01*
X24609000Y-12574000D01*
X24554000Y-12629000D01*
X24609000Y-12684000D01*
X24609000Y-13334000D02*
X24664000Y-13279000D01*
X24609000Y-13224000D01*
X24554000Y-13279000D01*
X24609000Y-13334000D01*
D16*
X5004000Y-7153500D02*
X5156000Y-7305500D01*
X5156000Y-7153500D02*
X5004000Y-7305500D01*
X5156000Y-7229500D02*
G75*
G03*
X5156000Y-7229500I-76000J0D01*
G01*
X5385000Y-5258000D02*
X5537000Y-5410000D01*
X5537000Y-5258000D02*
X5385000Y-5410000D01*
X5537000Y-5334000D02*
G75*
G03*
X5537000Y-5334000I-76000J0D01*
G01*
X5512000Y-7153500D02*
X5664000Y-7305500D01*
X5664000Y-7153500D02*
X5512000Y-7305500D01*
X5664000Y-7229500D02*
G75*
G03*
X5664000Y-7229500I-76000J0D01*
G01*
X5893000Y-5258000D02*
X6045000Y-5410000D01*
X6045000Y-5258000D02*
X5893000Y-5410000D01*
X6045000Y-5334000D02*
G75*
G03*
X6045000Y-5334000I-76000J0D01*
G01*
X6020000Y-7153500D02*
X6172000Y-7305500D01*
X6172000Y-7153500D02*
X6020000Y-7305500D01*
X6172000Y-7229500D02*
G75*
G03*
X6172000Y-7229500I-76000J0D01*
G01*
X6401000Y-5258000D02*
X6553000Y-5410000D01*
X6553000Y-5258000D02*
X6401000Y-5410000D01*
X6553000Y-5334000D02*
G75*
G03*
X6553000Y-5334000I-76000J0D01*
G01*
X6528000Y-7153500D02*
X6680000Y-7305500D01*
X6680000Y-7153500D02*
X6528000Y-7305500D01*
X6680000Y-7229500D02*
G75*
G03*
X6680000Y-7229500I-76000J0D01*
G01*
X6909000Y-5258000D02*
X7061000Y-5410000D01*
X7061000Y-5258000D02*
X6909000Y-5410000D01*
X7061000Y-5334000D02*
G75*
G03*
X7061000Y-5334000I-76000J0D01*
G01*
X7036000Y-7153500D02*
X7188000Y-7305500D01*
X7188000Y-7153500D02*
X7036000Y-7305500D01*
X7188000Y-7229500D02*
G75*
G03*
X7188000Y-7229500I-76000J0D01*
G01*
X7417000Y-5258000D02*
X7569000Y-5410000D01*
X7569000Y-5258000D02*
X7417000Y-5410000D01*
X7569000Y-5334000D02*
G75*
G03*
X7569000Y-5334000I-76000J0D01*
G01*
X7544000Y-7153500D02*
X7696000Y-7305500D01*
X7696000Y-7153500D02*
X7544000Y-7305500D01*
X7696000Y-7229500D02*
G75*
G03*
X7696000Y-7229500I-76000J0D01*
G01*
X7925000Y-5258000D02*
X8077000Y-5410000D01*
X8077000Y-5258000D02*
X7925000Y-5410000D01*
X8077000Y-5334000D02*
G75*
G03*
X8077000Y-5334000I-76000J0D01*
G01*
X8052000Y-7153500D02*
X8204000Y-7305500D01*
X8204000Y-7153500D02*
X8052000Y-7305500D01*
X8204000Y-7229500D02*
G75*
G03*
X8204000Y-7229500I-76000J0D01*
G01*
X8433000Y-5258000D02*
X8585000Y-5410000D01*
X8585000Y-5258000D02*
X8433000Y-5410000D01*
X8585000Y-5334000D02*
G75*
G03*
X8585000Y-5334000I-76000J0D01*
G01*
X8560000Y-7153500D02*
X8712000Y-7305500D01*
X8712000Y-7153500D02*
X8560000Y-7305500D01*
X8712000Y-7229500D02*
G75*
G03*
X8712000Y-7229500I-76000J0D01*
G01*
X8941000Y-5258000D02*
X9093000Y-5410000D01*
X9093000Y-5258000D02*
X8941000Y-5410000D01*
X9093000Y-5334000D02*
G75*
G03*
X9093000Y-5334000I-76000J0D01*
G01*
X9068000Y-7153500D02*
X9220000Y-7305500D01*
X9220000Y-7153500D02*
X9068000Y-7305500D01*
X9220000Y-7229500D02*
G75*
G03*
X9220000Y-7229500I-76000J0D01*
G01*
X9449000Y-5258000D02*
X9601000Y-5410000D01*
X9601000Y-5258000D02*
X9449000Y-5410000D01*
X9601000Y-5334000D02*
G75*
G03*
X9601000Y-5334000I-76000J0D01*
G01*
X9576000Y-7153500D02*
X9728000Y-7305500D01*
X9728000Y-7153500D02*
X9576000Y-7305500D01*
X9728000Y-7229500D02*
G75*
G03*
X9728000Y-7229500I-76000J0D01*
G01*
X9957000Y-5258000D02*
X10109000Y-5410000D01*
X10109000Y-5258000D02*
X9957000Y-5410000D01*
X10109000Y-5334000D02*
G75*
G03*
X10109000Y-5334000I-76000J0D01*
G01*
X10084000Y-7153500D02*
X10236000Y-7305500D01*
X10236000Y-7153500D02*
X10084000Y-7305500D01*
X10236000Y-7229500D02*
G75*
G03*
X10236000Y-7229500I-76000J0D01*
G01*
X10465000Y-5258000D02*
X10617000Y-5410000D01*
X10617000Y-5258000D02*
X10465000Y-5410000D01*
X10617000Y-5334000D02*
G75*
G03*
X10617000Y-5334000I-76000J0D01*
G01*
X10592000Y-7153500D02*
X10744000Y-7305500D01*
X10744000Y-7153500D02*
X10592000Y-7305500D01*
X10744000Y-7229500D02*
G75*
G03*
X10744000Y-7229500I-76000J0D01*
G01*
X10973000Y-5258000D02*
X11125000Y-5410000D01*
X11125000Y-5258000D02*
X10973000Y-5410000D01*
X11125000Y-5334000D02*
G75*
G03*
X11125000Y-5334000I-76000J0D01*
G01*
X11100000Y-7153500D02*
X11252000Y-7305500D01*
X11252000Y-7153500D02*
X11100000Y-7305500D01*
X11252000Y-7229500D02*
G75*
G03*
X11252000Y-7229500I-76000J0D01*
G01*
X11481000Y-5258000D02*
X11633000Y-5410000D01*
X11633000Y-5258000D02*
X11481000Y-5410000D01*
X11633000Y-5334000D02*
G75*
G03*
X11633000Y-5334000I-76000J0D01*
G01*
X11608000Y-7153500D02*
X11760000Y-7305500D01*
X11760000Y-7153500D02*
X11608000Y-7305500D01*
X11760000Y-7229500D02*
G75*
G03*
X11760000Y-7229500I-76000J0D01*
G01*
X11989000Y-5258000D02*
X12141000Y-5410000D01*
X12141000Y-5258000D02*
X11989000Y-5410000D01*
X12141000Y-5334000D02*
G75*
G03*
X12141000Y-5334000I-76000J0D01*
G01*
X12116000Y-7153500D02*
X12268000Y-7305500D01*
X12268000Y-7153500D02*
X12116000Y-7305500D01*
X12268000Y-7229500D02*
G75*
G03*
X12268000Y-7229500I-76000J0D01*
G01*
X12497000Y-5258000D02*
X12649000Y-5410000D01*
X12649000Y-5258000D02*
X12497000Y-5410000D01*
X12649000Y-5334000D02*
G75*
G03*
X12649000Y-5334000I-76000J0D01*
G01*
X12624000Y-7153500D02*
X12776000Y-7305500D01*
X12776000Y-7153500D02*
X12624000Y-7305500D01*
X12776000Y-7229500D02*
G75*
G03*
X12776000Y-7229500I-76000J0D01*
G01*
X13005000Y-5258000D02*
X13157000Y-5410000D01*
X13157000Y-5258000D02*
X13005000Y-5410000D01*
X13157000Y-5334000D02*
G75*
G03*
X13157000Y-5334000I-76000J0D01*
G01*
X13132000Y-7153500D02*
X13284000Y-7305500D01*
X13284000Y-7153500D02*
X13132000Y-7305500D01*
X13284000Y-7229500D02*
G75*
G03*
X13284000Y-7229500I-76000J0D01*
G01*
X13513000Y-5258000D02*
X13665000Y-5410000D01*
X13665000Y-5258000D02*
X13513000Y-5410000D01*
X13665000Y-5334000D02*
G75*
G03*
X13665000Y-5334000I-76000J0D01*
G01*
X13640000Y-7153500D02*
X13792000Y-7305500D01*
X13792000Y-7153500D02*
X13640000Y-7305500D01*
X13792000Y-7229500D02*
G75*
G03*
X13792000Y-7229500I-76000J0D01*
G01*
X14021000Y-5258000D02*
X14173000Y-5410000D01*
X14173000Y-5258000D02*
X14021000Y-5410000D01*
X14173000Y-5334000D02*
G75*
G03*
X14173000Y-5334000I-76000J0D01*
G01*
X14148000Y-7163000D02*
X14300000Y-7315000D01*
X14300000Y-7163000D02*
X14148000Y-7315000D01*
X14300000Y-7239000D02*
G75*
G03*
X14300000Y-7239000I-76000J0D01*
G01*
X14529000Y-5258000D02*
X14681000Y-5410000D01*
X14681000Y-5258000D02*
X14529000Y-5410000D01*
X14681000Y-5334000D02*
G75*
G03*
X14681000Y-5334000I-76000J0D01*
G01*
X14656000Y-7163000D02*
X14808000Y-7315000D01*
X14808000Y-7163000D02*
X14656000Y-7315000D01*
X14808000Y-7239000D02*
G75*
G03*
X14808000Y-7239000I-76000J0D01*
G01*
X15037000Y-5258000D02*
X15189000Y-5410000D01*
X15189000Y-5258000D02*
X15037000Y-5410000D01*
X15189000Y-5334000D02*
G75*
G03*
X15189000Y-5334000I-76000J0D01*
G01*
X15164000Y-7163000D02*
X15316000Y-7315000D01*
X15316000Y-7163000D02*
X15164000Y-7315000D01*
X15316000Y-7239000D02*
G75*
G03*
X15316000Y-7239000I-76000J0D01*
G01*
X15672000Y-7163000D02*
X15824000Y-7315000D01*
X15824000Y-7163000D02*
X15672000Y-7315000D01*
X15824000Y-7239000D02*
G75*
G03*
X15824000Y-7239000I-76000J0D01*
G01*
X15862500Y-5766000D02*
X16014500Y-5918000D01*
X16014500Y-5766000D02*
X15862500Y-5918000D01*
X16014500Y-5842000D02*
G75*
G03*
X16014500Y-5842000I-76000J0D01*
G01*
X16180000Y-7163000D02*
X16332000Y-7315000D01*
X16332000Y-7163000D02*
X16180000Y-7315000D01*
X16332000Y-7239000D02*
G75*
G03*
X16332000Y-7239000I-76000J0D01*
G01*
X16370500Y-5766000D02*
X16522500Y-5918000D01*
X16522500Y-5766000D02*
X16370500Y-5918000D01*
X16522500Y-5842000D02*
G75*
G03*
X16522500Y-5842000I-76000J0D01*
G01*
X16688000Y-7163000D02*
X16840000Y-7315000D01*
X16840000Y-7163000D02*
X16688000Y-7315000D01*
X16840000Y-7239000D02*
G75*
G03*
X16840000Y-7239000I-76000J0D01*
G01*
X17005500Y-14151000D02*
X17157500Y-14303000D01*
X17157500Y-14151000D02*
X17005500Y-14303000D01*
X17157500Y-14227000D02*
G75*
G03*
X17157500Y-14227000I-76000J0D01*
G01*
X17022500Y-5769000D02*
X17174500Y-5921000D01*
X17174500Y-5769000D02*
X17022500Y-5921000D01*
X17174500Y-5845000D02*
G75*
G03*
X17174500Y-5845000I-76000J0D01*
G01*
X17513500Y-14151000D02*
X17665500Y-14303000D01*
X17665500Y-14151000D02*
X17513500Y-14303000D01*
X17665500Y-14227000D02*
G75*
G03*
X17665500Y-14227000I-76000J0D01*
G01*
X17530500Y-5769000D02*
X17682500Y-5921000D01*
X17682500Y-5769000D02*
X17530500Y-5921000D01*
X17682500Y-5845000D02*
G75*
G03*
X17682500Y-5845000I-76000J0D01*
G01*
D11*
X4016119Y-15304476D02*
X4016119Y-15104476D01*
X4063738Y-15104476D01*
X4092309Y-15114000D01*
X4111357Y-15133048D01*
X4120881Y-15152095D01*
X4130405Y-15190190D01*
X4130405Y-15218762D01*
X4120881Y-15256857D01*
X4111357Y-15275905D01*
X4092309Y-15294952D01*
X4063738Y-15304476D01*
X4016119Y-15304476D01*
X4216119Y-15304476D02*
X4216119Y-15171143D01*
X4216119Y-15209238D02*
X4225643Y-15190190D01*
X4235167Y-15180667D01*
X4254214Y-15171143D01*
X4273262Y-15171143D01*
X4339929Y-15304476D02*
X4339929Y-15171143D01*
X4339929Y-15104476D02*
X4330405Y-15114000D01*
X4339929Y-15123524D01*
X4349452Y-15114000D01*
X4339929Y-15104476D01*
X4339929Y-15123524D01*
X4463738Y-15304476D02*
X4444690Y-15294952D01*
X4435167Y-15275905D01*
X4435167Y-15104476D01*
X4568500Y-15304476D02*
X4549452Y-15294952D01*
X4539929Y-15275905D01*
X4539929Y-15104476D01*
X4797071Y-15304476D02*
X4797071Y-15104476D01*
X4863738Y-15247333D01*
X4930405Y-15104476D01*
X4930405Y-15304476D01*
X5111357Y-15304476D02*
X5111357Y-15199714D01*
X5101833Y-15180667D01*
X5082786Y-15171143D01*
X5044690Y-15171143D01*
X5025643Y-15180667D01*
X5111357Y-15294952D02*
X5092310Y-15304476D01*
X5044690Y-15304476D01*
X5025643Y-15294952D01*
X5016119Y-15275905D01*
X5016119Y-15256857D01*
X5025643Y-15237809D01*
X5044690Y-15228286D01*
X5092310Y-15228286D01*
X5111357Y-15218762D01*
X5206595Y-15171143D02*
X5206595Y-15371143D01*
X5206595Y-15180667D02*
X5225643Y-15171143D01*
X5263738Y-15171143D01*
X5282786Y-15180667D01*
X5292310Y-15190190D01*
X5301833Y-15209238D01*
X5301833Y-15266381D01*
X5292310Y-15285428D01*
X5282786Y-15294952D01*
X5263738Y-15304476D01*
X5225643Y-15304476D01*
X5206595Y-15294952D01*
X5387548Y-15285428D02*
X5397071Y-15294952D01*
X5387548Y-15304476D01*
X5378024Y-15294952D01*
X5387548Y-15285428D01*
X5387548Y-15304476D01*
X5387548Y-15180667D02*
X5397071Y-15190190D01*
X5387548Y-15199714D01*
X5378024Y-15190190D01*
X5387548Y-15180667D01*
X5387548Y-15199714D01*
D12*
X3718500Y-15614000D02*
X3758500Y-15654000D01*
X3758500Y-15614000D02*
X3718500Y-15654000D01*
D11*
X4054214Y-15524476D02*
X4073262Y-15524476D01*
X4092309Y-15534000D01*
X4101833Y-15543524D01*
X4111357Y-15562571D01*
X4120881Y-15600667D01*
X4120881Y-15648286D01*
X4111357Y-15686381D01*
X4101833Y-15705428D01*
X4092309Y-15714952D01*
X4073262Y-15724476D01*
X4054214Y-15724476D01*
X4035167Y-15714952D01*
X4025643Y-15705428D01*
X4016119Y-15686381D01*
X4006595Y-15648286D01*
X4006595Y-15600667D01*
X4016119Y-15562571D01*
X4025643Y-15543524D01*
X4035167Y-15534000D01*
X4054214Y-15524476D01*
X4206595Y-15705428D02*
X4216119Y-15714952D01*
X4206595Y-15724476D01*
X4197071Y-15714952D01*
X4206595Y-15705428D01*
X4206595Y-15724476D01*
X4387548Y-15591143D02*
X4387548Y-15724476D01*
X4339929Y-15514952D02*
X4292310Y-15657809D01*
X4416119Y-15657809D01*
X4530405Y-15524476D02*
X4549452Y-15524476D01*
X4568500Y-15534000D01*
X4578024Y-15543524D01*
X4587548Y-15562571D01*
X4597071Y-15600667D01*
X4597071Y-15648286D01*
X4587548Y-15686381D01*
X4578024Y-15705428D01*
X4568500Y-15714952D01*
X4549452Y-15724476D01*
X4530405Y-15724476D01*
X4511357Y-15714952D01*
X4501833Y-15705428D01*
X4492310Y-15686381D01*
X4482786Y-15648286D01*
X4482786Y-15600667D01*
X4492310Y-15562571D01*
X4501833Y-15543524D01*
X4511357Y-15534000D01*
X4530405Y-15524476D01*
X4720881Y-15524476D02*
X4739929Y-15524476D01*
X4758976Y-15534000D01*
X4768500Y-15543524D01*
X4778024Y-15562571D01*
X4787548Y-15600667D01*
X4787548Y-15648286D01*
X4778024Y-15686381D01*
X4768500Y-15705428D01*
X4758976Y-15714952D01*
X4739929Y-15724476D01*
X4720881Y-15724476D01*
X4701833Y-15714952D01*
X4692310Y-15705428D01*
X4682786Y-15686381D01*
X4673262Y-15648286D01*
X4673262Y-15600667D01*
X4682786Y-15562571D01*
X4692310Y-15543524D01*
X4701833Y-15534000D01*
X4720881Y-15524476D01*
X4873262Y-15724476D02*
X4873262Y-15591143D01*
X4873262Y-15610190D02*
X4882786Y-15600667D01*
X4901833Y-15591143D01*
X4930405Y-15591143D01*
X4949452Y-15600667D01*
X4958976Y-15619714D01*
X4958976Y-15724476D01*
X4958976Y-15619714D02*
X4968500Y-15600667D01*
X4987548Y-15591143D01*
X5016119Y-15591143D01*
X5035167Y-15600667D01*
X5044690Y-15619714D01*
X5044690Y-15724476D01*
X5139929Y-15724476D02*
X5139929Y-15591143D01*
X5139929Y-15610190D02*
X5149452Y-15600667D01*
X5168500Y-15591143D01*
X5197071Y-15591143D01*
X5216119Y-15600667D01*
X5225643Y-15619714D01*
X5225643Y-15724476D01*
X5225643Y-15619714D02*
X5235167Y-15600667D01*
X5254214Y-15591143D01*
X5282786Y-15591143D01*
X5301833Y-15600667D01*
X5311357Y-15619714D01*
X5311357Y-15724476D01*
X5701833Y-15514952D02*
X5530405Y-15772095D01*
X5958976Y-15524476D02*
X5978024Y-15524476D01*
X5997071Y-15534000D01*
X6006595Y-15543524D01*
X6016119Y-15562571D01*
X6025643Y-15600667D01*
X6025643Y-15648286D01*
X6016119Y-15686381D01*
X6006595Y-15705428D01*
X5997071Y-15714952D01*
X5978024Y-15724476D01*
X5958976Y-15724476D01*
X5939928Y-15714952D01*
X5930405Y-15705428D01*
X5920881Y-15686381D01*
X5911357Y-15648286D01*
X5911357Y-15600667D01*
X5920881Y-15562571D01*
X5930405Y-15543524D01*
X5939928Y-15534000D01*
X5958976Y-15524476D01*
X6111357Y-15705428D02*
X6120881Y-15714952D01*
X6111357Y-15724476D01*
X6101833Y-15714952D01*
X6111357Y-15705428D01*
X6111357Y-15724476D01*
X6244690Y-15524476D02*
X6263738Y-15524476D01*
X6282786Y-15534000D01*
X6292309Y-15543524D01*
X6301833Y-15562571D01*
X6311357Y-15600667D01*
X6311357Y-15648286D01*
X6301833Y-15686381D01*
X6292309Y-15705428D01*
X6282786Y-15714952D01*
X6263738Y-15724476D01*
X6244690Y-15724476D01*
X6225643Y-15714952D01*
X6216119Y-15705428D01*
X6206595Y-15686381D01*
X6197071Y-15648286D01*
X6197071Y-15600667D01*
X6206595Y-15562571D01*
X6216119Y-15543524D01*
X6225643Y-15534000D01*
X6244690Y-15524476D01*
X6501833Y-15724476D02*
X6387548Y-15724476D01*
X6444690Y-15724476D02*
X6444690Y-15524476D01*
X6425643Y-15553048D01*
X6406595Y-15572095D01*
X6387548Y-15581619D01*
X6682786Y-15524476D02*
X6587548Y-15524476D01*
X6578024Y-15619714D01*
X6587548Y-15610190D01*
X6606595Y-15600667D01*
X6654214Y-15600667D01*
X6673262Y-15610190D01*
X6682786Y-15619714D01*
X6692309Y-15638762D01*
X6692309Y-15686381D01*
X6682786Y-15705428D01*
X6673262Y-15714952D01*
X6654214Y-15724476D01*
X6606595Y-15724476D01*
X6587548Y-15714952D01*
X6578024Y-15705428D01*
X6758976Y-15524476D02*
X6892309Y-15524476D01*
X6806595Y-15724476D01*
X6958976Y-15524476D02*
X6958976Y-15562571D01*
X7035167Y-15524476D02*
X7035167Y-15562571D01*
X7330405Y-15800667D02*
X7320881Y-15791143D01*
X7301833Y-15762571D01*
X7292309Y-15743524D01*
X7282786Y-15714952D01*
X7273262Y-15667333D01*
X7273262Y-15629238D01*
X7282786Y-15581619D01*
X7292309Y-15553048D01*
X7301833Y-15534000D01*
X7320881Y-15505428D01*
X7330405Y-15495905D01*
X7492309Y-15591143D02*
X7492309Y-15724476D01*
X7444690Y-15514952D02*
X7397071Y-15657809D01*
X7520881Y-15657809D01*
X7682786Y-15524476D02*
X7644690Y-15524476D01*
X7625643Y-15534000D01*
X7616119Y-15543524D01*
X7597071Y-15572095D01*
X7587548Y-15610190D01*
X7587548Y-15686381D01*
X7597071Y-15705428D01*
X7606595Y-15714952D01*
X7625643Y-15724476D01*
X7663738Y-15724476D01*
X7682786Y-15714952D01*
X7692309Y-15705428D01*
X7701833Y-15686381D01*
X7701833Y-15638762D01*
X7692309Y-15619714D01*
X7682786Y-15610190D01*
X7663738Y-15600667D01*
X7625643Y-15600667D01*
X7606595Y-15610190D01*
X7597071Y-15619714D01*
X7587548Y-15638762D01*
X7939928Y-15724476D02*
X7939928Y-15524476D01*
X8025643Y-15724476D02*
X8025643Y-15619714D01*
X8016119Y-15600667D01*
X7997071Y-15591143D01*
X7968500Y-15591143D01*
X7949452Y-15600667D01*
X7939928Y-15610190D01*
X8149452Y-15724476D02*
X8130405Y-15714952D01*
X8120881Y-15705428D01*
X8111357Y-15686381D01*
X8111357Y-15629238D01*
X8120881Y-15610190D01*
X8130405Y-15600667D01*
X8149452Y-15591143D01*
X8178024Y-15591143D01*
X8197071Y-15600667D01*
X8206595Y-15610190D01*
X8216119Y-15629238D01*
X8216119Y-15686381D01*
X8206595Y-15705428D01*
X8197071Y-15714952D01*
X8178024Y-15724476D01*
X8149452Y-15724476D01*
X8330405Y-15724476D02*
X8311357Y-15714952D01*
X8301833Y-15695905D01*
X8301833Y-15524476D01*
X8482786Y-15714952D02*
X8463738Y-15724476D01*
X8425643Y-15724476D01*
X8406595Y-15714952D01*
X8397071Y-15695905D01*
X8397071Y-15619714D01*
X8406595Y-15600667D01*
X8425643Y-15591143D01*
X8463738Y-15591143D01*
X8482786Y-15600667D01*
X8492310Y-15619714D01*
X8492310Y-15638762D01*
X8397071Y-15657809D01*
X8568500Y-15714952D02*
X8587548Y-15724476D01*
X8625643Y-15724476D01*
X8644690Y-15714952D01*
X8654214Y-15695905D01*
X8654214Y-15686381D01*
X8644690Y-15667333D01*
X8625643Y-15657809D01*
X8597071Y-15657809D01*
X8578024Y-15648286D01*
X8568500Y-15629238D01*
X8568500Y-15619714D01*
X8578024Y-15600667D01*
X8597071Y-15591143D01*
X8625643Y-15591143D01*
X8644690Y-15600667D01*
X8720881Y-15800667D02*
X8730405Y-15791143D01*
X8749452Y-15762571D01*
X8758976Y-15743524D01*
X8768500Y-15714952D01*
X8778024Y-15667333D01*
X8778024Y-15629238D01*
X8768500Y-15581619D01*
X8758976Y-15553048D01*
X8749452Y-15534000D01*
X8730405Y-15505428D01*
X8720881Y-15495905D01*
D13*
X3758500Y-15898000D02*
G75*
G03*
X3758500Y-15898000I-38100J0D01*
G01*
D11*
X4054214Y-15788476D02*
X4073262Y-15788476D01*
X4092309Y-15798000D01*
X4101833Y-15807524D01*
X4111357Y-15826571D01*
X4120881Y-15864667D01*
X4120881Y-15912286D01*
X4111357Y-15950381D01*
X4101833Y-15969428D01*
X4092309Y-15978952D01*
X4073262Y-15988476D01*
X4054214Y-15988476D01*
X4035167Y-15978952D01*
X4025643Y-15969428D01*
X4016119Y-15950381D01*
X4006595Y-15912286D01*
X4006595Y-15864667D01*
X4016119Y-15826571D01*
X4025643Y-15807524D01*
X4035167Y-15798000D01*
X4054214Y-15788476D01*
X4206595Y-15969428D02*
X4216119Y-15978952D01*
X4206595Y-15988476D01*
X4197071Y-15978952D01*
X4206595Y-15969428D01*
X4206595Y-15988476D01*
X4282786Y-15788476D02*
X4416119Y-15788476D01*
X4330405Y-15988476D01*
X4578024Y-15788476D02*
X4539929Y-15788476D01*
X4520881Y-15798000D01*
X4511357Y-15807524D01*
X4492310Y-15836095D01*
X4482786Y-15874190D01*
X4482786Y-15950381D01*
X4492310Y-15969428D01*
X4501833Y-15978952D01*
X4520881Y-15988476D01*
X4558976Y-15988476D01*
X4578024Y-15978952D01*
X4587548Y-15969428D01*
X4597071Y-15950381D01*
X4597071Y-15902762D01*
X4587548Y-15883714D01*
X4578024Y-15874190D01*
X4558976Y-15864667D01*
X4520881Y-15864667D01*
X4501833Y-15874190D01*
X4492310Y-15883714D01*
X4482786Y-15902762D01*
X4673262Y-15807524D02*
X4682786Y-15798000D01*
X4701833Y-15788476D01*
X4749452Y-15788476D01*
X4768500Y-15798000D01*
X4778024Y-15807524D01*
X4787548Y-15826571D01*
X4787548Y-15845619D01*
X4778024Y-15874190D01*
X4663738Y-15988476D01*
X4787548Y-15988476D01*
X4873262Y-15988476D02*
X4873262Y-15855143D01*
X4873262Y-15874190D02*
X4882786Y-15864667D01*
X4901833Y-15855143D01*
X4930405Y-15855143D01*
X4949452Y-15864667D01*
X4958976Y-15883714D01*
X4958976Y-15988476D01*
X4958976Y-15883714D02*
X4968500Y-15864667D01*
X4987548Y-15855143D01*
X5016119Y-15855143D01*
X5035167Y-15864667D01*
X5044690Y-15883714D01*
X5044690Y-15988476D01*
X5139929Y-15988476D02*
X5139929Y-15855143D01*
X5139929Y-15874190D02*
X5149452Y-15864667D01*
X5168500Y-15855143D01*
X5197071Y-15855143D01*
X5216119Y-15864667D01*
X5225643Y-15883714D01*
X5225643Y-15988476D01*
X5225643Y-15883714D02*
X5235167Y-15864667D01*
X5254214Y-15855143D01*
X5282786Y-15855143D01*
X5301833Y-15864667D01*
X5311357Y-15883714D01*
X5311357Y-15988476D01*
X5701833Y-15778952D02*
X5530405Y-16036095D01*
X5958976Y-15788476D02*
X5978024Y-15788476D01*
X5997071Y-15798000D01*
X6006595Y-15807524D01*
X6016119Y-15826571D01*
X6025643Y-15864667D01*
X6025643Y-15912286D01*
X6016119Y-15950381D01*
X6006595Y-15969428D01*
X5997071Y-15978952D01*
X5978024Y-15988476D01*
X5958976Y-15988476D01*
X5939928Y-15978952D01*
X5930405Y-15969428D01*
X5920881Y-15950381D01*
X5911357Y-15912286D01*
X5911357Y-15864667D01*
X5920881Y-15826571D01*
X5930405Y-15807524D01*
X5939928Y-15798000D01*
X5958976Y-15788476D01*
X6111357Y-15969428D02*
X6120881Y-15978952D01*
X6111357Y-15988476D01*
X6101833Y-15978952D01*
X6111357Y-15969428D01*
X6111357Y-15988476D01*
X6244690Y-15788476D02*
X6263738Y-15788476D01*
X6282786Y-15798000D01*
X6292309Y-15807524D01*
X6301833Y-15826571D01*
X6311357Y-15864667D01*
X6311357Y-15912286D01*
X6301833Y-15950381D01*
X6292309Y-15969428D01*
X6282786Y-15978952D01*
X6263738Y-15988476D01*
X6244690Y-15988476D01*
X6225643Y-15978952D01*
X6216119Y-15969428D01*
X6206595Y-15950381D01*
X6197071Y-15912286D01*
X6197071Y-15864667D01*
X6206595Y-15826571D01*
X6216119Y-15807524D01*
X6225643Y-15798000D01*
X6244690Y-15788476D01*
X6378024Y-15788476D02*
X6501833Y-15788476D01*
X6435167Y-15864667D01*
X6463738Y-15864667D01*
X6482786Y-15874190D01*
X6492309Y-15883714D01*
X6501833Y-15902762D01*
X6501833Y-15950381D01*
X6492309Y-15969428D01*
X6482786Y-15978952D01*
X6463738Y-15988476D01*
X6406595Y-15988476D01*
X6387548Y-15978952D01*
X6378024Y-15969428D01*
X6625643Y-15788476D02*
X6644690Y-15788476D01*
X6663738Y-15798000D01*
X6673262Y-15807524D01*
X6682786Y-15826571D01*
X6692309Y-15864667D01*
X6692309Y-15912286D01*
X6682786Y-15950381D01*
X6673262Y-15969428D01*
X6663738Y-15978952D01*
X6644690Y-15988476D01*
X6625643Y-15988476D01*
X6606595Y-15978952D01*
X6597071Y-15969428D01*
X6587548Y-15950381D01*
X6578024Y-15912286D01*
X6578024Y-15864667D01*
X6587548Y-15826571D01*
X6597071Y-15807524D01*
X6606595Y-15798000D01*
X6625643Y-15788476D01*
X6816119Y-15788476D02*
X6835167Y-15788476D01*
X6854214Y-15798000D01*
X6863738Y-15807524D01*
X6873262Y-15826571D01*
X6882786Y-15864667D01*
X6882786Y-15912286D01*
X6873262Y-15950381D01*
X6863738Y-15969428D01*
X6854214Y-15978952D01*
X6835167Y-15988476D01*
X6816119Y-15988476D01*
X6797071Y-15978952D01*
X6787548Y-15969428D01*
X6778024Y-15950381D01*
X6768500Y-15912286D01*
X6768500Y-15864667D01*
X6778024Y-15826571D01*
X6787548Y-15807524D01*
X6797071Y-15798000D01*
X6816119Y-15788476D01*
X6958976Y-15788476D02*
X6958976Y-15826571D01*
X7035167Y-15788476D02*
X7035167Y-15826571D01*
X7330405Y-16064667D02*
X7320881Y-16055143D01*
X7301833Y-16026571D01*
X7292309Y-16007524D01*
X7282786Y-15978952D01*
X7273262Y-15931333D01*
X7273262Y-15893238D01*
X7282786Y-15845619D01*
X7292309Y-15817048D01*
X7301833Y-15798000D01*
X7320881Y-15769428D01*
X7330405Y-15759905D01*
X7511357Y-15988476D02*
X7397071Y-15988476D01*
X7454214Y-15988476D02*
X7454214Y-15788476D01*
X7435167Y-15817048D01*
X7416119Y-15836095D01*
X7397071Y-15845619D01*
X7635167Y-15788476D02*
X7654214Y-15788476D01*
X7673262Y-15798000D01*
X7682786Y-15807524D01*
X7692309Y-15826571D01*
X7701833Y-15864667D01*
X7701833Y-15912286D01*
X7692309Y-15950381D01*
X7682786Y-15969428D01*
X7673262Y-15978952D01*
X7654214Y-15988476D01*
X7635167Y-15988476D01*
X7616119Y-15978952D01*
X7606595Y-15969428D01*
X7597071Y-15950381D01*
X7587548Y-15912286D01*
X7587548Y-15864667D01*
X7597071Y-15826571D01*
X7606595Y-15807524D01*
X7616119Y-15798000D01*
X7635167Y-15788476D01*
X7939928Y-15988476D02*
X7939928Y-15788476D01*
X8025643Y-15988476D02*
X8025643Y-15883714D01*
X8016119Y-15864667D01*
X7997071Y-15855143D01*
X7968500Y-15855143D01*
X7949452Y-15864667D01*
X7939928Y-15874190D01*
X8149452Y-15988476D02*
X8130405Y-15978952D01*
X8120881Y-15969428D01*
X8111357Y-15950381D01*
X8111357Y-15893238D01*
X8120881Y-15874190D01*
X8130405Y-15864667D01*
X8149452Y-15855143D01*
X8178024Y-15855143D01*
X8197071Y-15864667D01*
X8206595Y-15874190D01*
X8216119Y-15893238D01*
X8216119Y-15950381D01*
X8206595Y-15969428D01*
X8197071Y-15978952D01*
X8178024Y-15988476D01*
X8149452Y-15988476D01*
X8330405Y-15988476D02*
X8311357Y-15978952D01*
X8301833Y-15959905D01*
X8301833Y-15788476D01*
X8482786Y-15978952D02*
X8463738Y-15988476D01*
X8425643Y-15988476D01*
X8406595Y-15978952D01*
X8397071Y-15959905D01*
X8397071Y-15883714D01*
X8406595Y-15864667D01*
X8425643Y-15855143D01*
X8463738Y-15855143D01*
X8482786Y-15864667D01*
X8492310Y-15883714D01*
X8492310Y-15902762D01*
X8397071Y-15921809D01*
X8568500Y-15978952D02*
X8587548Y-15988476D01*
X8625643Y-15988476D01*
X8644690Y-15978952D01*
X8654214Y-15959905D01*
X8654214Y-15950381D01*
X8644690Y-15931333D01*
X8625643Y-15921809D01*
X8597071Y-15921809D01*
X8578024Y-15912286D01*
X8568500Y-15893238D01*
X8568500Y-15883714D01*
X8578024Y-15864667D01*
X8597071Y-15855143D01*
X8625643Y-15855143D01*
X8644690Y-15864667D01*
X8720881Y-16064667D02*
X8730405Y-16055143D01*
X8749452Y-16026571D01*
X8758976Y-16007524D01*
X8768500Y-15978952D01*
X8778024Y-15931333D01*
X8778024Y-15893238D01*
X8768500Y-15845619D01*
X8758976Y-15817048D01*
X8749452Y-15798000D01*
X8730405Y-15769428D01*
X8720881Y-15759905D01*
D10*
X3708500Y-16112000D02*
X3708500Y-16212000D01*
X3658500Y-16162000D02*
X3758500Y-16162000D01*
D11*
X4120881Y-16252476D02*
X4006595Y-16252476D01*
X4063738Y-16252476D02*
X4063738Y-16052476D01*
X4044690Y-16081048D01*
X4025643Y-16100095D01*
X4006595Y-16109619D01*
X4206595Y-16233428D02*
X4216119Y-16242952D01*
X4206595Y-16252476D01*
X4197071Y-16242952D01*
X4206595Y-16233428D01*
X4206595Y-16252476D01*
X4339929Y-16052476D02*
X4358976Y-16052476D01*
X4378024Y-16062000D01*
X4387548Y-16071524D01*
X4397071Y-16090571D01*
X4406595Y-16128667D01*
X4406595Y-16176286D01*
X4397071Y-16214381D01*
X4387548Y-16233428D01*
X4378024Y-16242952D01*
X4358976Y-16252476D01*
X4339929Y-16252476D01*
X4320881Y-16242952D01*
X4311357Y-16233428D01*
X4301833Y-16214381D01*
X4292310Y-16176286D01*
X4292310Y-16128667D01*
X4301833Y-16090571D01*
X4311357Y-16071524D01*
X4320881Y-16062000D01*
X4339929Y-16052476D01*
X4530405Y-16052476D02*
X4549452Y-16052476D01*
X4568500Y-16062000D01*
X4578024Y-16071524D01*
X4587548Y-16090571D01*
X4597071Y-16128667D01*
X4597071Y-16176286D01*
X4587548Y-16214381D01*
X4578024Y-16233428D01*
X4568500Y-16242952D01*
X4549452Y-16252476D01*
X4530405Y-16252476D01*
X4511357Y-16242952D01*
X4501833Y-16233428D01*
X4492310Y-16214381D01*
X4482786Y-16176286D01*
X4482786Y-16128667D01*
X4492310Y-16090571D01*
X4501833Y-16071524D01*
X4511357Y-16062000D01*
X4530405Y-16052476D01*
X4720881Y-16052476D02*
X4739929Y-16052476D01*
X4758976Y-16062000D01*
X4768500Y-16071524D01*
X4778024Y-16090571D01*
X4787548Y-16128667D01*
X4787548Y-16176286D01*
X4778024Y-16214381D01*
X4768500Y-16233428D01*
X4758976Y-16242952D01*
X4739929Y-16252476D01*
X4720881Y-16252476D01*
X4701833Y-16242952D01*
X4692310Y-16233428D01*
X4682786Y-16214381D01*
X4673262Y-16176286D01*
X4673262Y-16128667D01*
X4682786Y-16090571D01*
X4692310Y-16071524D01*
X4701833Y-16062000D01*
X4720881Y-16052476D01*
X4873262Y-16252476D02*
X4873262Y-16119143D01*
X4873262Y-16138190D02*
X4882786Y-16128667D01*
X4901833Y-16119143D01*
X4930405Y-16119143D01*
X4949452Y-16128667D01*
X4958976Y-16147714D01*
X4958976Y-16252476D01*
X4958976Y-16147714D02*
X4968500Y-16128667D01*
X4987548Y-16119143D01*
X5016119Y-16119143D01*
X5035167Y-16128667D01*
X5044690Y-16147714D01*
X5044690Y-16252476D01*
X5139929Y-16252476D02*
X5139929Y-16119143D01*
X5139929Y-16138190D02*
X5149452Y-16128667D01*
X5168500Y-16119143D01*
X5197071Y-16119143D01*
X5216119Y-16128667D01*
X5225643Y-16147714D01*
X5225643Y-16252476D01*
X5225643Y-16147714D02*
X5235167Y-16128667D01*
X5254214Y-16119143D01*
X5282786Y-16119143D01*
X5301833Y-16128667D01*
X5311357Y-16147714D01*
X5311357Y-16252476D01*
X5701833Y-16042952D02*
X5530405Y-16300095D01*
X5958976Y-16052476D02*
X5978024Y-16052476D01*
X5997071Y-16062000D01*
X6006595Y-16071524D01*
X6016119Y-16090571D01*
X6025643Y-16128667D01*
X6025643Y-16176286D01*
X6016119Y-16214381D01*
X6006595Y-16233428D01*
X5997071Y-16242952D01*
X5978024Y-16252476D01*
X5958976Y-16252476D01*
X5939928Y-16242952D01*
X5930405Y-16233428D01*
X5920881Y-16214381D01*
X5911357Y-16176286D01*
X5911357Y-16128667D01*
X5920881Y-16090571D01*
X5930405Y-16071524D01*
X5939928Y-16062000D01*
X5958976Y-16052476D01*
X6111357Y-16233428D02*
X6120881Y-16242952D01*
X6111357Y-16252476D01*
X6101833Y-16242952D01*
X6111357Y-16233428D01*
X6111357Y-16252476D01*
X6244690Y-16052476D02*
X6263738Y-16052476D01*
X6282786Y-16062000D01*
X6292309Y-16071524D01*
X6301833Y-16090571D01*
X6311357Y-16128667D01*
X6311357Y-16176286D01*
X6301833Y-16214381D01*
X6292309Y-16233428D01*
X6282786Y-16242952D01*
X6263738Y-16252476D01*
X6244690Y-16252476D01*
X6225643Y-16242952D01*
X6216119Y-16233428D01*
X6206595Y-16214381D01*
X6197071Y-16176286D01*
X6197071Y-16128667D01*
X6206595Y-16090571D01*
X6216119Y-16071524D01*
X6225643Y-16062000D01*
X6244690Y-16052476D01*
X6378024Y-16052476D02*
X6501833Y-16052476D01*
X6435167Y-16128667D01*
X6463738Y-16128667D01*
X6482786Y-16138190D01*
X6492309Y-16147714D01*
X6501833Y-16166762D01*
X6501833Y-16214381D01*
X6492309Y-16233428D01*
X6482786Y-16242952D01*
X6463738Y-16252476D01*
X6406595Y-16252476D01*
X6387548Y-16242952D01*
X6378024Y-16233428D01*
X6597071Y-16252476D02*
X6635167Y-16252476D01*
X6654214Y-16242952D01*
X6663738Y-16233428D01*
X6682786Y-16204857D01*
X6692309Y-16166762D01*
X6692309Y-16090571D01*
X6682786Y-16071524D01*
X6673262Y-16062000D01*
X6654214Y-16052476D01*
X6616119Y-16052476D01*
X6597071Y-16062000D01*
X6587548Y-16071524D01*
X6578024Y-16090571D01*
X6578024Y-16138190D01*
X6587548Y-16157238D01*
X6597071Y-16166762D01*
X6616119Y-16176286D01*
X6654214Y-16176286D01*
X6673262Y-16166762D01*
X6682786Y-16157238D01*
X6692309Y-16138190D01*
X6863738Y-16119143D02*
X6863738Y-16252476D01*
X6816119Y-16042952D02*
X6768500Y-16185809D01*
X6892309Y-16185809D01*
X6958976Y-16052476D02*
X6958976Y-16090571D01*
X7035167Y-16052476D02*
X7035167Y-16090571D01*
X7330405Y-16328667D02*
X7320881Y-16319143D01*
X7301833Y-16290571D01*
X7292309Y-16271524D01*
X7282786Y-16242952D01*
X7273262Y-16195333D01*
X7273262Y-16157238D01*
X7282786Y-16109619D01*
X7292309Y-16081048D01*
X7301833Y-16062000D01*
X7320881Y-16033428D01*
X7330405Y-16023905D01*
X7397071Y-16071524D02*
X7406595Y-16062000D01*
X7425643Y-16052476D01*
X7473262Y-16052476D01*
X7492309Y-16062000D01*
X7501833Y-16071524D01*
X7511357Y-16090571D01*
X7511357Y-16109619D01*
X7501833Y-16138190D01*
X7387548Y-16252476D01*
X7511357Y-16252476D01*
X7682786Y-16052476D02*
X7644690Y-16052476D01*
X7625643Y-16062000D01*
X7616119Y-16071524D01*
X7597071Y-16100095D01*
X7587548Y-16138190D01*
X7587548Y-16214381D01*
X7597071Y-16233428D01*
X7606595Y-16242952D01*
X7625643Y-16252476D01*
X7663738Y-16252476D01*
X7682786Y-16242952D01*
X7692309Y-16233428D01*
X7701833Y-16214381D01*
X7701833Y-16166762D01*
X7692309Y-16147714D01*
X7682786Y-16138190D01*
X7663738Y-16128667D01*
X7625643Y-16128667D01*
X7606595Y-16138190D01*
X7597071Y-16147714D01*
X7587548Y-16166762D01*
X7939928Y-16252476D02*
X7939928Y-16052476D01*
X8025643Y-16252476D02*
X8025643Y-16147714D01*
X8016119Y-16128667D01*
X7997071Y-16119143D01*
X7968500Y-16119143D01*
X7949452Y-16128667D01*
X7939928Y-16138190D01*
X8149452Y-16252476D02*
X8130405Y-16242952D01*
X8120881Y-16233428D01*
X8111357Y-16214381D01*
X8111357Y-16157238D01*
X8120881Y-16138190D01*
X8130405Y-16128667D01*
X8149452Y-16119143D01*
X8178024Y-16119143D01*
X8197071Y-16128667D01*
X8206595Y-16138190D01*
X8216119Y-16157238D01*
X8216119Y-16214381D01*
X8206595Y-16233428D01*
X8197071Y-16242952D01*
X8178024Y-16252476D01*
X8149452Y-16252476D01*
X8330405Y-16252476D02*
X8311357Y-16242952D01*
X8301833Y-16223905D01*
X8301833Y-16052476D01*
X8482786Y-16242952D02*
X8463738Y-16252476D01*
X8425643Y-16252476D01*
X8406595Y-16242952D01*
X8397071Y-16223905D01*
X8397071Y-16147714D01*
X8406595Y-16128667D01*
X8425643Y-16119143D01*
X8463738Y-16119143D01*
X8482786Y-16128667D01*
X8492310Y-16147714D01*
X8492310Y-16166762D01*
X8397071Y-16185809D01*
X8568500Y-16242952D02*
X8587548Y-16252476D01*
X8625643Y-16252476D01*
X8644690Y-16242952D01*
X8654214Y-16223905D01*
X8654214Y-16214381D01*
X8644690Y-16195333D01*
X8625643Y-16185809D01*
X8597071Y-16185809D01*
X8578024Y-16176286D01*
X8568500Y-16157238D01*
X8568500Y-16147714D01*
X8578024Y-16128667D01*
X8597071Y-16119143D01*
X8625643Y-16119143D01*
X8644690Y-16128667D01*
X8720881Y-16328667D02*
X8730405Y-16319143D01*
X8749452Y-16290571D01*
X8758976Y-16271524D01*
X8768500Y-16242952D01*
X8778024Y-16195333D01*
X8778024Y-16157238D01*
X8768500Y-16109619D01*
X8758976Y-16081048D01*
X8749452Y-16062000D01*
X8730405Y-16033428D01*
X8720881Y-16023905D01*
D14*
X3743844Y-16461382D02*
X3743844Y-16390617D01*
X3673079Y-16390617D01*
X3673079Y-16461382D01*
X3743844Y-16461382D01*
D11*
X4120881Y-16516476D02*
X4006595Y-16516476D01*
X4063738Y-16516476D02*
X4063738Y-16316476D01*
X4044690Y-16345048D01*
X4025643Y-16364095D01*
X4006595Y-16373619D01*
X4206595Y-16497428D02*
X4216119Y-16506952D01*
X4206595Y-16516476D01*
X4197071Y-16506952D01*
X4206595Y-16497428D01*
X4206595Y-16516476D01*
X4339929Y-16316476D02*
X4358976Y-16316476D01*
X4378024Y-16326000D01*
X4387548Y-16335524D01*
X4397071Y-16354571D01*
X4406595Y-16392667D01*
X4406595Y-16440286D01*
X4397071Y-16478381D01*
X4387548Y-16497428D01*
X4378024Y-16506952D01*
X4358976Y-16516476D01*
X4339929Y-16516476D01*
X4320881Y-16506952D01*
X4311357Y-16497428D01*
X4301833Y-16478381D01*
X4292310Y-16440286D01*
X4292310Y-16392667D01*
X4301833Y-16354571D01*
X4311357Y-16335524D01*
X4320881Y-16326000D01*
X4339929Y-16316476D01*
X4530405Y-16316476D02*
X4549452Y-16316476D01*
X4568500Y-16326000D01*
X4578024Y-16335524D01*
X4587548Y-16354571D01*
X4597071Y-16392667D01*
X4597071Y-16440286D01*
X4587548Y-16478381D01*
X4578024Y-16497428D01*
X4568500Y-16506952D01*
X4549452Y-16516476D01*
X4530405Y-16516476D01*
X4511357Y-16506952D01*
X4501833Y-16497428D01*
X4492310Y-16478381D01*
X4482786Y-16440286D01*
X4482786Y-16392667D01*
X4492310Y-16354571D01*
X4501833Y-16335524D01*
X4511357Y-16326000D01*
X4530405Y-16316476D01*
X4787548Y-16516476D02*
X4673262Y-16516476D01*
X4730405Y-16516476D02*
X4730405Y-16316476D01*
X4711357Y-16345048D01*
X4692310Y-16364095D01*
X4673262Y-16373619D01*
X4873262Y-16516476D02*
X4873262Y-16383143D01*
X4873262Y-16402190D02*
X4882786Y-16392667D01*
X4901833Y-16383143D01*
X4930405Y-16383143D01*
X4949452Y-16392667D01*
X4958976Y-16411714D01*
X4958976Y-16516476D01*
X4958976Y-16411714D02*
X4968500Y-16392667D01*
X4987548Y-16383143D01*
X5016119Y-16383143D01*
X5035167Y-16392667D01*
X5044690Y-16411714D01*
X5044690Y-16516476D01*
X5139929Y-16516476D02*
X5139929Y-16383143D01*
X5139929Y-16402190D02*
X5149452Y-16392667D01*
X5168500Y-16383143D01*
X5197071Y-16383143D01*
X5216119Y-16392667D01*
X5225643Y-16411714D01*
X5225643Y-16516476D01*
X5225643Y-16411714D02*
X5235167Y-16392667D01*
X5254214Y-16383143D01*
X5282786Y-16383143D01*
X5301833Y-16392667D01*
X5311357Y-16411714D01*
X5311357Y-16516476D01*
X5701833Y-16306952D02*
X5530405Y-16564095D01*
X5958976Y-16316476D02*
X5978024Y-16316476D01*
X5997071Y-16326000D01*
X6006595Y-16335524D01*
X6016119Y-16354571D01*
X6025643Y-16392667D01*
X6025643Y-16440286D01*
X6016119Y-16478381D01*
X6006595Y-16497428D01*
X5997071Y-16506952D01*
X5978024Y-16516476D01*
X5958976Y-16516476D01*
X5939928Y-16506952D01*
X5930405Y-16497428D01*
X5920881Y-16478381D01*
X5911357Y-16440286D01*
X5911357Y-16392667D01*
X5920881Y-16354571D01*
X5930405Y-16335524D01*
X5939928Y-16326000D01*
X5958976Y-16316476D01*
X6111357Y-16497428D02*
X6120881Y-16506952D01*
X6111357Y-16516476D01*
X6101833Y-16506952D01*
X6111357Y-16497428D01*
X6111357Y-16516476D01*
X6244690Y-16316476D02*
X6263738Y-16316476D01*
X6282786Y-16326000D01*
X6292309Y-16335524D01*
X6301833Y-16354571D01*
X6311357Y-16392667D01*
X6311357Y-16440286D01*
X6301833Y-16478381D01*
X6292309Y-16497428D01*
X6282786Y-16506952D01*
X6263738Y-16516476D01*
X6244690Y-16516476D01*
X6225643Y-16506952D01*
X6216119Y-16497428D01*
X6206595Y-16478381D01*
X6197071Y-16440286D01*
X6197071Y-16392667D01*
X6206595Y-16354571D01*
X6216119Y-16335524D01*
X6225643Y-16326000D01*
X6244690Y-16316476D01*
X6378024Y-16316476D02*
X6501833Y-16316476D01*
X6435167Y-16392667D01*
X6463738Y-16392667D01*
X6482786Y-16402190D01*
X6492309Y-16411714D01*
X6501833Y-16430762D01*
X6501833Y-16478381D01*
X6492309Y-16497428D01*
X6482786Y-16506952D01*
X6463738Y-16516476D01*
X6406595Y-16516476D01*
X6387548Y-16506952D01*
X6378024Y-16497428D01*
X6597071Y-16516476D02*
X6635167Y-16516476D01*
X6654214Y-16506952D01*
X6663738Y-16497428D01*
X6682786Y-16468857D01*
X6692309Y-16430762D01*
X6692309Y-16354571D01*
X6682786Y-16335524D01*
X6673262Y-16326000D01*
X6654214Y-16316476D01*
X6616119Y-16316476D01*
X6597071Y-16326000D01*
X6587548Y-16335524D01*
X6578024Y-16354571D01*
X6578024Y-16402190D01*
X6587548Y-16421238D01*
X6597071Y-16430762D01*
X6616119Y-16440286D01*
X6654214Y-16440286D01*
X6673262Y-16430762D01*
X6682786Y-16421238D01*
X6692309Y-16402190D01*
X6863738Y-16383143D02*
X6863738Y-16516476D01*
X6816119Y-16306952D02*
X6768500Y-16449809D01*
X6892309Y-16449809D01*
X6958976Y-16316476D02*
X6958976Y-16354571D01*
X7035167Y-16316476D02*
X7035167Y-16354571D01*
X7330405Y-16592667D02*
X7320881Y-16583143D01*
X7301833Y-16554571D01*
X7292309Y-16535524D01*
X7282786Y-16506952D01*
X7273262Y-16459333D01*
X7273262Y-16421238D01*
X7282786Y-16373619D01*
X7292309Y-16345048D01*
X7301833Y-16326000D01*
X7320881Y-16297428D01*
X7330405Y-16287905D01*
X7435167Y-16402190D02*
X7416119Y-16392667D01*
X7406595Y-16383143D01*
X7397071Y-16364095D01*
X7397071Y-16354571D01*
X7406595Y-16335524D01*
X7416119Y-16326000D01*
X7435167Y-16316476D01*
X7473262Y-16316476D01*
X7492309Y-16326000D01*
X7501833Y-16335524D01*
X7511357Y-16354571D01*
X7511357Y-16364095D01*
X7501833Y-16383143D01*
X7492309Y-16392667D01*
X7473262Y-16402190D01*
X7435167Y-16402190D01*
X7416119Y-16411714D01*
X7406595Y-16421238D01*
X7397071Y-16440286D01*
X7397071Y-16478381D01*
X7406595Y-16497428D01*
X7416119Y-16506952D01*
X7435167Y-16516476D01*
X7473262Y-16516476D01*
X7492309Y-16506952D01*
X7501833Y-16497428D01*
X7511357Y-16478381D01*
X7511357Y-16440286D01*
X7501833Y-16421238D01*
X7492309Y-16411714D01*
X7473262Y-16402190D01*
X7682786Y-16316476D02*
X7644690Y-16316476D01*
X7625643Y-16326000D01*
X7616119Y-16335524D01*
X7597071Y-16364095D01*
X7587548Y-16402190D01*
X7587548Y-16478381D01*
X7597071Y-16497428D01*
X7606595Y-16506952D01*
X7625643Y-16516476D01*
X7663738Y-16516476D01*
X7682786Y-16506952D01*
X7692309Y-16497428D01*
X7701833Y-16478381D01*
X7701833Y-16430762D01*
X7692309Y-16411714D01*
X7682786Y-16402190D01*
X7663738Y-16392667D01*
X7625643Y-16392667D01*
X7606595Y-16402190D01*
X7597071Y-16411714D01*
X7587548Y-16430762D01*
X7939928Y-16516476D02*
X7939928Y-16316476D01*
X8025643Y-16516476D02*
X8025643Y-16411714D01*
X8016119Y-16392667D01*
X7997071Y-16383143D01*
X7968500Y-16383143D01*
X7949452Y-16392667D01*
X7939928Y-16402190D01*
X8149452Y-16516476D02*
X8130405Y-16506952D01*
X8120881Y-16497428D01*
X8111357Y-16478381D01*
X8111357Y-16421238D01*
X8120881Y-16402190D01*
X8130405Y-16392667D01*
X8149452Y-16383143D01*
X8178024Y-16383143D01*
X8197071Y-16392667D01*
X8206595Y-16402190D01*
X8216119Y-16421238D01*
X8216119Y-16478381D01*
X8206595Y-16497428D01*
X8197071Y-16506952D01*
X8178024Y-16516476D01*
X8149452Y-16516476D01*
X8330405Y-16516476D02*
X8311357Y-16506952D01*
X8301833Y-16487905D01*
X8301833Y-16316476D01*
X8482786Y-16506952D02*
X8463738Y-16516476D01*
X8425643Y-16516476D01*
X8406595Y-16506952D01*
X8397071Y-16487905D01*
X8397071Y-16411714D01*
X8406595Y-16392667D01*
X8425643Y-16383143D01*
X8463738Y-16383143D01*
X8482786Y-16392667D01*
X8492310Y-16411714D01*
X8492310Y-16430762D01*
X8397071Y-16449809D01*
X8568500Y-16506952D02*
X8587548Y-16516476D01*
X8625643Y-16516476D01*
X8644690Y-16506952D01*
X8654214Y-16487905D01*
X8654214Y-16478381D01*
X8644690Y-16459333D01*
X8625643Y-16449809D01*
X8597071Y-16449809D01*
X8578024Y-16440286D01*
X8568500Y-16421238D01*
X8568500Y-16411714D01*
X8578024Y-16392667D01*
X8597071Y-16383143D01*
X8625643Y-16383143D01*
X8644690Y-16392667D01*
X8720881Y-16592667D02*
X8730405Y-16583143D01*
X8749452Y-16554571D01*
X8758976Y-16535524D01*
X8768500Y-16506952D01*
X8778024Y-16459333D01*
X8778024Y-16421238D01*
X8768500Y-16373619D01*
X8758976Y-16345048D01*
X8749452Y-16326000D01*
X8730405Y-16297428D01*
X8720881Y-16287905D01*
D15*
X3703500Y-16745000D02*
X3758500Y-16690000D01*
X3703500Y-16635000D01*
X3648500Y-16690000D01*
X3703500Y-16745000D01*
D11*
X4120881Y-16780476D02*
X4006595Y-16780476D01*
X4063738Y-16780476D02*
X4063738Y-16580476D01*
X4044690Y-16609048D01*
X4025643Y-16628095D01*
X4006595Y-16637619D01*
X4206595Y-16761428D02*
X4216119Y-16770952D01*
X4206595Y-16780476D01*
X4197071Y-16770952D01*
X4206595Y-16761428D01*
X4206595Y-16780476D01*
X4406595Y-16780476D02*
X4292310Y-16780476D01*
X4349452Y-16780476D02*
X4349452Y-16580476D01*
X4330405Y-16609048D01*
X4311357Y-16628095D01*
X4292310Y-16637619D01*
X4530405Y-16580476D02*
X4549452Y-16580476D01*
X4568500Y-16590000D01*
X4578024Y-16599524D01*
X4587548Y-16618571D01*
X4597071Y-16656667D01*
X4597071Y-16704286D01*
X4587548Y-16742381D01*
X4578024Y-16761428D01*
X4568500Y-16770952D01*
X4549452Y-16780476D01*
X4530405Y-16780476D01*
X4511357Y-16770952D01*
X4501833Y-16761428D01*
X4492310Y-16742381D01*
X4482786Y-16704286D01*
X4482786Y-16656667D01*
X4492310Y-16618571D01*
X4501833Y-16599524D01*
X4511357Y-16590000D01*
X4530405Y-16580476D01*
X4720881Y-16580476D02*
X4739929Y-16580476D01*
X4758976Y-16590000D01*
X4768500Y-16599524D01*
X4778024Y-16618571D01*
X4787548Y-16656667D01*
X4787548Y-16704286D01*
X4778024Y-16742381D01*
X4768500Y-16761428D01*
X4758976Y-16770952D01*
X4739929Y-16780476D01*
X4720881Y-16780476D01*
X4701833Y-16770952D01*
X4692310Y-16761428D01*
X4682786Y-16742381D01*
X4673262Y-16704286D01*
X4673262Y-16656667D01*
X4682786Y-16618571D01*
X4692310Y-16599524D01*
X4701833Y-16590000D01*
X4720881Y-16580476D01*
X4873262Y-16780476D02*
X4873262Y-16647143D01*
X4873262Y-16666190D02*
X4882786Y-16656667D01*
X4901833Y-16647143D01*
X4930405Y-16647143D01*
X4949452Y-16656667D01*
X4958976Y-16675714D01*
X4958976Y-16780476D01*
X4958976Y-16675714D02*
X4968500Y-16656667D01*
X4987548Y-16647143D01*
X5016119Y-16647143D01*
X5035167Y-16656667D01*
X5044690Y-16675714D01*
X5044690Y-16780476D01*
X5139929Y-16780476D02*
X5139929Y-16647143D01*
X5139929Y-16666190D02*
X5149452Y-16656667D01*
X5168500Y-16647143D01*
X5197071Y-16647143D01*
X5216119Y-16656667D01*
X5225643Y-16675714D01*
X5225643Y-16780476D01*
X5225643Y-16675714D02*
X5235167Y-16656667D01*
X5254214Y-16647143D01*
X5282786Y-16647143D01*
X5301833Y-16656667D01*
X5311357Y-16675714D01*
X5311357Y-16780476D01*
X5701833Y-16570952D02*
X5530405Y-16828095D01*
X5958976Y-16580476D02*
X5978024Y-16580476D01*
X5997071Y-16590000D01*
X6006595Y-16599524D01*
X6016119Y-16618571D01*
X6025643Y-16656667D01*
X6025643Y-16704286D01*
X6016119Y-16742381D01*
X6006595Y-16761428D01*
X5997071Y-16770952D01*
X5978024Y-16780476D01*
X5958976Y-16780476D01*
X5939928Y-16770952D01*
X5930405Y-16761428D01*
X5920881Y-16742381D01*
X5911357Y-16704286D01*
X5911357Y-16656667D01*
X5920881Y-16618571D01*
X5930405Y-16599524D01*
X5939928Y-16590000D01*
X5958976Y-16580476D01*
X6111357Y-16761428D02*
X6120881Y-16770952D01*
X6111357Y-16780476D01*
X6101833Y-16770952D01*
X6111357Y-16761428D01*
X6111357Y-16780476D01*
X6244690Y-16580476D02*
X6263738Y-16580476D01*
X6282786Y-16590000D01*
X6292309Y-16599524D01*
X6301833Y-16618571D01*
X6311357Y-16656667D01*
X6311357Y-16704286D01*
X6301833Y-16742381D01*
X6292309Y-16761428D01*
X6282786Y-16770952D01*
X6263738Y-16780476D01*
X6244690Y-16780476D01*
X6225643Y-16770952D01*
X6216119Y-16761428D01*
X6206595Y-16742381D01*
X6197071Y-16704286D01*
X6197071Y-16656667D01*
X6206595Y-16618571D01*
X6216119Y-16599524D01*
X6225643Y-16590000D01*
X6244690Y-16580476D01*
X6482786Y-16647143D02*
X6482786Y-16780476D01*
X6435167Y-16570952D02*
X6387548Y-16713809D01*
X6511357Y-16713809D01*
X6568500Y-16580476D02*
X6692309Y-16580476D01*
X6625643Y-16656667D01*
X6654214Y-16656667D01*
X6673262Y-16666190D01*
X6682786Y-16675714D01*
X6692309Y-16694762D01*
X6692309Y-16742381D01*
X6682786Y-16761428D01*
X6673262Y-16770952D01*
X6654214Y-16780476D01*
X6597071Y-16780476D01*
X6578024Y-16770952D01*
X6568500Y-16761428D01*
X6758976Y-16580476D02*
X6882786Y-16580476D01*
X6816119Y-16656667D01*
X6844690Y-16656667D01*
X6863738Y-16666190D01*
X6873262Y-16675714D01*
X6882786Y-16694762D01*
X6882786Y-16742381D01*
X6873262Y-16761428D01*
X6863738Y-16770952D01*
X6844690Y-16780476D01*
X6787548Y-16780476D01*
X6768500Y-16770952D01*
X6758976Y-16761428D01*
X6958976Y-16580476D02*
X6958976Y-16618571D01*
X7035167Y-16580476D02*
X7035167Y-16618571D01*
X7330405Y-16856667D02*
X7320881Y-16847143D01*
X7301833Y-16818571D01*
X7292309Y-16799524D01*
X7282786Y-16770952D01*
X7273262Y-16723333D01*
X7273262Y-16685238D01*
X7282786Y-16637619D01*
X7292309Y-16609048D01*
X7301833Y-16590000D01*
X7320881Y-16561428D01*
X7330405Y-16551905D01*
X7492309Y-16647143D02*
X7492309Y-16780476D01*
X7444690Y-16570952D02*
X7397071Y-16713809D01*
X7520881Y-16713809D01*
X7682786Y-16647143D02*
X7682786Y-16780476D01*
X7635167Y-16570952D02*
X7587548Y-16713809D01*
X7711357Y-16713809D01*
X7939928Y-16780476D02*
X7939928Y-16580476D01*
X8025643Y-16780476D02*
X8025643Y-16675714D01*
X8016119Y-16656667D01*
X7997071Y-16647143D01*
X7968500Y-16647143D01*
X7949452Y-16656667D01*
X7939928Y-16666190D01*
X8149452Y-16780476D02*
X8130405Y-16770952D01*
X8120881Y-16761428D01*
X8111357Y-16742381D01*
X8111357Y-16685238D01*
X8120881Y-16666190D01*
X8130405Y-16656667D01*
X8149452Y-16647143D01*
X8178024Y-16647143D01*
X8197071Y-16656667D01*
X8206595Y-16666190D01*
X8216119Y-16685238D01*
X8216119Y-16742381D01*
X8206595Y-16761428D01*
X8197071Y-16770952D01*
X8178024Y-16780476D01*
X8149452Y-16780476D01*
X8330405Y-16780476D02*
X8311357Y-16770952D01*
X8301833Y-16751905D01*
X8301833Y-16580476D01*
X8482786Y-16770952D02*
X8463738Y-16780476D01*
X8425643Y-16780476D01*
X8406595Y-16770952D01*
X8397071Y-16751905D01*
X8397071Y-16675714D01*
X8406595Y-16656667D01*
X8425643Y-16647143D01*
X8463738Y-16647143D01*
X8482786Y-16656667D01*
X8492310Y-16675714D01*
X8492310Y-16694762D01*
X8397071Y-16713809D01*
X8568500Y-16770952D02*
X8587548Y-16780476D01*
X8625643Y-16780476D01*
X8644690Y-16770952D01*
X8654214Y-16751905D01*
X8654214Y-16742381D01*
X8644690Y-16723333D01*
X8625643Y-16713809D01*
X8597071Y-16713809D01*
X8578024Y-16704286D01*
X8568500Y-16685238D01*
X8568500Y-16675714D01*
X8578024Y-16656667D01*
X8597071Y-16647143D01*
X8625643Y-16647143D01*
X8644690Y-16656667D01*
X8720881Y-16856667D02*
X8730405Y-16847143D01*
X8749452Y-16818571D01*
X8758976Y-16799524D01*
X8768500Y-16770952D01*
X8778024Y-16723333D01*
X8778024Y-16685238D01*
X8768500Y-16637619D01*
X8758976Y-16609048D01*
X8749452Y-16590000D01*
X8730405Y-16561428D01*
X8720881Y-16551905D01*
D16*
X3606500Y-16878000D02*
X3758500Y-17030000D01*
X3758500Y-16878000D02*
X3606500Y-17030000D01*
X3758500Y-16954000D02*
G75*
G03*
X3758500Y-16954000I-76000J0D01*
G01*
D11*
X4120881Y-17044476D02*
X4006595Y-17044476D01*
X4063738Y-17044476D02*
X4063738Y-16844476D01*
X4044690Y-16873048D01*
X4025643Y-16892095D01*
X4006595Y-16901619D01*
X4206595Y-17025429D02*
X4216119Y-17034952D01*
X4206595Y-17044476D01*
X4197071Y-17034952D01*
X4206595Y-17025429D01*
X4206595Y-17044476D01*
X4397071Y-16844476D02*
X4301833Y-16844476D01*
X4292310Y-16939714D01*
X4301833Y-16930190D01*
X4320881Y-16920667D01*
X4368500Y-16920667D01*
X4387548Y-16930190D01*
X4397071Y-16939714D01*
X4406595Y-16958762D01*
X4406595Y-17006381D01*
X4397071Y-17025429D01*
X4387548Y-17034952D01*
X4368500Y-17044476D01*
X4320881Y-17044476D01*
X4301833Y-17034952D01*
X4292310Y-17025429D01*
X4482786Y-16863524D02*
X4492310Y-16854000D01*
X4511357Y-16844476D01*
X4558976Y-16844476D01*
X4578024Y-16854000D01*
X4587548Y-16863524D01*
X4597071Y-16882571D01*
X4597071Y-16901619D01*
X4587548Y-16930190D01*
X4473262Y-17044476D01*
X4597071Y-17044476D01*
X4720881Y-16844476D02*
X4739929Y-16844476D01*
X4758976Y-16854000D01*
X4768500Y-16863524D01*
X4778024Y-16882571D01*
X4787548Y-16920667D01*
X4787548Y-16968286D01*
X4778024Y-17006381D01*
X4768500Y-17025429D01*
X4758976Y-17034952D01*
X4739929Y-17044476D01*
X4720881Y-17044476D01*
X4701833Y-17034952D01*
X4692310Y-17025429D01*
X4682786Y-17006381D01*
X4673262Y-16968286D01*
X4673262Y-16920667D01*
X4682786Y-16882571D01*
X4692310Y-16863524D01*
X4701833Y-16854000D01*
X4720881Y-16844476D01*
X4873262Y-17044476D02*
X4873262Y-16911143D01*
X4873262Y-16930190D02*
X4882786Y-16920667D01*
X4901833Y-16911143D01*
X4930405Y-16911143D01*
X4949452Y-16920667D01*
X4958976Y-16939714D01*
X4958976Y-17044476D01*
X4958976Y-16939714D02*
X4968500Y-16920667D01*
X4987548Y-16911143D01*
X5016119Y-16911143D01*
X5035167Y-16920667D01*
X5044690Y-16939714D01*
X5044690Y-17044476D01*
X5139929Y-17044476D02*
X5139929Y-16911143D01*
X5139929Y-16930190D02*
X5149452Y-16920667D01*
X5168500Y-16911143D01*
X5197071Y-16911143D01*
X5216119Y-16920667D01*
X5225643Y-16939714D01*
X5225643Y-17044476D01*
X5225643Y-16939714D02*
X5235167Y-16920667D01*
X5254214Y-16911143D01*
X5282786Y-16911143D01*
X5301833Y-16920667D01*
X5311357Y-16939714D01*
X5311357Y-17044476D01*
X5701833Y-16834952D02*
X5530405Y-17092095D01*
X5958976Y-16844476D02*
X5978024Y-16844476D01*
X5997071Y-16854000D01*
X6006595Y-16863524D01*
X6016119Y-16882571D01*
X6025643Y-16920667D01*
X6025643Y-16968286D01*
X6016119Y-17006381D01*
X6006595Y-17025429D01*
X5997071Y-17034952D01*
X5978024Y-17044476D01*
X5958976Y-17044476D01*
X5939928Y-17034952D01*
X5930405Y-17025429D01*
X5920881Y-17006381D01*
X5911357Y-16968286D01*
X5911357Y-16920667D01*
X5920881Y-16882571D01*
X5930405Y-16863524D01*
X5939928Y-16854000D01*
X5958976Y-16844476D01*
X6111357Y-17025429D02*
X6120881Y-17034952D01*
X6111357Y-17044476D01*
X6101833Y-17034952D01*
X6111357Y-17025429D01*
X6111357Y-17044476D01*
X6244690Y-16844476D02*
X6263738Y-16844476D01*
X6282786Y-16854000D01*
X6292309Y-16863524D01*
X6301833Y-16882571D01*
X6311357Y-16920667D01*
X6311357Y-16968286D01*
X6301833Y-17006381D01*
X6292309Y-17025429D01*
X6282786Y-17034952D01*
X6263738Y-17044476D01*
X6244690Y-17044476D01*
X6225643Y-17034952D01*
X6216119Y-17025429D01*
X6206595Y-17006381D01*
X6197071Y-16968286D01*
X6197071Y-16920667D01*
X6206595Y-16882571D01*
X6216119Y-16863524D01*
X6225643Y-16854000D01*
X6244690Y-16844476D01*
X6492309Y-16844476D02*
X6397071Y-16844476D01*
X6387548Y-16939714D01*
X6397071Y-16930190D01*
X6416119Y-16920667D01*
X6463738Y-16920667D01*
X6482786Y-16930190D01*
X6492309Y-16939714D01*
X6501833Y-16958762D01*
X6501833Y-17006381D01*
X6492309Y-17025429D01*
X6482786Y-17034952D01*
X6463738Y-17044476D01*
X6416119Y-17044476D01*
X6397071Y-17034952D01*
X6387548Y-17025429D01*
X6597071Y-17044476D02*
X6635167Y-17044476D01*
X6654214Y-17034952D01*
X6663738Y-17025429D01*
X6682786Y-16996857D01*
X6692309Y-16958762D01*
X6692309Y-16882571D01*
X6682786Y-16863524D01*
X6673262Y-16854000D01*
X6654214Y-16844476D01*
X6616119Y-16844476D01*
X6597071Y-16854000D01*
X6587548Y-16863524D01*
X6578024Y-16882571D01*
X6578024Y-16930190D01*
X6587548Y-16949238D01*
X6597071Y-16958762D01*
X6616119Y-16968286D01*
X6654214Y-16968286D01*
X6673262Y-16958762D01*
X6682786Y-16949238D01*
X6692309Y-16930190D01*
X6806595Y-16930190D02*
X6787548Y-16920667D01*
X6778024Y-16911143D01*
X6768500Y-16892095D01*
X6768500Y-16882571D01*
X6778024Y-16863524D01*
X6787548Y-16854000D01*
X6806595Y-16844476D01*
X6844690Y-16844476D01*
X6863738Y-16854000D01*
X6873262Y-16863524D01*
X6882786Y-16882571D01*
X6882786Y-16892095D01*
X6873262Y-16911143D01*
X6863738Y-16920667D01*
X6844690Y-16930190D01*
X6806595Y-16930190D01*
X6787548Y-16939714D01*
X6778024Y-16949238D01*
X6768500Y-16968286D01*
X6768500Y-17006381D01*
X6778024Y-17025429D01*
X6787548Y-17034952D01*
X6806595Y-17044476D01*
X6844690Y-17044476D01*
X6863738Y-17034952D01*
X6873262Y-17025429D01*
X6882786Y-17006381D01*
X6882786Y-16968286D01*
X6873262Y-16949238D01*
X6863738Y-16939714D01*
X6844690Y-16930190D01*
X6958976Y-16844476D02*
X6958976Y-16882571D01*
X7035167Y-16844476D02*
X7035167Y-16882571D01*
X7330405Y-17120667D02*
X7320881Y-17111143D01*
X7301833Y-17082571D01*
X7292309Y-17063524D01*
X7282786Y-17034952D01*
X7273262Y-16987333D01*
X7273262Y-16949238D01*
X7282786Y-16901619D01*
X7292309Y-16873048D01*
X7301833Y-16854000D01*
X7320881Y-16825429D01*
X7330405Y-16815905D01*
X7501833Y-16844476D02*
X7406595Y-16844476D01*
X7397071Y-16939714D01*
X7406595Y-16930190D01*
X7425643Y-16920667D01*
X7473262Y-16920667D01*
X7492309Y-16930190D01*
X7501833Y-16939714D01*
X7511357Y-16958762D01*
X7511357Y-17006381D01*
X7501833Y-17025429D01*
X7492309Y-17034952D01*
X7473262Y-17044476D01*
X7425643Y-17044476D01*
X7406595Y-17034952D01*
X7397071Y-17025429D01*
X7635167Y-16844476D02*
X7654214Y-16844476D01*
X7673262Y-16854000D01*
X7682786Y-16863524D01*
X7692309Y-16882571D01*
X7701833Y-16920667D01*
X7701833Y-16968286D01*
X7692309Y-17006381D01*
X7682786Y-17025429D01*
X7673262Y-17034952D01*
X7654214Y-17044476D01*
X7635167Y-17044476D01*
X7616119Y-17034952D01*
X7606595Y-17025429D01*
X7597071Y-17006381D01*
X7587548Y-16968286D01*
X7587548Y-16920667D01*
X7597071Y-16882571D01*
X7606595Y-16863524D01*
X7616119Y-16854000D01*
X7635167Y-16844476D01*
X7939928Y-17044476D02*
X7939928Y-16844476D01*
X8025643Y-17044476D02*
X8025643Y-16939714D01*
X8016119Y-16920667D01*
X7997071Y-16911143D01*
X7968500Y-16911143D01*
X7949452Y-16920667D01*
X7939928Y-16930190D01*
X8149452Y-17044476D02*
X8130405Y-17034952D01*
X8120881Y-17025429D01*
X8111357Y-17006381D01*
X8111357Y-16949238D01*
X8120881Y-16930190D01*
X8130405Y-16920667D01*
X8149452Y-16911143D01*
X8178024Y-16911143D01*
X8197071Y-16920667D01*
X8206595Y-16930190D01*
X8216119Y-16949238D01*
X8216119Y-17006381D01*
X8206595Y-17025429D01*
X8197071Y-17034952D01*
X8178024Y-17044476D01*
X8149452Y-17044476D01*
X8330405Y-17044476D02*
X8311357Y-17034952D01*
X8301833Y-17015905D01*
X8301833Y-16844476D01*
X8482786Y-17034952D02*
X8463738Y-17044476D01*
X8425643Y-17044476D01*
X8406595Y-17034952D01*
X8397071Y-17015905D01*
X8397071Y-16939714D01*
X8406595Y-16920667D01*
X8425643Y-16911143D01*
X8463738Y-16911143D01*
X8482786Y-16920667D01*
X8492310Y-16939714D01*
X8492310Y-16958762D01*
X8397071Y-16977810D01*
X8568500Y-17034952D02*
X8587548Y-17044476D01*
X8625643Y-17044476D01*
X8644690Y-17034952D01*
X8654214Y-17015905D01*
X8654214Y-17006381D01*
X8644690Y-16987333D01*
X8625643Y-16977810D01*
X8597071Y-16977810D01*
X8578024Y-16968286D01*
X8568500Y-16949238D01*
X8568500Y-16939714D01*
X8578024Y-16920667D01*
X8597071Y-16911143D01*
X8625643Y-16911143D01*
X8644690Y-16920667D01*
X8720881Y-17120667D02*
X8730405Y-17111143D01*
X8749452Y-17082571D01*
X8758976Y-17063524D01*
X8768500Y-17034952D01*
X8778024Y-16987333D01*
X8778024Y-16949238D01*
X8768500Y-16901619D01*
X8758976Y-16873048D01*
X8749452Y-16854000D01*
X8730405Y-16825429D01*
X8720881Y-16815905D01*
M02*
