M48
; DRILL file {KiCad (6.0.9)} date Tue Nov  8 23:38:08 2022
; FORMAT={-:-/ absolute / metric / decimal}
; #@! TF.CreationDate,2022-11-08T23:38:08-07:00
; #@! TF.GenerationSoftware,Kicad,Pcbnew,(6.0.9)
; #@! TF.FileFunction,Plated,1,2,PTH
FMAT,2
METRIC
; #@! TA.AperFunction,Plated,PTH,ViaDrill
T1C0.400
; #@! TA.AperFunction,Plated,PTH,ComponentDrill
T2C0.762
; #@! TA.AperFunction,Plated,PTH,ComponentDrill
T3C1.000
; #@! TA.AperFunction,Plated,PTH,ComponentDrill
T4C1.001
; #@! TA.AperFunction,Plated,PTH,ComponentDrill
T5C1.100
; #@! TA.AperFunction,Plated,PTH,ComponentDrill
T6C1.520
%
G90
G05
T1
X53.34Y-135.89
X60.96Y-103.505
X64.77Y-135.89
X72.39Y-106.68
X74.93Y-135.89
X83.185Y-108.585
X85.09Y-135.89
X91.44Y-111.125
X95.25Y-135.89
X101.6Y-101.6
X104.241Y-104.241
X105.41Y-93.345
X105.41Y-113.03
X105.41Y-135.89
X106.848Y-107.147
X109.119Y-109.321
X115.57Y-127.0
X115.57Y-135.89
X116.375Y-117.305
X120.65Y-117.475
X124.46Y-122.555
X124.46Y-133.35
X125.73Y-135.89
X130.81Y-92.075
X133.905Y-95.33
X140.415Y-95.17
X141.605Y-93.345
X146.05Y-128.905
X154.225Y-95.33
X171.734Y-85.374
X177.165Y-128.905
X193.04Y-124.46
X196.215Y-108.585
X196.85Y-109.855
X198.12Y-112.395
X199.39Y-114.3
X200.025Y-115.57
X201.295Y-124.46
X203.2Y-117.475
X204.47Y-116.205
X204.47Y-127.635
X207.01Y-123.19
X228.6Y-75.565
X229.235Y-83.185
X230.505Y-75.565
X231.775Y-81.915
T2
X99.06Y-123.8
X101.6Y-123.8
X104.14Y-123.8
X106.68Y-123.8
X109.22Y-123.8
X111.76Y-123.8
X114.3Y-123.8
X116.84Y-123.8
X119.38Y-123.8
X121.92Y-123.8
T3
X173.355Y-67.31
X175.895Y-67.31
X243.84Y-76.2
X243.84Y-78.74
X243.84Y-81.28
X243.84Y-83.82
X243.84Y-91.44
X243.84Y-93.98
X243.84Y-96.52
X243.84Y-99.06
X243.84Y-107.95
X243.84Y-110.49
X243.84Y-113.03
X243.84Y-115.57
X246.38Y-76.2
X246.38Y-78.74
X246.38Y-81.28
X246.38Y-83.82
X246.38Y-91.44
X246.38Y-93.98
X246.38Y-96.52
X246.38Y-99.06
X246.38Y-107.95
X246.38Y-110.49
X246.38Y-113.03
X246.38Y-115.57
T4
X186.69Y-56.261
X186.69Y-58.801
X186.69Y-61.341
X186.69Y-63.881
X186.69Y-66.421
X186.69Y-68.961
X186.69Y-71.501
X186.69Y-74.041
X186.69Y-76.581
X186.69Y-79.121
X186.69Y-83.185
X186.69Y-85.725
X186.69Y-88.265
X186.69Y-90.805
X186.69Y-93.345
X186.69Y-95.885
X186.69Y-98.425
X186.69Y-100.965
X186.69Y-106.045
X186.69Y-108.585
X186.69Y-111.125
X186.69Y-113.665
X186.69Y-116.205
X186.69Y-118.745
X186.69Y-121.285
X186.69Y-123.825
X186.69Y-131.445
X186.69Y-133.985
X189.23Y-131.445
X189.23Y-133.985
X191.77Y-131.445
X191.77Y-133.985
X194.31Y-131.445
X194.31Y-133.985
X196.85Y-131.445
X196.85Y-133.985
X199.39Y-131.445
X199.39Y-133.985
X201.93Y-131.445
X201.93Y-133.985
X204.47Y-131.445
X204.47Y-133.985
X207.01Y-131.445
X207.01Y-133.985
X209.55Y-131.445
X209.55Y-133.985
X212.09Y-131.445
X212.09Y-133.985
X214.63Y-131.445
X214.63Y-133.985
X217.17Y-131.445
X217.17Y-133.985
X219.71Y-131.445
X219.71Y-133.985
X222.25Y-131.445
X222.25Y-133.985
X224.79Y-131.445
X224.79Y-133.985
X227.33Y-131.445
X227.33Y-133.985
X229.87Y-131.445
X229.87Y-133.985
X234.95Y-65.405
X234.95Y-67.945
X234.95Y-70.485
X234.95Y-73.025
X234.95Y-75.565
X234.95Y-78.105
X234.95Y-80.645
X234.95Y-83.185
X234.95Y-88.265
X234.95Y-90.805
X234.95Y-93.345
X234.95Y-95.885
X234.95Y-98.425
X234.95Y-100.965
X234.95Y-103.505
X234.95Y-106.045
X234.95Y-111.125
X234.95Y-113.665
X234.95Y-116.205
X234.95Y-118.745
X234.95Y-121.285
X234.95Y-123.825
X234.95Y-126.365
X234.95Y-128.905
T5
X56.17Y-139.02
X56.17Y-145.52
X60.67Y-139.02
X60.67Y-145.52
X66.33Y-139.02
X66.33Y-145.52
X70.83Y-139.02
X70.83Y-145.52
X76.2Y-139.02
X76.2Y-145.52
X80.7Y-139.02
X80.7Y-145.52
X86.65Y-139.02
X86.65Y-145.52
X91.15Y-139.02
X91.15Y-145.52
X96.81Y-139.02
X96.81Y-145.52
X101.31Y-139.02
X101.31Y-145.52
X106.97Y-139.02
X106.97Y-145.52
X111.47Y-139.02
X111.47Y-145.52
X116.84Y-139.02
X116.84Y-145.52
X121.34Y-139.02
X121.34Y-145.52
X127.29Y-139.02
X127.29Y-145.52
X131.79Y-139.02
X131.79Y-145.52
X137.45Y-139.02
X137.45Y-145.52
X141.95Y-139.02
X141.95Y-145.52
X147.61Y-139.02
X147.61Y-145.52
X152.11Y-139.02
X152.11Y-145.52
X241.59Y-126.29
X241.59Y-132.79
X246.09Y-126.29
X246.09Y-132.79
T6
X50.8Y-72.295
X54.61Y-53.34
X55.88Y-72.295
X59.69Y-53.34
X60.96Y-72.295
X64.77Y-53.34
X66.04Y-72.295
X69.85Y-53.34
X71.12Y-72.295
X74.93Y-53.34
X76.2Y-72.295
X80.01Y-53.34
X81.28Y-72.295
X85.09Y-53.34
X86.36Y-72.295
X90.17Y-53.34
X91.44Y-72.295
X95.25Y-53.34
X96.52Y-72.295
X100.33Y-53.34
X101.6Y-72.295
X105.41Y-53.34
X106.68Y-72.295
X110.49Y-53.34
X111.76Y-72.295
X115.57Y-53.34
X116.84Y-72.295
X120.65Y-53.34
X121.92Y-72.295
X125.73Y-53.34
X127.0Y-72.295
X130.81Y-53.34
X132.08Y-72.295
X135.89Y-53.34
X137.16Y-72.295
X140.97Y-53.34
X142.24Y-72.39
X146.05Y-53.34
X147.32Y-72.39
X151.13Y-53.34
X152.4Y-72.39
X157.48Y-72.39
X159.385Y-58.42
X162.56Y-72.39
X164.465Y-58.42
X167.64Y-72.39
X170.815Y-142.27
X170.985Y-58.45
X175.895Y-142.27
X176.065Y-58.45
T0
M30
