%TF.GenerationSoftware,KiCad,Pcbnew,(6.0.9)*%
%TF.CreationDate,2022-11-08T23:38:06-07:00*%
%TF.ProjectId,gnctr-wack-a-mole-pcb,676e6374-722d-4776-9163-6b2d612d6d6f,rev?*%
%TF.SameCoordinates,Original*%
%TF.FileFunction,Legend,Top*%
%TF.FilePolarity,Positive*%
%FSLAX46Y46*%
G04 Gerber Fmt 4.6, Leading zero omitted, Abs format (unit mm)*
G04 Created by KiCad (PCBNEW (6.0.9)) date 2022-11-08 23:38:06*
%MOMM*%
%LPD*%
G01*
G04 APERTURE LIST*
G04 Aperture macros list*
%AMRoundRect*
0 Rectangle with rounded corners*
0 $1 Rounding radius*
0 $2 $3 $4 $5 $6 $7 $8 $9 X,Y pos of 4 corners*
0 Add a 4 corners polygon primitive as box body*
4,1,4,$2,$3,$4,$5,$6,$7,$8,$9,$2,$3,0*
0 Add four circle primitives for the rounded corners*
1,1,$1+$1,$2,$3*
1,1,$1+$1,$4,$5*
1,1,$1+$1,$6,$7*
1,1,$1+$1,$8,$9*
0 Add four rect primitives between the rounded corners*
20,1,$1+$1,$2,$3,$4,$5,0*
20,1,$1+$1,$4,$5,$6,$7,0*
20,1,$1+$1,$6,$7,$8,$9,0*
20,1,$1+$1,$8,$9,$2,$3,0*%
G04 Aperture macros list end*
%ADD10C,0.150000*%
%ADD11C,0.300000*%
%ADD12C,0.120000*%
%ADD13C,0.500000*%
%ADD14C,2.000000*%
%ADD15R,3.000000X3.000000*%
%ADD16C,3.000000*%
%ADD17RoundRect,0.250001X-0.462499X-0.624999X0.462499X-0.624999X0.462499X0.624999X-0.462499X0.624999X0*%
%ADD18RoundRect,0.250000X-0.400000X-0.625000X0.400000X-0.625000X0.400000X0.625000X-0.400000X0.625000X0*%
%ADD19R,1.700000X1.700000*%
%ADD20O,1.700000X1.700000*%
%ADD21C,4.000000*%
%ADD22C,6.000000*%
%ADD23C,1.524000*%
%ADD24O,2.197100X1.524000*%
%ADD25O,1.536700X1.998980*%
%ADD26O,1.539240X1.998980*%
%ADD27O,2.199640X1.524000*%
%ADD28C,3.197860*%
G04 APERTURE END LIST*
D10*
X103601190Y-121420000D02*
X103505952Y-121372380D01*
X103363095Y-121372380D01*
X103220238Y-121420000D01*
X103125000Y-121515238D01*
X103077380Y-121610476D01*
X103029761Y-121800952D01*
X103029761Y-121943809D01*
X103077380Y-122134285D01*
X103125000Y-122229523D01*
X103220238Y-122324761D01*
X103363095Y-122372380D01*
X103458333Y-122372380D01*
X103601190Y-122324761D01*
X103648809Y-122277142D01*
X103648809Y-121943809D01*
X103458333Y-121943809D01*
X104077380Y-122372380D02*
X104077380Y-121372380D01*
X104648809Y-122372380D01*
X104648809Y-121372380D01*
X105125000Y-122372380D02*
X105125000Y-121372380D01*
X105363095Y-121372380D01*
X105505952Y-121420000D01*
X105601190Y-121515238D01*
X105648809Y-121610476D01*
X105696428Y-121800952D01*
X105696428Y-121943809D01*
X105648809Y-122134285D01*
X105601190Y-122229523D01*
X105505952Y-122324761D01*
X105363095Y-122372380D01*
X105125000Y-122372380D01*
X106172619Y-122324761D02*
X106172619Y-122372380D01*
X106125000Y-122467619D01*
X106077380Y-122515238D01*
X107886904Y-122372380D02*
X107315476Y-122372380D01*
X107601190Y-122372380D02*
X107601190Y-121372380D01*
X107505952Y-121515238D01*
X107410714Y-121610476D01*
X107315476Y-121658095D01*
X108363095Y-122324761D02*
X108363095Y-122372380D01*
X108315476Y-122467619D01*
X108267857Y-122515238D01*
X109505952Y-121467619D02*
X109553571Y-121420000D01*
X109648809Y-121372380D01*
X109886904Y-121372380D01*
X109982142Y-121420000D01*
X110029761Y-121467619D01*
X110077380Y-121562857D01*
X110077380Y-121658095D01*
X110029761Y-121800952D01*
X109458333Y-122372380D01*
X110077380Y-122372380D01*
X110553571Y-122324761D02*
X110553571Y-122372380D01*
X110505952Y-122467619D01*
X110458333Y-122515238D01*
X111744047Y-122277142D02*
X111791666Y-122324761D01*
X111744047Y-122372380D01*
X111696428Y-122324761D01*
X111744047Y-122277142D01*
X111744047Y-122372380D01*
X112220238Y-122277142D02*
X112267857Y-122324761D01*
X112220238Y-122372380D01*
X112172619Y-122324761D01*
X112220238Y-122277142D01*
X112220238Y-122372380D01*
X112696428Y-122277142D02*
X112744047Y-122324761D01*
X112696428Y-122372380D01*
X112648809Y-122324761D01*
X112696428Y-122277142D01*
X112696428Y-122372380D01*
X113220238Y-122324761D02*
X113220238Y-122372380D01*
X113172619Y-122467619D01*
X113125000Y-122515238D01*
X114553571Y-121800952D02*
X114458333Y-121753333D01*
X114410714Y-121705714D01*
X114363095Y-121610476D01*
X114363095Y-121562857D01*
X114410714Y-121467619D01*
X114458333Y-121420000D01*
X114553571Y-121372380D01*
X114744047Y-121372380D01*
X114839285Y-121420000D01*
X114886904Y-121467619D01*
X114934523Y-121562857D01*
X114934523Y-121610476D01*
X114886904Y-121705714D01*
X114839285Y-121753333D01*
X114744047Y-121800952D01*
X114553571Y-121800952D01*
X114458333Y-121848571D01*
X114410714Y-121896190D01*
X114363095Y-121991428D01*
X114363095Y-122181904D01*
X114410714Y-122277142D01*
X114458333Y-122324761D01*
X114553571Y-122372380D01*
X114744047Y-122372380D01*
X114839285Y-122324761D01*
X114886904Y-122277142D01*
X114934523Y-122181904D01*
X114934523Y-121991428D01*
X114886904Y-121896190D01*
X114839285Y-121848571D01*
X114744047Y-121800952D01*
X115410714Y-122324761D02*
X115410714Y-122372380D01*
X115363095Y-122467619D01*
X115315476Y-122515238D01*
X116601190Y-121991428D02*
X117363095Y-121991428D01*
X116982142Y-122372380D02*
X116982142Y-121610476D01*
X118315476Y-121372380D02*
X117839285Y-121372380D01*
X117791666Y-121848571D01*
X117839285Y-121800952D01*
X117934523Y-121753333D01*
X118172619Y-121753333D01*
X118267857Y-121800952D01*
X118315476Y-121848571D01*
X118363095Y-121943809D01*
X118363095Y-122181904D01*
X118315476Y-122277142D01*
X118267857Y-122324761D01*
X118172619Y-122372380D01*
X117934523Y-122372380D01*
X117839285Y-122324761D01*
X117791666Y-122277142D01*
X118648809Y-121372380D02*
X118982142Y-122372380D01*
X119315476Y-121372380D01*
D11*
X241982857Y-135933571D02*
X241482857Y-135219285D01*
X241125714Y-135933571D02*
X241125714Y-134433571D01*
X241697142Y-134433571D01*
X241840000Y-134505000D01*
X241911428Y-134576428D01*
X241982857Y-134719285D01*
X241982857Y-134933571D01*
X241911428Y-135076428D01*
X241840000Y-135147857D01*
X241697142Y-135219285D01*
X241125714Y-135219285D01*
X243197142Y-135862142D02*
X243054285Y-135933571D01*
X242768571Y-135933571D01*
X242625714Y-135862142D01*
X242554285Y-135719285D01*
X242554285Y-135147857D01*
X242625714Y-135005000D01*
X242768571Y-134933571D01*
X243054285Y-134933571D01*
X243197142Y-135005000D01*
X243268571Y-135147857D01*
X243268571Y-135290714D01*
X242554285Y-135433571D01*
X243840000Y-135862142D02*
X243982857Y-135933571D01*
X244268571Y-135933571D01*
X244411428Y-135862142D01*
X244482857Y-135719285D01*
X244482857Y-135647857D01*
X244411428Y-135505000D01*
X244268571Y-135433571D01*
X244054285Y-135433571D01*
X243911428Y-135362142D01*
X243840000Y-135219285D01*
X243840000Y-135147857D01*
X243911428Y-135005000D01*
X244054285Y-134933571D01*
X244268571Y-134933571D01*
X244411428Y-135005000D01*
X245697142Y-135862142D02*
X245554285Y-135933571D01*
X245268571Y-135933571D01*
X245125714Y-135862142D01*
X245054285Y-135719285D01*
X245054285Y-135147857D01*
X245125714Y-135005000D01*
X245268571Y-134933571D01*
X245554285Y-134933571D01*
X245697142Y-135005000D01*
X245768571Y-135147857D01*
X245768571Y-135290714D01*
X245054285Y-135433571D01*
X246197142Y-134933571D02*
X246768571Y-134933571D01*
X246411428Y-134433571D02*
X246411428Y-135719285D01*
X246482857Y-135862142D01*
X246625714Y-135933571D01*
X246768571Y-135933571D01*
D10*
X150939523Y-59507380D02*
X150368095Y-59507380D01*
X150653809Y-59507380D02*
X150653809Y-58507380D01*
X150558571Y-58650238D01*
X150463333Y-58745476D01*
X150368095Y-58793095D01*
X151558571Y-58507380D02*
X151653809Y-58507380D01*
X151749047Y-58555000D01*
X151796666Y-58602619D01*
X151844285Y-58697857D01*
X151891904Y-58888333D01*
X151891904Y-59126428D01*
X151844285Y-59316904D01*
X151796666Y-59412142D01*
X151749047Y-59459761D01*
X151653809Y-59507380D01*
X151558571Y-59507380D01*
X151463333Y-59459761D01*
X151415714Y-59412142D01*
X151368095Y-59316904D01*
X151320476Y-59126428D01*
X151320476Y-58888333D01*
X151368095Y-58697857D01*
X151415714Y-58602619D01*
X151463333Y-58555000D01*
X151558571Y-58507380D01*
X90360476Y-58840714D02*
X90360476Y-59507380D01*
X90122380Y-58459761D02*
X89884285Y-59174047D01*
X90503333Y-59174047D01*
X85351904Y-58555000D02*
X85256666Y-58507380D01*
X85113809Y-58507380D01*
X84970952Y-58555000D01*
X84875714Y-58650238D01*
X84828095Y-58745476D01*
X84780476Y-58935952D01*
X84780476Y-59078809D01*
X84828095Y-59269285D01*
X84875714Y-59364523D01*
X84970952Y-59459761D01*
X85113809Y-59507380D01*
X85209047Y-59507380D01*
X85351904Y-59459761D01*
X85399523Y-59412142D01*
X85399523Y-59078809D01*
X85209047Y-59078809D01*
X136151904Y-58555000D02*
X136056666Y-58507380D01*
X135913809Y-58507380D01*
X135770952Y-58555000D01*
X135675714Y-58650238D01*
X135628095Y-58745476D01*
X135580476Y-58935952D01*
X135580476Y-59078809D01*
X135628095Y-59269285D01*
X135675714Y-59364523D01*
X135770952Y-59459761D01*
X135913809Y-59507380D01*
X136009047Y-59507380D01*
X136151904Y-59459761D01*
X136199523Y-59412142D01*
X136199523Y-59078809D01*
X136009047Y-59078809D01*
X146311904Y-58555000D02*
X146216666Y-58507380D01*
X146073809Y-58507380D01*
X145930952Y-58555000D01*
X145835714Y-58650238D01*
X145788095Y-58745476D01*
X145740476Y-58935952D01*
X145740476Y-59078809D01*
X145788095Y-59269285D01*
X145835714Y-59364523D01*
X145930952Y-59459761D01*
X146073809Y-59507380D01*
X146169047Y-59507380D01*
X146311904Y-59459761D01*
X146359523Y-59412142D01*
X146359523Y-59078809D01*
X146169047Y-59078809D01*
X95511904Y-58555000D02*
X95416666Y-58507380D01*
X95273809Y-58507380D01*
X95130952Y-58555000D01*
X95035714Y-58650238D01*
X94988095Y-58745476D01*
X94940476Y-58935952D01*
X94940476Y-59078809D01*
X94988095Y-59269285D01*
X95035714Y-59364523D01*
X95130952Y-59459761D01*
X95273809Y-59507380D01*
X95369047Y-59507380D01*
X95511904Y-59459761D01*
X95559523Y-59412142D01*
X95559523Y-59078809D01*
X95369047Y-59078809D01*
X115831904Y-58555000D02*
X115736666Y-58507380D01*
X115593809Y-58507380D01*
X115450952Y-58555000D01*
X115355714Y-58650238D01*
X115308095Y-58745476D01*
X115260476Y-58935952D01*
X115260476Y-59078809D01*
X115308095Y-59269285D01*
X115355714Y-59364523D01*
X115450952Y-59459761D01*
X115593809Y-59507380D01*
X115689047Y-59507380D01*
X115831904Y-59459761D01*
X115879523Y-59412142D01*
X115879523Y-59078809D01*
X115689047Y-59078809D01*
X110680476Y-58507380D02*
X110490000Y-58507380D01*
X110394761Y-58555000D01*
X110347142Y-58602619D01*
X110251904Y-58745476D01*
X110204285Y-58935952D01*
X110204285Y-59316904D01*
X110251904Y-59412142D01*
X110299523Y-59459761D01*
X110394761Y-59507380D01*
X110585238Y-59507380D01*
X110680476Y-59459761D01*
X110728095Y-59412142D01*
X110775714Y-59316904D01*
X110775714Y-59078809D01*
X110728095Y-58983571D01*
X110680476Y-58935952D01*
X110585238Y-58888333D01*
X110394761Y-58888333D01*
X110299523Y-58935952D01*
X110251904Y-58983571D01*
X110204285Y-59078809D01*
X140779523Y-59507380D02*
X140970000Y-59507380D01*
X141065238Y-59459761D01*
X141112857Y-59412142D01*
X141208095Y-59269285D01*
X141255714Y-59078809D01*
X141255714Y-58697857D01*
X141208095Y-58602619D01*
X141160476Y-58555000D01*
X141065238Y-58507380D01*
X140874761Y-58507380D01*
X140779523Y-58555000D01*
X140731904Y-58602619D01*
X140684285Y-58697857D01*
X140684285Y-58935952D01*
X140731904Y-59031190D01*
X140779523Y-59078809D01*
X140874761Y-59126428D01*
X141065238Y-59126428D01*
X141160476Y-59078809D01*
X141208095Y-59031190D01*
X141255714Y-58935952D01*
X130714761Y-58935952D02*
X130619523Y-58888333D01*
X130571904Y-58840714D01*
X130524285Y-58745476D01*
X130524285Y-58697857D01*
X130571904Y-58602619D01*
X130619523Y-58555000D01*
X130714761Y-58507380D01*
X130905238Y-58507380D01*
X131000476Y-58555000D01*
X131048095Y-58602619D01*
X131095714Y-58697857D01*
X131095714Y-58745476D01*
X131048095Y-58840714D01*
X131000476Y-58888333D01*
X130905238Y-58935952D01*
X130714761Y-58935952D01*
X130619523Y-58983571D01*
X130571904Y-59031190D01*
X130524285Y-59126428D01*
X130524285Y-59316904D01*
X130571904Y-59412142D01*
X130619523Y-59459761D01*
X130714761Y-59507380D01*
X130905238Y-59507380D01*
X131000476Y-59459761D01*
X131048095Y-59412142D01*
X131095714Y-59316904D01*
X131095714Y-59126428D01*
X131048095Y-59031190D01*
X131000476Y-58983571D01*
X130905238Y-58935952D01*
X79676666Y-58507380D02*
X80295714Y-58507380D01*
X79962380Y-58888333D01*
X80105238Y-58888333D01*
X80200476Y-58935952D01*
X80248095Y-58983571D01*
X80295714Y-59078809D01*
X80295714Y-59316904D01*
X80248095Y-59412142D01*
X80200476Y-59459761D01*
X80105238Y-59507380D01*
X79819523Y-59507380D01*
X79724285Y-59459761D01*
X79676666Y-59412142D01*
X125991904Y-58555000D02*
X125896666Y-58507380D01*
X125753809Y-58507380D01*
X125610952Y-58555000D01*
X125515714Y-58650238D01*
X125468095Y-58745476D01*
X125420476Y-58935952D01*
X125420476Y-59078809D01*
X125468095Y-59269285D01*
X125515714Y-59364523D01*
X125610952Y-59459761D01*
X125753809Y-59507380D01*
X125849047Y-59507380D01*
X125991904Y-59459761D01*
X126039523Y-59412142D01*
X126039523Y-59078809D01*
X125849047Y-59078809D01*
X105671904Y-58555000D02*
X105576666Y-58507380D01*
X105433809Y-58507380D01*
X105290952Y-58555000D01*
X105195714Y-58650238D01*
X105148095Y-58745476D01*
X105100476Y-58935952D01*
X105100476Y-59078809D01*
X105148095Y-59269285D01*
X105195714Y-59364523D01*
X105290952Y-59459761D01*
X105433809Y-59507380D01*
X105529047Y-59507380D01*
X105671904Y-59459761D01*
X105719523Y-59412142D01*
X105719523Y-59078809D01*
X105529047Y-59078809D01*
X120316666Y-58507380D02*
X120983333Y-58507380D01*
X120554761Y-59507380D01*
X65031904Y-58555000D02*
X64936666Y-58507380D01*
X64793809Y-58507380D01*
X64650952Y-58555000D01*
X64555714Y-58650238D01*
X64508095Y-58745476D01*
X64460476Y-58935952D01*
X64460476Y-59078809D01*
X64508095Y-59269285D01*
X64555714Y-59364523D01*
X64650952Y-59459761D01*
X64793809Y-59507380D01*
X64889047Y-59507380D01*
X65031904Y-59459761D01*
X65079523Y-59412142D01*
X65079523Y-59078809D01*
X64889047Y-59078809D01*
X54871904Y-58555000D02*
X54776666Y-58507380D01*
X54633809Y-58507380D01*
X54490952Y-58555000D01*
X54395714Y-58650238D01*
X54348095Y-58745476D01*
X54300476Y-58935952D01*
X54300476Y-59078809D01*
X54348095Y-59269285D01*
X54395714Y-59364523D01*
X54490952Y-59459761D01*
X54633809Y-59507380D01*
X54729047Y-59507380D01*
X54871904Y-59459761D01*
X54919523Y-59412142D01*
X54919523Y-59078809D01*
X54729047Y-59078809D01*
X59975714Y-59507380D02*
X59404285Y-59507380D01*
X59690000Y-59507380D02*
X59690000Y-58507380D01*
X59594761Y-58650238D01*
X59499523Y-58745476D01*
X59404285Y-58793095D01*
X75191904Y-58555000D02*
X75096666Y-58507380D01*
X74953809Y-58507380D01*
X74810952Y-58555000D01*
X74715714Y-58650238D01*
X74668095Y-58745476D01*
X74620476Y-58935952D01*
X74620476Y-59078809D01*
X74668095Y-59269285D01*
X74715714Y-59364523D01*
X74810952Y-59459761D01*
X74953809Y-59507380D01*
X75049047Y-59507380D01*
X75191904Y-59459761D01*
X75239523Y-59412142D01*
X75239523Y-59078809D01*
X75049047Y-59078809D01*
X70199285Y-58602619D02*
X70246904Y-58555000D01*
X70342142Y-58507380D01*
X70580238Y-58507380D01*
X70675476Y-58555000D01*
X70723095Y-58602619D01*
X70770714Y-58697857D01*
X70770714Y-58793095D01*
X70723095Y-58935952D01*
X70151666Y-59507380D01*
X70770714Y-59507380D01*
X100568095Y-58507380D02*
X100091904Y-58507380D01*
X100044285Y-58983571D01*
X100091904Y-58935952D01*
X100187142Y-58888333D01*
X100425238Y-58888333D01*
X100520476Y-58935952D01*
X100568095Y-58983571D01*
X100615714Y-59078809D01*
X100615714Y-59316904D01*
X100568095Y-59412142D01*
X100520476Y-59459761D01*
X100425238Y-59507380D01*
X100187142Y-59507380D01*
X100091904Y-59459761D01*
X100044285Y-59412142D01*
X173368095Y-70126714D02*
X173330000Y-70164809D01*
X173215714Y-70202904D01*
X173139523Y-70202904D01*
X173025238Y-70164809D01*
X172949047Y-70088619D01*
X172910952Y-70012428D01*
X172872857Y-69860047D01*
X172872857Y-69745761D01*
X172910952Y-69593380D01*
X172949047Y-69517190D01*
X173025238Y-69441000D01*
X173139523Y-69402904D01*
X173215714Y-69402904D01*
X173330000Y-69441000D01*
X173368095Y-69479095D01*
X173825238Y-70202904D02*
X173749047Y-70164809D01*
X173710952Y-70126714D01*
X173672857Y-70050523D01*
X173672857Y-69821952D01*
X173710952Y-69745761D01*
X173749047Y-69707666D01*
X173825238Y-69669571D01*
X173939523Y-69669571D01*
X174015714Y-69707666D01*
X174053809Y-69745761D01*
X174091904Y-69821952D01*
X174091904Y-70050523D01*
X174053809Y-70126714D01*
X174015714Y-70164809D01*
X173939523Y-70202904D01*
X173825238Y-70202904D01*
X174434761Y-69669571D02*
X174434761Y-70202904D01*
X174434761Y-69745761D02*
X174472857Y-69707666D01*
X174549047Y-69669571D01*
X174663333Y-69669571D01*
X174739523Y-69707666D01*
X174777619Y-69783857D01*
X174777619Y-70202904D01*
X175158571Y-69669571D02*
X175158571Y-70202904D01*
X175158571Y-69745761D02*
X175196666Y-69707666D01*
X175272857Y-69669571D01*
X175387142Y-69669571D01*
X175463333Y-69707666D01*
X175501428Y-69783857D01*
X175501428Y-70202904D01*
X176187142Y-70164809D02*
X176110952Y-70202904D01*
X175958571Y-70202904D01*
X175882380Y-70164809D01*
X175844285Y-70088619D01*
X175844285Y-69783857D01*
X175882380Y-69707666D01*
X175958571Y-69669571D01*
X176110952Y-69669571D01*
X176187142Y-69707666D01*
X176225238Y-69783857D01*
X176225238Y-69860047D01*
X175844285Y-69936238D01*
X176910952Y-70164809D02*
X176834761Y-70202904D01*
X176682380Y-70202904D01*
X176606190Y-70164809D01*
X176568095Y-70126714D01*
X176530000Y-70050523D01*
X176530000Y-69821952D01*
X176568095Y-69745761D01*
X176606190Y-69707666D01*
X176682380Y-69669571D01*
X176834761Y-69669571D01*
X176910952Y-69707666D01*
X177139523Y-69669571D02*
X177444285Y-69669571D01*
X177253809Y-69402904D02*
X177253809Y-70088619D01*
X177291904Y-70164809D01*
X177368095Y-70202904D01*
X177444285Y-70202904D01*
X178739523Y-70202904D02*
X178282380Y-70202904D01*
X178510952Y-70202904D02*
X178510952Y-69402904D01*
X178434761Y-69517190D01*
X178358571Y-69593380D01*
X178282380Y-69631476D01*
X179044285Y-69479095D02*
X179082380Y-69441000D01*
X179158571Y-69402904D01*
X179349047Y-69402904D01*
X179425238Y-69441000D01*
X179463333Y-69479095D01*
X179501428Y-69555285D01*
X179501428Y-69631476D01*
X179463333Y-69745761D01*
X179006190Y-70202904D01*
X179501428Y-70202904D01*
X179730000Y-69402904D02*
X179996666Y-70202904D01*
X180263333Y-69402904D01*
X173482380Y-70957571D02*
X173787142Y-70957571D01*
X173596666Y-70690904D02*
X173596666Y-71376619D01*
X173634761Y-71452809D01*
X173710952Y-71490904D01*
X173787142Y-71490904D01*
X174168095Y-71490904D02*
X174091904Y-71452809D01*
X174053809Y-71414714D01*
X174015714Y-71338523D01*
X174015714Y-71109952D01*
X174053809Y-71033761D01*
X174091904Y-70995666D01*
X174168095Y-70957571D01*
X174282380Y-70957571D01*
X174358571Y-70995666D01*
X174396666Y-71033761D01*
X174434761Y-71109952D01*
X174434761Y-71338523D01*
X174396666Y-71414714D01*
X174358571Y-71452809D01*
X174282380Y-71490904D01*
X174168095Y-71490904D01*
X175349047Y-71262333D02*
X175730000Y-71262333D01*
X175272857Y-71490904D02*
X175539523Y-70690904D01*
X175806190Y-71490904D01*
X176072857Y-71490904D02*
X176072857Y-70957571D01*
X176072857Y-71109952D02*
X176110952Y-71033761D01*
X176149047Y-70995666D01*
X176225238Y-70957571D01*
X176301428Y-70957571D01*
X176910952Y-71490904D02*
X176910952Y-70690904D01*
X176910952Y-71452809D02*
X176834761Y-71490904D01*
X176682380Y-71490904D01*
X176606190Y-71452809D01*
X176568095Y-71414714D01*
X176530000Y-71338523D01*
X176530000Y-71109952D01*
X176568095Y-71033761D01*
X176606190Y-70995666D01*
X176682380Y-70957571D01*
X176834761Y-70957571D01*
X176910952Y-70995666D01*
X177634761Y-70957571D02*
X177634761Y-71490904D01*
X177291904Y-70957571D02*
X177291904Y-71376619D01*
X177330000Y-71452809D01*
X177406190Y-71490904D01*
X177520476Y-71490904D01*
X177596666Y-71452809D01*
X177634761Y-71414714D01*
X178015714Y-71490904D02*
X178015714Y-70957571D01*
X178015714Y-70690904D02*
X177977619Y-70729000D01*
X178015714Y-70767095D01*
X178053809Y-70729000D01*
X178015714Y-70690904D01*
X178015714Y-70767095D01*
X178396666Y-70957571D02*
X178396666Y-71490904D01*
X178396666Y-71033761D02*
X178434761Y-70995666D01*
X178510952Y-70957571D01*
X178625238Y-70957571D01*
X178701428Y-70995666D01*
X178739523Y-71071857D01*
X178739523Y-71490904D01*
X179234761Y-71490904D02*
X179158571Y-71452809D01*
X179120476Y-71414714D01*
X179082380Y-71338523D01*
X179082380Y-71109952D01*
X179120476Y-71033761D01*
X179158571Y-70995666D01*
X179234761Y-70957571D01*
X179349047Y-70957571D01*
X179425238Y-70995666D01*
X179463333Y-71033761D01*
X179501428Y-71109952D01*
X179501428Y-71338523D01*
X179463333Y-71414714D01*
X179425238Y-71452809D01*
X179349047Y-71490904D01*
X179234761Y-71490904D01*
X43688095Y-68871666D02*
X44164285Y-68871666D01*
X43592857Y-69157380D02*
X43926190Y-68157380D01*
X44259523Y-69157380D01*
X44735714Y-69157380D02*
X44640476Y-69109761D01*
X44592857Y-69014523D01*
X44592857Y-68157380D01*
X45259523Y-69157380D02*
X45164285Y-69109761D01*
X45116666Y-69014523D01*
X45116666Y-68157380D01*
X42688095Y-70386428D02*
X43450000Y-70386428D01*
X43069047Y-70767380D02*
X43069047Y-70005476D01*
X44450000Y-70767380D02*
X43878571Y-70767380D01*
X44164285Y-70767380D02*
X44164285Y-69767380D01*
X44069047Y-69910238D01*
X43973809Y-70005476D01*
X43878571Y-70053095D01*
X44830952Y-69862619D02*
X44878571Y-69815000D01*
X44973809Y-69767380D01*
X45211904Y-69767380D01*
X45307142Y-69815000D01*
X45354761Y-69862619D01*
X45402380Y-69957857D01*
X45402380Y-70053095D01*
X45354761Y-70195952D01*
X44783333Y-70767380D01*
X45402380Y-70767380D01*
X45688095Y-69767380D02*
X46021428Y-70767380D01*
X46354761Y-69767380D01*
X44211904Y-71996428D02*
X44973809Y-71996428D01*
X45450000Y-71710714D02*
X46211904Y-71996428D01*
X45450000Y-72282142D01*
X41592857Y-74368333D02*
X41545238Y-74320714D01*
X41450000Y-74177857D01*
X41402380Y-74082619D01*
X41354761Y-73939761D01*
X41307142Y-73701666D01*
X41307142Y-73511190D01*
X41354761Y-73273095D01*
X41402380Y-73130238D01*
X41450000Y-73035000D01*
X41545238Y-72892142D01*
X41592857Y-72844523D01*
X41830952Y-73320714D02*
X42211904Y-73320714D01*
X41973809Y-72987380D02*
X41973809Y-73844523D01*
X42021428Y-73939761D01*
X42116666Y-73987380D01*
X42211904Y-73987380D01*
X42688095Y-73987380D02*
X42592857Y-73939761D01*
X42545238Y-73892142D01*
X42497619Y-73796904D01*
X42497619Y-73511190D01*
X42545238Y-73415952D01*
X42592857Y-73368333D01*
X42688095Y-73320714D01*
X42830952Y-73320714D01*
X42926190Y-73368333D01*
X42973809Y-73415952D01*
X43021428Y-73511190D01*
X43021428Y-73796904D01*
X42973809Y-73892142D01*
X42926190Y-73939761D01*
X42830952Y-73987380D01*
X42688095Y-73987380D01*
X44783333Y-73892142D02*
X44735714Y-73939761D01*
X44592857Y-73987380D01*
X44497619Y-73987380D01*
X44354761Y-73939761D01*
X44259523Y-73844523D01*
X44211904Y-73749285D01*
X44164285Y-73558809D01*
X44164285Y-73415952D01*
X44211904Y-73225476D01*
X44259523Y-73130238D01*
X44354761Y-73035000D01*
X44497619Y-72987380D01*
X44592857Y-72987380D01*
X44735714Y-73035000D01*
X44783333Y-73082619D01*
X45402380Y-72987380D02*
X45592857Y-72987380D01*
X45688095Y-73035000D01*
X45783333Y-73130238D01*
X45830952Y-73320714D01*
X45830952Y-73654047D01*
X45783333Y-73844523D01*
X45688095Y-73939761D01*
X45592857Y-73987380D01*
X45402380Y-73987380D01*
X45307142Y-73939761D01*
X45211904Y-73844523D01*
X45164285Y-73654047D01*
X45164285Y-73320714D01*
X45211904Y-73130238D01*
X45307142Y-73035000D01*
X45402380Y-72987380D01*
X46259523Y-73987380D02*
X46259523Y-72987380D01*
X46592857Y-73701666D01*
X46926190Y-72987380D01*
X46926190Y-73987380D01*
X47307142Y-74368333D02*
X47354761Y-74320714D01*
X47450000Y-74177857D01*
X47497619Y-74082619D01*
X47545238Y-73939761D01*
X47592857Y-73701666D01*
X47592857Y-73511190D01*
X47545238Y-73273095D01*
X47497619Y-73130238D01*
X47450000Y-73035000D01*
X47354761Y-72892142D01*
X47307142Y-72844523D01*
X115831904Y-49665000D02*
X115736666Y-49617380D01*
X115593809Y-49617380D01*
X115450952Y-49665000D01*
X115355714Y-49760238D01*
X115308095Y-49855476D01*
X115260476Y-50045952D01*
X115260476Y-50188809D01*
X115308095Y-50379285D01*
X115355714Y-50474523D01*
X115450952Y-50569761D01*
X115593809Y-50617380D01*
X115689047Y-50617380D01*
X115831904Y-50569761D01*
X115879523Y-50522142D01*
X115879523Y-50188809D01*
X115689047Y-50188809D01*
X136151904Y-49665000D02*
X136056666Y-49617380D01*
X135913809Y-49617380D01*
X135770952Y-49665000D01*
X135675714Y-49760238D01*
X135628095Y-49855476D01*
X135580476Y-50045952D01*
X135580476Y-50188809D01*
X135628095Y-50379285D01*
X135675714Y-50474523D01*
X135770952Y-50569761D01*
X135913809Y-50617380D01*
X136009047Y-50617380D01*
X136151904Y-50569761D01*
X136199523Y-50522142D01*
X136199523Y-50188809D01*
X136009047Y-50188809D01*
X169974047Y-53475000D02*
X169878809Y-53427380D01*
X169735952Y-53427380D01*
X169593095Y-53475000D01*
X169497857Y-53570238D01*
X169450238Y-53665476D01*
X169402619Y-53855952D01*
X169402619Y-53998809D01*
X169450238Y-54189285D01*
X169497857Y-54284523D01*
X169593095Y-54379761D01*
X169735952Y-54427380D01*
X169831190Y-54427380D01*
X169974047Y-54379761D01*
X170021666Y-54332142D01*
X170021666Y-53998809D01*
X169831190Y-53998809D01*
X170450238Y-54427380D02*
X170450238Y-53427380D01*
X171021666Y-54427380D01*
X171021666Y-53427380D01*
X171497857Y-54427380D02*
X171497857Y-53427380D01*
X171735952Y-53427380D01*
X171878809Y-53475000D01*
X171974047Y-53570238D01*
X172021666Y-53665476D01*
X172069285Y-53855952D01*
X172069285Y-53998809D01*
X172021666Y-54189285D01*
X171974047Y-54284523D01*
X171878809Y-54379761D01*
X171735952Y-54427380D01*
X171497857Y-54427380D01*
X172545476Y-54379761D02*
X172545476Y-54427380D01*
X172497857Y-54522619D01*
X172450238Y-54570238D01*
X173735952Y-54046428D02*
X174497857Y-54046428D01*
X174116904Y-54427380D02*
X174116904Y-53665476D01*
X175497857Y-54427380D02*
X174926428Y-54427380D01*
X175212142Y-54427380D02*
X175212142Y-53427380D01*
X175116904Y-53570238D01*
X175021666Y-53665476D01*
X174926428Y-53713095D01*
X175878809Y-53522619D02*
X175926428Y-53475000D01*
X176021666Y-53427380D01*
X176259761Y-53427380D01*
X176355000Y-53475000D01*
X176402619Y-53522619D01*
X176450238Y-53617857D01*
X176450238Y-53713095D01*
X176402619Y-53855952D01*
X175831190Y-54427380D01*
X176450238Y-54427380D01*
X176735952Y-53427380D02*
X177069285Y-54427380D01*
X177402619Y-53427380D01*
X95511904Y-49665000D02*
X95416666Y-49617380D01*
X95273809Y-49617380D01*
X95130952Y-49665000D01*
X95035714Y-49760238D01*
X94988095Y-49855476D01*
X94940476Y-50045952D01*
X94940476Y-50188809D01*
X94988095Y-50379285D01*
X95035714Y-50474523D01*
X95130952Y-50569761D01*
X95273809Y-50617380D01*
X95369047Y-50617380D01*
X95511904Y-50569761D01*
X95559523Y-50522142D01*
X95559523Y-50188809D01*
X95369047Y-50188809D01*
X149479047Y-148859761D02*
X148336190Y-148859761D01*
X148907619Y-148859761D02*
X148907619Y-146859761D01*
X148717142Y-147145476D01*
X148526666Y-147335952D01*
X148336190Y-147431190D01*
X150717142Y-146859761D02*
X150907619Y-146859761D01*
X151098095Y-146955000D01*
X151193333Y-147050238D01*
X151288571Y-147240714D01*
X151383809Y-147621666D01*
X151383809Y-148097857D01*
X151288571Y-148478809D01*
X151193333Y-148669285D01*
X151098095Y-148764523D01*
X150907619Y-148859761D01*
X150717142Y-148859761D01*
X150526666Y-148764523D01*
X150431428Y-148669285D01*
X150336190Y-148478809D01*
X150240952Y-148097857D01*
X150240952Y-147621666D01*
X150336190Y-147240714D01*
X150431428Y-147050238D01*
X150526666Y-146955000D01*
X150717142Y-146859761D01*
X129349523Y-147716904D02*
X129159047Y-147621666D01*
X129063809Y-147526428D01*
X128968571Y-147335952D01*
X128968571Y-147240714D01*
X129063809Y-147050238D01*
X129159047Y-146955000D01*
X129349523Y-146859761D01*
X129730476Y-146859761D01*
X129920952Y-146955000D01*
X130016190Y-147050238D01*
X130111428Y-147240714D01*
X130111428Y-147335952D01*
X130016190Y-147526428D01*
X129920952Y-147621666D01*
X129730476Y-147716904D01*
X129349523Y-147716904D01*
X129159047Y-147812142D01*
X129063809Y-147907380D01*
X128968571Y-148097857D01*
X128968571Y-148478809D01*
X129063809Y-148669285D01*
X129159047Y-148764523D01*
X129349523Y-148859761D01*
X129730476Y-148859761D01*
X129920952Y-148764523D01*
X130016190Y-148669285D01*
X130111428Y-148478809D01*
X130111428Y-148097857D01*
X130016190Y-147907380D01*
X129920952Y-147812142D01*
X129730476Y-147716904D01*
X146311904Y-49665000D02*
X146216666Y-49617380D01*
X146073809Y-49617380D01*
X145930952Y-49665000D01*
X145835714Y-49760238D01*
X145788095Y-49855476D01*
X145740476Y-50045952D01*
X145740476Y-50188809D01*
X145788095Y-50379285D01*
X145835714Y-50474523D01*
X145930952Y-50569761D01*
X146073809Y-50617380D01*
X146169047Y-50617380D01*
X146311904Y-50569761D01*
X146359523Y-50522142D01*
X146359523Y-50188809D01*
X146169047Y-50188809D01*
X90360476Y-49950714D02*
X90360476Y-50617380D01*
X90122380Y-49569761D02*
X89884285Y-50284047D01*
X90503333Y-50284047D01*
X240058333Y-115617142D02*
X240010714Y-115664761D01*
X239867857Y-115760000D01*
X239772619Y-115807619D01*
X239629761Y-115855238D01*
X239391666Y-115902857D01*
X239201190Y-115902857D01*
X238963095Y-115855238D01*
X238820238Y-115807619D01*
X238725000Y-115760000D01*
X238582142Y-115664761D01*
X238534523Y-115617142D01*
X238677380Y-115331428D02*
X238677380Y-114712380D01*
X239058333Y-115045714D01*
X239058333Y-114902857D01*
X239105952Y-114807619D01*
X239153571Y-114760000D01*
X239248809Y-114712380D01*
X239486904Y-114712380D01*
X239582142Y-114760000D01*
X239629761Y-114807619D01*
X239677380Y-114902857D01*
X239677380Y-115188571D01*
X239629761Y-115283809D01*
X239582142Y-115331428D01*
X240058333Y-114379047D02*
X240010714Y-114331428D01*
X239867857Y-114236190D01*
X239772619Y-114188571D01*
X239629761Y-114140952D01*
X239391666Y-114093333D01*
X239201190Y-114093333D01*
X238963095Y-114140952D01*
X238820238Y-114188571D01*
X238725000Y-114236190D01*
X238582142Y-114331428D01*
X238534523Y-114379047D01*
X239677380Y-113617142D02*
X238677380Y-113617142D01*
X239153571Y-113617142D02*
X239153571Y-113045714D01*
X239677380Y-113045714D02*
X238677380Y-113045714D01*
X239677380Y-112569523D02*
X239010714Y-112569523D01*
X238677380Y-112569523D02*
X238725000Y-112617142D01*
X238772619Y-112569523D01*
X238725000Y-112521904D01*
X238677380Y-112569523D01*
X238772619Y-112569523D01*
X239629761Y-111379047D02*
X239677380Y-111236190D01*
X239677380Y-110998095D01*
X239629761Y-110902857D01*
X239582142Y-110855238D01*
X239486904Y-110807619D01*
X239391666Y-110807619D01*
X239296428Y-110855238D01*
X239248809Y-110902857D01*
X239201190Y-110998095D01*
X239153571Y-111188571D01*
X239105952Y-111283809D01*
X239058333Y-111331428D01*
X238963095Y-111379047D01*
X238867857Y-111379047D01*
X238772619Y-111331428D01*
X238725000Y-111283809D01*
X238677380Y-111188571D01*
X238677380Y-110950476D01*
X238725000Y-110807619D01*
X239629761Y-109950476D02*
X239677380Y-110045714D01*
X239677380Y-110236190D01*
X239629761Y-110331428D01*
X239582142Y-110379047D01*
X239486904Y-110426666D01*
X239201190Y-110426666D01*
X239105952Y-110379047D01*
X239058333Y-110331428D01*
X239010714Y-110236190D01*
X239010714Y-110045714D01*
X239058333Y-109950476D01*
X239677380Y-109379047D02*
X239629761Y-109474285D01*
X239582142Y-109521904D01*
X239486904Y-109569523D01*
X239201190Y-109569523D01*
X239105952Y-109521904D01*
X239058333Y-109474285D01*
X239010714Y-109379047D01*
X239010714Y-109236190D01*
X239058333Y-109140952D01*
X239105952Y-109093333D01*
X239201190Y-109045714D01*
X239486904Y-109045714D01*
X239582142Y-109093333D01*
X239629761Y-109140952D01*
X239677380Y-109236190D01*
X239677380Y-109379047D01*
X239677380Y-108617142D02*
X239010714Y-108617142D01*
X239201190Y-108617142D02*
X239105952Y-108569523D01*
X239058333Y-108521904D01*
X239010714Y-108426666D01*
X239010714Y-108331428D01*
X239629761Y-107617142D02*
X239677380Y-107712380D01*
X239677380Y-107902857D01*
X239629761Y-107998095D01*
X239534523Y-108045714D01*
X239153571Y-108045714D01*
X239058333Y-107998095D01*
X239010714Y-107902857D01*
X239010714Y-107712380D01*
X239058333Y-107617142D01*
X239153571Y-107569523D01*
X239248809Y-107569523D01*
X239344047Y-108045714D01*
X241192142Y-116760000D02*
X241239761Y-116807619D01*
X241287380Y-116950476D01*
X241287380Y-117045714D01*
X241239761Y-117188571D01*
X241144523Y-117283809D01*
X241049285Y-117331428D01*
X240858809Y-117379047D01*
X240715952Y-117379047D01*
X240525476Y-117331428D01*
X240430238Y-117283809D01*
X240335000Y-117188571D01*
X240287380Y-117045714D01*
X240287380Y-116950476D01*
X240335000Y-116807619D01*
X240382619Y-116760000D01*
X241287380Y-115855238D02*
X241287380Y-116331428D01*
X240287380Y-116331428D01*
X241287380Y-115521904D02*
X240287380Y-115521904D01*
X241287380Y-114950476D02*
X240715952Y-115379047D01*
X240287380Y-114950476D02*
X240858809Y-115521904D01*
X241239761Y-114474285D02*
X241287380Y-114474285D01*
X241382619Y-114521904D01*
X241430238Y-114569523D01*
X241287380Y-114045714D02*
X240287380Y-114045714D01*
X240287380Y-113807619D01*
X240335000Y-113664761D01*
X240430238Y-113569523D01*
X240525476Y-113521904D01*
X240715952Y-113474285D01*
X240858809Y-113474285D01*
X241049285Y-113521904D01*
X241144523Y-113569523D01*
X241239761Y-113664761D01*
X241287380Y-113807619D01*
X241287380Y-114045714D01*
X241287380Y-113045714D02*
X240287380Y-113045714D01*
X240287380Y-112379047D02*
X240287380Y-112188571D01*
X240335000Y-112093333D01*
X240430238Y-111998095D01*
X240620714Y-111950476D01*
X240954047Y-111950476D01*
X241144523Y-111998095D01*
X241239761Y-112093333D01*
X241287380Y-112188571D01*
X241287380Y-112379047D01*
X241239761Y-112474285D01*
X241144523Y-112569523D01*
X240954047Y-112617142D01*
X240620714Y-112617142D01*
X240430238Y-112569523D01*
X240335000Y-112474285D01*
X240287380Y-112379047D01*
X241239761Y-111474285D02*
X241287380Y-111474285D01*
X241382619Y-111521904D01*
X241430238Y-111569523D01*
X240287380Y-110569523D02*
X240287380Y-111045714D01*
X240763571Y-111093333D01*
X240715952Y-111045714D01*
X240668333Y-110950476D01*
X240668333Y-110712380D01*
X240715952Y-110617142D01*
X240763571Y-110569523D01*
X240858809Y-110521904D01*
X241096904Y-110521904D01*
X241192142Y-110569523D01*
X241239761Y-110617142D01*
X241287380Y-110712380D01*
X241287380Y-110950476D01*
X241239761Y-111045714D01*
X241192142Y-111093333D01*
X240287380Y-110236190D02*
X241287380Y-109902857D01*
X240287380Y-109569523D01*
X241239761Y-109188571D02*
X241287380Y-109188571D01*
X241382619Y-109236190D01*
X241430238Y-109283809D01*
X240335000Y-108236190D02*
X240287380Y-108331428D01*
X240287380Y-108474285D01*
X240335000Y-108617142D01*
X240430238Y-108712380D01*
X240525476Y-108760000D01*
X240715952Y-108807619D01*
X240858809Y-108807619D01*
X241049285Y-108760000D01*
X241144523Y-108712380D01*
X241239761Y-108617142D01*
X241287380Y-108474285D01*
X241287380Y-108379047D01*
X241239761Y-108236190D01*
X241192142Y-108188571D01*
X240858809Y-108188571D01*
X240858809Y-108379047D01*
X241287380Y-107760000D02*
X240287380Y-107760000D01*
X241287380Y-107188571D01*
X240287380Y-107188571D01*
X241287380Y-106712380D02*
X240287380Y-106712380D01*
X240287380Y-106474285D01*
X240335000Y-106331428D01*
X240430238Y-106236190D01*
X240525476Y-106188571D01*
X240715952Y-106140952D01*
X240858809Y-106140952D01*
X241049285Y-106188571D01*
X241144523Y-106236190D01*
X241239761Y-106331428D01*
X241287380Y-106474285D01*
X241287380Y-106712380D01*
X150939523Y-50617380D02*
X150368095Y-50617380D01*
X150653809Y-50617380D02*
X150653809Y-49617380D01*
X150558571Y-49760238D01*
X150463333Y-49855476D01*
X150368095Y-49903095D01*
X151558571Y-49617380D02*
X151653809Y-49617380D01*
X151749047Y-49665000D01*
X151796666Y-49712619D01*
X151844285Y-49807857D01*
X151891904Y-49998333D01*
X151891904Y-50236428D01*
X151844285Y-50426904D01*
X151796666Y-50522142D01*
X151749047Y-50569761D01*
X151653809Y-50617380D01*
X151558571Y-50617380D01*
X151463333Y-50569761D01*
X151415714Y-50522142D01*
X151368095Y-50426904D01*
X151320476Y-50236428D01*
X151320476Y-49998333D01*
X151368095Y-49807857D01*
X151415714Y-49712619D01*
X151463333Y-49665000D01*
X151558571Y-49617380D01*
X155131428Y-50585714D02*
X154369523Y-50871428D01*
X155131428Y-51157142D01*
X155607619Y-50871428D02*
X156369523Y-50871428D01*
X156798095Y-51204761D02*
X156940952Y-51252380D01*
X157179047Y-51252380D01*
X157274285Y-51204761D01*
X157321904Y-51157142D01*
X157369523Y-51061904D01*
X157369523Y-50966666D01*
X157321904Y-50871428D01*
X157274285Y-50823809D01*
X157179047Y-50776190D01*
X156988571Y-50728571D01*
X156893333Y-50680952D01*
X156845714Y-50633333D01*
X156798095Y-50538095D01*
X156798095Y-50442857D01*
X156845714Y-50347619D01*
X156893333Y-50300000D01*
X156988571Y-50252380D01*
X157226666Y-50252380D01*
X157369523Y-50300000D01*
X157702857Y-50585714D02*
X157893333Y-51252380D01*
X158083809Y-50776190D01*
X158274285Y-51252380D01*
X158464761Y-50585714D01*
X158845714Y-51252380D02*
X158845714Y-50585714D01*
X158845714Y-50252380D02*
X158798095Y-50300000D01*
X158845714Y-50347619D01*
X158893333Y-50300000D01*
X158845714Y-50252380D01*
X158845714Y-50347619D01*
X159179047Y-50585714D02*
X159560000Y-50585714D01*
X159321904Y-50252380D02*
X159321904Y-51109523D01*
X159369523Y-51204761D01*
X159464761Y-51252380D01*
X159560000Y-51252380D01*
X160321904Y-51204761D02*
X160226666Y-51252380D01*
X160036190Y-51252380D01*
X159940952Y-51204761D01*
X159893333Y-51157142D01*
X159845714Y-51061904D01*
X159845714Y-50776190D01*
X159893333Y-50680952D01*
X159940952Y-50633333D01*
X160036190Y-50585714D01*
X160226666Y-50585714D01*
X160321904Y-50633333D01*
X160750476Y-51252380D02*
X160750476Y-50252380D01*
X161179047Y-51252380D02*
X161179047Y-50728571D01*
X161131428Y-50633333D01*
X161036190Y-50585714D01*
X160893333Y-50585714D01*
X160798095Y-50633333D01*
X160750476Y-50680952D01*
X162036190Y-51204761D02*
X161940952Y-51252380D01*
X161750476Y-51252380D01*
X161655238Y-51204761D01*
X161607619Y-51109523D01*
X161607619Y-50728571D01*
X161655238Y-50633333D01*
X161750476Y-50585714D01*
X161940952Y-50585714D01*
X162036190Y-50633333D01*
X162083809Y-50728571D01*
X162083809Y-50823809D01*
X161607619Y-50919047D01*
X162464761Y-51204761D02*
X162560000Y-51252380D01*
X162750476Y-51252380D01*
X162845714Y-51204761D01*
X162893333Y-51109523D01*
X162893333Y-51061904D01*
X162845714Y-50966666D01*
X162750476Y-50919047D01*
X162607619Y-50919047D01*
X162512380Y-50871428D01*
X162464761Y-50776190D01*
X162464761Y-50728571D01*
X162512380Y-50633333D01*
X162607619Y-50585714D01*
X162750476Y-50585714D01*
X162845714Y-50633333D01*
X164369523Y-51633333D02*
X164321904Y-51585714D01*
X164226666Y-51442857D01*
X164179047Y-51347619D01*
X164131428Y-51204761D01*
X164083809Y-50966666D01*
X164083809Y-50776190D01*
X164131428Y-50538095D01*
X164179047Y-50395238D01*
X164226666Y-50300000D01*
X164321904Y-50157142D01*
X164369523Y-50109523D01*
X164750476Y-50871428D02*
X165512380Y-50871428D01*
X166036190Y-51204761D02*
X166036190Y-51252380D01*
X165988571Y-51347619D01*
X165940952Y-51395238D01*
X166988571Y-51252380D02*
X166417142Y-51252380D01*
X166702857Y-51252380D02*
X166702857Y-50252380D01*
X166607619Y-50395238D01*
X166512380Y-50490476D01*
X166417142Y-50538095D01*
X167464761Y-51204761D02*
X167464761Y-51252380D01*
X167417142Y-51347619D01*
X167369523Y-51395238D01*
X167893333Y-50871428D02*
X168655238Y-50871428D01*
X169179047Y-51204761D02*
X169179047Y-51252380D01*
X169131428Y-51347619D01*
X169083809Y-51395238D01*
X169560000Y-50347619D02*
X169607619Y-50300000D01*
X169702857Y-50252380D01*
X169940952Y-50252380D01*
X170036190Y-50300000D01*
X170083809Y-50347619D01*
X170131428Y-50442857D01*
X170131428Y-50538095D01*
X170083809Y-50680952D01*
X169512380Y-51252380D01*
X170131428Y-51252380D01*
X170464761Y-51633333D02*
X170512380Y-51585714D01*
X170607619Y-51442857D01*
X170655238Y-51347619D01*
X170702857Y-51204761D01*
X170750476Y-50966666D01*
X170750476Y-50776190D01*
X170702857Y-50538095D01*
X170655238Y-50395238D01*
X170607619Y-50300000D01*
X170512380Y-50157142D01*
X170464761Y-50109523D01*
X109600952Y-146859761D02*
X109220000Y-146859761D01*
X109029523Y-146955000D01*
X108934285Y-147050238D01*
X108743809Y-147335952D01*
X108648571Y-147716904D01*
X108648571Y-148478809D01*
X108743809Y-148669285D01*
X108839047Y-148764523D01*
X109029523Y-148859761D01*
X109410476Y-148859761D01*
X109600952Y-148764523D01*
X109696190Y-148669285D01*
X109791428Y-148478809D01*
X109791428Y-148002619D01*
X109696190Y-147812142D01*
X109600952Y-147716904D01*
X109410476Y-147621666D01*
X109029523Y-147621666D01*
X108839047Y-147716904D01*
X108743809Y-147812142D01*
X108648571Y-148002619D01*
X89280952Y-147526428D02*
X89280952Y-148859761D01*
X88804761Y-146764523D02*
X88328571Y-148193095D01*
X89566666Y-148193095D01*
X78073333Y-146859761D02*
X79311428Y-146859761D01*
X78644761Y-147621666D01*
X78930476Y-147621666D01*
X79120952Y-147716904D01*
X79216190Y-147812142D01*
X79311428Y-148002619D01*
X79311428Y-148478809D01*
X79216190Y-148669285D01*
X79120952Y-148764523D01*
X78930476Y-148859761D01*
X78359047Y-148859761D01*
X78168571Y-148764523D01*
X78073333Y-148669285D01*
X68008571Y-147050238D02*
X68103809Y-146955000D01*
X68294285Y-146859761D01*
X68770476Y-146859761D01*
X68960952Y-146955000D01*
X69056190Y-147050238D01*
X69151428Y-147240714D01*
X69151428Y-147431190D01*
X69056190Y-147716904D01*
X67913333Y-148859761D01*
X69151428Y-148859761D01*
X85351904Y-49665000D02*
X85256666Y-49617380D01*
X85113809Y-49617380D01*
X84970952Y-49665000D01*
X84875714Y-49760238D01*
X84828095Y-49855476D01*
X84780476Y-50045952D01*
X84780476Y-50188809D01*
X84828095Y-50379285D01*
X84875714Y-50474523D01*
X84970952Y-50569761D01*
X85113809Y-50617380D01*
X85209047Y-50617380D01*
X85351904Y-50569761D01*
X85399523Y-50522142D01*
X85399523Y-50188809D01*
X85209047Y-50188809D01*
X159020238Y-53475000D02*
X158925000Y-53427380D01*
X158782142Y-53427380D01*
X158639285Y-53475000D01*
X158544047Y-53570238D01*
X158496428Y-53665476D01*
X158448809Y-53855952D01*
X158448809Y-53998809D01*
X158496428Y-54189285D01*
X158544047Y-54284523D01*
X158639285Y-54379761D01*
X158782142Y-54427380D01*
X158877380Y-54427380D01*
X159020238Y-54379761D01*
X159067857Y-54332142D01*
X159067857Y-53998809D01*
X158877380Y-53998809D01*
X159496428Y-54427380D02*
X159496428Y-53427380D01*
X160067857Y-54427380D01*
X160067857Y-53427380D01*
X160544047Y-54427380D02*
X160544047Y-53427380D01*
X160782142Y-53427380D01*
X160925000Y-53475000D01*
X161020238Y-53570238D01*
X161067857Y-53665476D01*
X161115476Y-53855952D01*
X161115476Y-53998809D01*
X161067857Y-54189285D01*
X161020238Y-54284523D01*
X160925000Y-54379761D01*
X160782142Y-54427380D01*
X160544047Y-54427380D01*
X161591666Y-54379761D02*
X161591666Y-54427380D01*
X161544047Y-54522619D01*
X161496428Y-54570238D01*
X162782142Y-54046428D02*
X163544047Y-54046428D01*
X163163095Y-54427380D02*
X163163095Y-53665476D01*
X164496428Y-53427380D02*
X164020238Y-53427380D01*
X163972619Y-53903571D01*
X164020238Y-53855952D01*
X164115476Y-53808333D01*
X164353571Y-53808333D01*
X164448809Y-53855952D01*
X164496428Y-53903571D01*
X164544047Y-53998809D01*
X164544047Y-54236904D01*
X164496428Y-54332142D01*
X164448809Y-54379761D01*
X164353571Y-54427380D01*
X164115476Y-54427380D01*
X164020238Y-54379761D01*
X163972619Y-54332142D01*
X164829761Y-53427380D02*
X165163095Y-54427380D01*
X165496428Y-53427380D01*
X120316666Y-49617380D02*
X120983333Y-49617380D01*
X120554761Y-50617380D01*
X70199285Y-49712619D02*
X70246904Y-49665000D01*
X70342142Y-49617380D01*
X70580238Y-49617380D01*
X70675476Y-49665000D01*
X70723095Y-49712619D01*
X70770714Y-49807857D01*
X70770714Y-49903095D01*
X70723095Y-50045952D01*
X70151666Y-50617380D01*
X70770714Y-50617380D01*
X240058333Y-99607142D02*
X240010714Y-99654761D01*
X239867857Y-99750000D01*
X239772619Y-99797619D01*
X239629761Y-99845238D01*
X239391666Y-99892857D01*
X239201190Y-99892857D01*
X238963095Y-99845238D01*
X238820238Y-99797619D01*
X238725000Y-99750000D01*
X238582142Y-99654761D01*
X238534523Y-99607142D01*
X238772619Y-99273809D02*
X238725000Y-99226190D01*
X238677380Y-99130952D01*
X238677380Y-98892857D01*
X238725000Y-98797619D01*
X238772619Y-98750000D01*
X238867857Y-98702380D01*
X238963095Y-98702380D01*
X239105952Y-98750000D01*
X239677380Y-99321428D01*
X239677380Y-98702380D01*
X240058333Y-98369047D02*
X240010714Y-98321428D01*
X239867857Y-98226190D01*
X239772619Y-98178571D01*
X239629761Y-98130952D01*
X239391666Y-98083333D01*
X239201190Y-98083333D01*
X238963095Y-98130952D01*
X238820238Y-98178571D01*
X238725000Y-98226190D01*
X238582142Y-98321428D01*
X238534523Y-98369047D01*
X239582142Y-97035714D02*
X239629761Y-97083333D01*
X239677380Y-97226190D01*
X239677380Y-97321428D01*
X239629761Y-97464285D01*
X239534523Y-97559523D01*
X239439285Y-97607142D01*
X239248809Y-97654761D01*
X239105952Y-97654761D01*
X238915476Y-97607142D01*
X238820238Y-97559523D01*
X238725000Y-97464285D01*
X238677380Y-97321428D01*
X238677380Y-97226190D01*
X238725000Y-97083333D01*
X238772619Y-97035714D01*
X239010714Y-96178571D02*
X239677380Y-96178571D01*
X239010714Y-96607142D02*
X239534523Y-96607142D01*
X239629761Y-96559523D01*
X239677380Y-96464285D01*
X239677380Y-96321428D01*
X239629761Y-96226190D01*
X239582142Y-96178571D01*
X239677380Y-95702380D02*
X239010714Y-95702380D01*
X239201190Y-95702380D02*
X239105952Y-95654761D01*
X239058333Y-95607142D01*
X239010714Y-95511904D01*
X239010714Y-95416666D01*
X239629761Y-94369047D02*
X239677380Y-94226190D01*
X239677380Y-93988095D01*
X239629761Y-93892857D01*
X239582142Y-93845238D01*
X239486904Y-93797619D01*
X239391666Y-93797619D01*
X239296428Y-93845238D01*
X239248809Y-93892857D01*
X239201190Y-93988095D01*
X239153571Y-94178571D01*
X239105952Y-94273809D01*
X239058333Y-94321428D01*
X238963095Y-94369047D01*
X238867857Y-94369047D01*
X238772619Y-94321428D01*
X238725000Y-94273809D01*
X238677380Y-94178571D01*
X238677380Y-93940476D01*
X238725000Y-93797619D01*
X239629761Y-92940476D02*
X239677380Y-93035714D01*
X239677380Y-93226190D01*
X239629761Y-93321428D01*
X239582142Y-93369047D01*
X239486904Y-93416666D01*
X239201190Y-93416666D01*
X239105952Y-93369047D01*
X239058333Y-93321428D01*
X239010714Y-93226190D01*
X239010714Y-93035714D01*
X239058333Y-92940476D01*
X239677380Y-92369047D02*
X239629761Y-92464285D01*
X239582142Y-92511904D01*
X239486904Y-92559523D01*
X239201190Y-92559523D01*
X239105952Y-92511904D01*
X239058333Y-92464285D01*
X239010714Y-92369047D01*
X239010714Y-92226190D01*
X239058333Y-92130952D01*
X239105952Y-92083333D01*
X239201190Y-92035714D01*
X239486904Y-92035714D01*
X239582142Y-92083333D01*
X239629761Y-92130952D01*
X239677380Y-92226190D01*
X239677380Y-92369047D01*
X239677380Y-91607142D02*
X239010714Y-91607142D01*
X239201190Y-91607142D02*
X239105952Y-91559523D01*
X239058333Y-91511904D01*
X239010714Y-91416666D01*
X239010714Y-91321428D01*
X239629761Y-90607142D02*
X239677380Y-90702380D01*
X239677380Y-90892857D01*
X239629761Y-90988095D01*
X239534523Y-91035714D01*
X239153571Y-91035714D01*
X239058333Y-90988095D01*
X239010714Y-90892857D01*
X239010714Y-90702380D01*
X239058333Y-90607142D01*
X239153571Y-90559523D01*
X239248809Y-90559523D01*
X239344047Y-91035714D01*
X241192142Y-100250000D02*
X241239761Y-100297619D01*
X241287380Y-100440476D01*
X241287380Y-100535714D01*
X241239761Y-100678571D01*
X241144523Y-100773809D01*
X241049285Y-100821428D01*
X240858809Y-100869047D01*
X240715952Y-100869047D01*
X240525476Y-100821428D01*
X240430238Y-100773809D01*
X240335000Y-100678571D01*
X240287380Y-100535714D01*
X240287380Y-100440476D01*
X240335000Y-100297619D01*
X240382619Y-100250000D01*
X241287380Y-99345238D02*
X241287380Y-99821428D01*
X240287380Y-99821428D01*
X241287380Y-99011904D02*
X240287380Y-99011904D01*
X241287380Y-98440476D02*
X240715952Y-98869047D01*
X240287380Y-98440476D02*
X240858809Y-99011904D01*
X241239761Y-97964285D02*
X241287380Y-97964285D01*
X241382619Y-98011904D01*
X241430238Y-98059523D01*
X241287380Y-97535714D02*
X240287380Y-97535714D01*
X240287380Y-97297619D01*
X240335000Y-97154761D01*
X240430238Y-97059523D01*
X240525476Y-97011904D01*
X240715952Y-96964285D01*
X240858809Y-96964285D01*
X241049285Y-97011904D01*
X241144523Y-97059523D01*
X241239761Y-97154761D01*
X241287380Y-97297619D01*
X241287380Y-97535714D01*
X241287380Y-96535714D02*
X240287380Y-96535714D01*
X240287380Y-95869047D02*
X240287380Y-95678571D01*
X240335000Y-95583333D01*
X240430238Y-95488095D01*
X240620714Y-95440476D01*
X240954047Y-95440476D01*
X241144523Y-95488095D01*
X241239761Y-95583333D01*
X241287380Y-95678571D01*
X241287380Y-95869047D01*
X241239761Y-95964285D01*
X241144523Y-96059523D01*
X240954047Y-96107142D01*
X240620714Y-96107142D01*
X240430238Y-96059523D01*
X240335000Y-95964285D01*
X240287380Y-95869047D01*
X241239761Y-94964285D02*
X241287380Y-94964285D01*
X241382619Y-95011904D01*
X241430238Y-95059523D01*
X240287380Y-94059523D02*
X240287380Y-94535714D01*
X240763571Y-94583333D01*
X240715952Y-94535714D01*
X240668333Y-94440476D01*
X240668333Y-94202380D01*
X240715952Y-94107142D01*
X240763571Y-94059523D01*
X240858809Y-94011904D01*
X241096904Y-94011904D01*
X241192142Y-94059523D01*
X241239761Y-94107142D01*
X241287380Y-94202380D01*
X241287380Y-94440476D01*
X241239761Y-94535714D01*
X241192142Y-94583333D01*
X240287380Y-93726190D02*
X241287380Y-93392857D01*
X240287380Y-93059523D01*
X241239761Y-92678571D02*
X241287380Y-92678571D01*
X241382619Y-92726190D01*
X241430238Y-92773809D01*
X240335000Y-91726190D02*
X240287380Y-91821428D01*
X240287380Y-91964285D01*
X240335000Y-92107142D01*
X240430238Y-92202380D01*
X240525476Y-92250000D01*
X240715952Y-92297619D01*
X240858809Y-92297619D01*
X241049285Y-92250000D01*
X241144523Y-92202380D01*
X241239761Y-92107142D01*
X241287380Y-91964285D01*
X241287380Y-91869047D01*
X241239761Y-91726190D01*
X241192142Y-91678571D01*
X240858809Y-91678571D01*
X240858809Y-91869047D01*
X241287380Y-91250000D02*
X240287380Y-91250000D01*
X241287380Y-90678571D01*
X240287380Y-90678571D01*
X241287380Y-90202380D02*
X240287380Y-90202380D01*
X240287380Y-89964285D01*
X240335000Y-89821428D01*
X240430238Y-89726190D01*
X240525476Y-89678571D01*
X240715952Y-89630952D01*
X240858809Y-89630952D01*
X241049285Y-89678571D01*
X241144523Y-89726190D01*
X241239761Y-89821428D01*
X241287380Y-89964285D01*
X241287380Y-90202380D01*
X58991428Y-148859761D02*
X57848571Y-148859761D01*
X58420000Y-148859761D02*
X58420000Y-146859761D01*
X58229523Y-147145476D01*
X58039047Y-147335952D01*
X57848571Y-147431190D01*
X110680476Y-49617380D02*
X110490000Y-49617380D01*
X110394761Y-49665000D01*
X110347142Y-49712619D01*
X110251904Y-49855476D01*
X110204285Y-50045952D01*
X110204285Y-50426904D01*
X110251904Y-50522142D01*
X110299523Y-50569761D01*
X110394761Y-50617380D01*
X110585238Y-50617380D01*
X110680476Y-50569761D01*
X110728095Y-50522142D01*
X110775714Y-50426904D01*
X110775714Y-50188809D01*
X110728095Y-50093571D01*
X110680476Y-50045952D01*
X110585238Y-49998333D01*
X110394761Y-49998333D01*
X110299523Y-50045952D01*
X110251904Y-50093571D01*
X110204285Y-50188809D01*
X54871904Y-49665000D02*
X54776666Y-49617380D01*
X54633809Y-49617380D01*
X54490952Y-49665000D01*
X54395714Y-49760238D01*
X54348095Y-49855476D01*
X54300476Y-50045952D01*
X54300476Y-50188809D01*
X54348095Y-50379285D01*
X54395714Y-50474523D01*
X54490952Y-50569761D01*
X54633809Y-50617380D01*
X54729047Y-50617380D01*
X54871904Y-50569761D01*
X54919523Y-50522142D01*
X54919523Y-50188809D01*
X54729047Y-50188809D01*
X118713333Y-146859761D02*
X120046666Y-146859761D01*
X119189523Y-148859761D01*
X100568095Y-49617380D02*
X100091904Y-49617380D01*
X100044285Y-50093571D01*
X100091904Y-50045952D01*
X100187142Y-49998333D01*
X100425238Y-49998333D01*
X100520476Y-50045952D01*
X100568095Y-50093571D01*
X100615714Y-50188809D01*
X100615714Y-50426904D01*
X100568095Y-50522142D01*
X100520476Y-50569761D01*
X100425238Y-50617380D01*
X100187142Y-50617380D01*
X100091904Y-50569761D01*
X100044285Y-50522142D01*
X240058333Y-83319523D02*
X240010714Y-83367142D01*
X239867857Y-83462380D01*
X239772619Y-83510000D01*
X239629761Y-83557619D01*
X239391666Y-83605238D01*
X239201190Y-83605238D01*
X238963095Y-83557619D01*
X238820238Y-83510000D01*
X238725000Y-83462380D01*
X238582142Y-83367142D01*
X238534523Y-83319523D01*
X239677380Y-82414761D02*
X239677380Y-82986190D01*
X239677380Y-82700476D02*
X238677380Y-82700476D01*
X238820238Y-82795714D01*
X238915476Y-82890952D01*
X238963095Y-82986190D01*
X240058333Y-82081428D02*
X240010714Y-82033809D01*
X239867857Y-81938571D01*
X239772619Y-81890952D01*
X239629761Y-81843333D01*
X239391666Y-81795714D01*
X239201190Y-81795714D01*
X238963095Y-81843333D01*
X238820238Y-81890952D01*
X238725000Y-81938571D01*
X238582142Y-82033809D01*
X238534523Y-82081428D01*
X239677380Y-81319523D02*
X238677380Y-81319523D01*
X238677380Y-81081428D01*
X238725000Y-80938571D01*
X238820238Y-80843333D01*
X238915476Y-80795714D01*
X239105952Y-80748095D01*
X239248809Y-80748095D01*
X239439285Y-80795714D01*
X239534523Y-80843333D01*
X239629761Y-80938571D01*
X239677380Y-81081428D01*
X239677380Y-81319523D01*
X239677380Y-80319523D02*
X239010714Y-80319523D01*
X238677380Y-80319523D02*
X238725000Y-80367142D01*
X238772619Y-80319523D01*
X238725000Y-80271904D01*
X238677380Y-80319523D01*
X238772619Y-80319523D01*
X239629761Y-79890952D02*
X239677380Y-79795714D01*
X239677380Y-79605238D01*
X239629761Y-79510000D01*
X239534523Y-79462380D01*
X239486904Y-79462380D01*
X239391666Y-79510000D01*
X239344047Y-79605238D01*
X239344047Y-79748095D01*
X239296428Y-79843333D01*
X239201190Y-79890952D01*
X239153571Y-79890952D01*
X239058333Y-79843333D01*
X239010714Y-79748095D01*
X239010714Y-79605238D01*
X239058333Y-79510000D01*
X239010714Y-79033809D02*
X240010714Y-79033809D01*
X239058333Y-79033809D02*
X239010714Y-78938571D01*
X239010714Y-78748095D01*
X239058333Y-78652857D01*
X239105952Y-78605238D01*
X239201190Y-78557619D01*
X239486904Y-78557619D01*
X239582142Y-78605238D01*
X239629761Y-78652857D01*
X239677380Y-78748095D01*
X239677380Y-78938571D01*
X239629761Y-79033809D01*
X239677380Y-77986190D02*
X239629761Y-78081428D01*
X239534523Y-78129047D01*
X238677380Y-78129047D01*
X239677380Y-77176666D02*
X239153571Y-77176666D01*
X239058333Y-77224285D01*
X239010714Y-77319523D01*
X239010714Y-77510000D01*
X239058333Y-77605238D01*
X239629761Y-77176666D02*
X239677380Y-77271904D01*
X239677380Y-77510000D01*
X239629761Y-77605238D01*
X239534523Y-77652857D01*
X239439285Y-77652857D01*
X239344047Y-77605238D01*
X239296428Y-77510000D01*
X239296428Y-77271904D01*
X239248809Y-77176666D01*
X239010714Y-76795714D02*
X239677380Y-76557619D01*
X239010714Y-76319523D02*
X239677380Y-76557619D01*
X239915476Y-76652857D01*
X239963095Y-76700476D01*
X240010714Y-76795714D01*
X241192142Y-85010000D02*
X241239761Y-85057619D01*
X241287380Y-85200476D01*
X241287380Y-85295714D01*
X241239761Y-85438571D01*
X241144523Y-85533809D01*
X241049285Y-85581428D01*
X240858809Y-85629047D01*
X240715952Y-85629047D01*
X240525476Y-85581428D01*
X240430238Y-85533809D01*
X240335000Y-85438571D01*
X240287380Y-85295714D01*
X240287380Y-85200476D01*
X240335000Y-85057619D01*
X240382619Y-85010000D01*
X241287380Y-84105238D02*
X241287380Y-84581428D01*
X240287380Y-84581428D01*
X241287380Y-83771904D02*
X240287380Y-83771904D01*
X241287380Y-83200476D02*
X240715952Y-83629047D01*
X240287380Y-83200476D02*
X240858809Y-83771904D01*
X241239761Y-82724285D02*
X241287380Y-82724285D01*
X241382619Y-82771904D01*
X241430238Y-82819523D01*
X241287380Y-82295714D02*
X240287380Y-82295714D01*
X240287380Y-82057619D01*
X240335000Y-81914761D01*
X240430238Y-81819523D01*
X240525476Y-81771904D01*
X240715952Y-81724285D01*
X240858809Y-81724285D01*
X241049285Y-81771904D01*
X241144523Y-81819523D01*
X241239761Y-81914761D01*
X241287380Y-82057619D01*
X241287380Y-82295714D01*
X241287380Y-81295714D02*
X240287380Y-81295714D01*
X240287380Y-80629047D02*
X240287380Y-80438571D01*
X240335000Y-80343333D01*
X240430238Y-80248095D01*
X240620714Y-80200476D01*
X240954047Y-80200476D01*
X241144523Y-80248095D01*
X241239761Y-80343333D01*
X241287380Y-80438571D01*
X241287380Y-80629047D01*
X241239761Y-80724285D01*
X241144523Y-80819523D01*
X240954047Y-80867142D01*
X240620714Y-80867142D01*
X240430238Y-80819523D01*
X240335000Y-80724285D01*
X240287380Y-80629047D01*
X241239761Y-79724285D02*
X241287380Y-79724285D01*
X241382619Y-79771904D01*
X241430238Y-79819523D01*
X240287380Y-78819523D02*
X240287380Y-79295714D01*
X240763571Y-79343333D01*
X240715952Y-79295714D01*
X240668333Y-79200476D01*
X240668333Y-78962380D01*
X240715952Y-78867142D01*
X240763571Y-78819523D01*
X240858809Y-78771904D01*
X241096904Y-78771904D01*
X241192142Y-78819523D01*
X241239761Y-78867142D01*
X241287380Y-78962380D01*
X241287380Y-79200476D01*
X241239761Y-79295714D01*
X241192142Y-79343333D01*
X240287380Y-78486190D02*
X241287380Y-78152857D01*
X240287380Y-77819523D01*
X241239761Y-77438571D02*
X241287380Y-77438571D01*
X241382619Y-77486190D01*
X241430238Y-77533809D01*
X240335000Y-76486190D02*
X240287380Y-76581428D01*
X240287380Y-76724285D01*
X240335000Y-76867142D01*
X240430238Y-76962380D01*
X240525476Y-77010000D01*
X240715952Y-77057619D01*
X240858809Y-77057619D01*
X241049285Y-77010000D01*
X241144523Y-76962380D01*
X241239761Y-76867142D01*
X241287380Y-76724285D01*
X241287380Y-76629047D01*
X241239761Y-76486190D01*
X241192142Y-76438571D01*
X240858809Y-76438571D01*
X240858809Y-76629047D01*
X241287380Y-76010000D02*
X240287380Y-76010000D01*
X241287380Y-75438571D01*
X240287380Y-75438571D01*
X241287380Y-74962380D02*
X240287380Y-74962380D01*
X240287380Y-74724285D01*
X240335000Y-74581428D01*
X240430238Y-74486190D01*
X240525476Y-74438571D01*
X240715952Y-74390952D01*
X240858809Y-74390952D01*
X241049285Y-74438571D01*
X241144523Y-74486190D01*
X241239761Y-74581428D01*
X241287380Y-74724285D01*
X241287380Y-74962380D01*
X79676666Y-49617380D02*
X80295714Y-49617380D01*
X79962380Y-49998333D01*
X80105238Y-49998333D01*
X80200476Y-50045952D01*
X80248095Y-50093571D01*
X80295714Y-50188809D01*
X80295714Y-50426904D01*
X80248095Y-50522142D01*
X80200476Y-50569761D01*
X80105238Y-50617380D01*
X79819523Y-50617380D01*
X79724285Y-50569761D01*
X79676666Y-50522142D01*
X59975714Y-50617380D02*
X59404285Y-50617380D01*
X59690000Y-50617380D02*
X59690000Y-49617380D01*
X59594761Y-49760238D01*
X59499523Y-49855476D01*
X59404285Y-49903095D01*
X169974047Y-146185000D02*
X169878809Y-146137380D01*
X169735952Y-146137380D01*
X169593095Y-146185000D01*
X169497857Y-146280238D01*
X169450238Y-146375476D01*
X169402619Y-146565952D01*
X169402619Y-146708809D01*
X169450238Y-146899285D01*
X169497857Y-146994523D01*
X169593095Y-147089761D01*
X169735952Y-147137380D01*
X169831190Y-147137380D01*
X169974047Y-147089761D01*
X170021666Y-147042142D01*
X170021666Y-146708809D01*
X169831190Y-146708809D01*
X170450238Y-147137380D02*
X170450238Y-146137380D01*
X171021666Y-147137380D01*
X171021666Y-146137380D01*
X171497857Y-147137380D02*
X171497857Y-146137380D01*
X171735952Y-146137380D01*
X171878809Y-146185000D01*
X171974047Y-146280238D01*
X172021666Y-146375476D01*
X172069285Y-146565952D01*
X172069285Y-146708809D01*
X172021666Y-146899285D01*
X171974047Y-146994523D01*
X171878809Y-147089761D01*
X171735952Y-147137380D01*
X171497857Y-147137380D01*
X172545476Y-147089761D02*
X172545476Y-147137380D01*
X172497857Y-147232619D01*
X172450238Y-147280238D01*
X173735952Y-146756428D02*
X174497857Y-146756428D01*
X174116904Y-147137380D02*
X174116904Y-146375476D01*
X175497857Y-147137380D02*
X174926428Y-147137380D01*
X175212142Y-147137380D02*
X175212142Y-146137380D01*
X175116904Y-146280238D01*
X175021666Y-146375476D01*
X174926428Y-146423095D01*
X175878809Y-146232619D02*
X175926428Y-146185000D01*
X176021666Y-146137380D01*
X176259761Y-146137380D01*
X176355000Y-146185000D01*
X176402619Y-146232619D01*
X176450238Y-146327857D01*
X176450238Y-146423095D01*
X176402619Y-146565952D01*
X175831190Y-147137380D01*
X176450238Y-147137380D01*
X176735952Y-146137380D02*
X177069285Y-147137380D01*
X177402619Y-146137380D01*
X125991904Y-49665000D02*
X125896666Y-49617380D01*
X125753809Y-49617380D01*
X125610952Y-49665000D01*
X125515714Y-49760238D01*
X125468095Y-49855476D01*
X125420476Y-50045952D01*
X125420476Y-50188809D01*
X125468095Y-50379285D01*
X125515714Y-50474523D01*
X125610952Y-50569761D01*
X125753809Y-50617380D01*
X125849047Y-50617380D01*
X125991904Y-50569761D01*
X126039523Y-50522142D01*
X126039523Y-50188809D01*
X125849047Y-50188809D01*
X139319047Y-148859761D02*
X139700000Y-148859761D01*
X139890476Y-148764523D01*
X139985714Y-148669285D01*
X140176190Y-148383571D01*
X140271428Y-148002619D01*
X140271428Y-147240714D01*
X140176190Y-147050238D01*
X140080952Y-146955000D01*
X139890476Y-146859761D01*
X139509523Y-146859761D01*
X139319047Y-146955000D01*
X139223809Y-147050238D01*
X139128571Y-147240714D01*
X139128571Y-147716904D01*
X139223809Y-147907380D01*
X139319047Y-148002619D01*
X139509523Y-148097857D01*
X139890476Y-148097857D01*
X140080952Y-148002619D01*
X140176190Y-147907380D01*
X140271428Y-147716904D01*
X65031904Y-49665000D02*
X64936666Y-49617380D01*
X64793809Y-49617380D01*
X64650952Y-49665000D01*
X64555714Y-49760238D01*
X64508095Y-49855476D01*
X64460476Y-50045952D01*
X64460476Y-50188809D01*
X64508095Y-50379285D01*
X64555714Y-50474523D01*
X64650952Y-50569761D01*
X64793809Y-50617380D01*
X64889047Y-50617380D01*
X65031904Y-50569761D01*
X65079523Y-50522142D01*
X65079523Y-50188809D01*
X64889047Y-50188809D01*
X130714761Y-50045952D02*
X130619523Y-49998333D01*
X130571904Y-49950714D01*
X130524285Y-49855476D01*
X130524285Y-49807857D01*
X130571904Y-49712619D01*
X130619523Y-49665000D01*
X130714761Y-49617380D01*
X130905238Y-49617380D01*
X131000476Y-49665000D01*
X131048095Y-49712619D01*
X131095714Y-49807857D01*
X131095714Y-49855476D01*
X131048095Y-49950714D01*
X131000476Y-49998333D01*
X130905238Y-50045952D01*
X130714761Y-50045952D01*
X130619523Y-50093571D01*
X130571904Y-50141190D01*
X130524285Y-50236428D01*
X130524285Y-50426904D01*
X130571904Y-50522142D01*
X130619523Y-50569761D01*
X130714761Y-50617380D01*
X130905238Y-50617380D01*
X131000476Y-50569761D01*
X131048095Y-50522142D01*
X131095714Y-50426904D01*
X131095714Y-50236428D01*
X131048095Y-50141190D01*
X131000476Y-50093571D01*
X130905238Y-50045952D01*
X75191904Y-49665000D02*
X75096666Y-49617380D01*
X74953809Y-49617380D01*
X74810952Y-49665000D01*
X74715714Y-49760238D01*
X74668095Y-49855476D01*
X74620476Y-50045952D01*
X74620476Y-50188809D01*
X74668095Y-50379285D01*
X74715714Y-50474523D01*
X74810952Y-50569761D01*
X74953809Y-50617380D01*
X75049047Y-50617380D01*
X75191904Y-50569761D01*
X75239523Y-50522142D01*
X75239523Y-50188809D01*
X75049047Y-50188809D01*
X99536190Y-146859761D02*
X98583809Y-146859761D01*
X98488571Y-147812142D01*
X98583809Y-147716904D01*
X98774285Y-147621666D01*
X99250476Y-147621666D01*
X99440952Y-147716904D01*
X99536190Y-147812142D01*
X99631428Y-148002619D01*
X99631428Y-148478809D01*
X99536190Y-148669285D01*
X99440952Y-148764523D01*
X99250476Y-148859761D01*
X98774285Y-148859761D01*
X98583809Y-148764523D01*
X98488571Y-148669285D01*
X105671904Y-49665000D02*
X105576666Y-49617380D01*
X105433809Y-49617380D01*
X105290952Y-49665000D01*
X105195714Y-49760238D01*
X105148095Y-49855476D01*
X105100476Y-50045952D01*
X105100476Y-50188809D01*
X105148095Y-50379285D01*
X105195714Y-50474523D01*
X105290952Y-50569761D01*
X105433809Y-50617380D01*
X105529047Y-50617380D01*
X105671904Y-50569761D01*
X105719523Y-50522142D01*
X105719523Y-50188809D01*
X105529047Y-50188809D01*
X140779523Y-50617380D02*
X140970000Y-50617380D01*
X141065238Y-50569761D01*
X141112857Y-50522142D01*
X141208095Y-50379285D01*
X141255714Y-50188809D01*
X141255714Y-49807857D01*
X141208095Y-49712619D01*
X141160476Y-49665000D01*
X141065238Y-49617380D01*
X140874761Y-49617380D01*
X140779523Y-49665000D01*
X140731904Y-49712619D01*
X140684285Y-49807857D01*
X140684285Y-50045952D01*
X140731904Y-50141190D01*
X140779523Y-50188809D01*
X140874761Y-50236428D01*
X141065238Y-50236428D01*
X141160476Y-50188809D01*
X141208095Y-50141190D01*
X141255714Y-50045952D01*
%TO.C,SW11*%
X239994761Y-131349523D02*
X240042380Y-131206666D01*
X240042380Y-130968571D01*
X239994761Y-130873333D01*
X239947142Y-130825714D01*
X239851904Y-130778095D01*
X239756666Y-130778095D01*
X239661428Y-130825714D01*
X239613809Y-130873333D01*
X239566190Y-130968571D01*
X239518571Y-131159047D01*
X239470952Y-131254285D01*
X239423333Y-131301904D01*
X239328095Y-131349523D01*
X239232857Y-131349523D01*
X239137619Y-131301904D01*
X239090000Y-131254285D01*
X239042380Y-131159047D01*
X239042380Y-130920952D01*
X239090000Y-130778095D01*
X239042380Y-130444761D02*
X240042380Y-130206666D01*
X239328095Y-130016190D01*
X240042380Y-129825714D01*
X239042380Y-129587619D01*
X240042380Y-128682857D02*
X240042380Y-129254285D01*
X240042380Y-128968571D02*
X239042380Y-128968571D01*
X239185238Y-129063809D01*
X239280476Y-129159047D01*
X239328095Y-129254285D01*
X240042380Y-127730476D02*
X240042380Y-128301904D01*
X240042380Y-128016190D02*
X239042380Y-128016190D01*
X239185238Y-128111428D01*
X239280476Y-128206666D01*
X239328095Y-128301904D01*
%TO.C,J2*%
X66926666Y-48242380D02*
X66926666Y-48956666D01*
X66879047Y-49099523D01*
X66783809Y-49194761D01*
X66640952Y-49242380D01*
X66545714Y-49242380D01*
X67355238Y-48337619D02*
X67402857Y-48290000D01*
X67498095Y-48242380D01*
X67736190Y-48242380D01*
X67831428Y-48290000D01*
X67879047Y-48337619D01*
X67926666Y-48432857D01*
X67926666Y-48528095D01*
X67879047Y-48670952D01*
X67307619Y-49242380D01*
X67926666Y-49242380D01*
%TO.C,SW2*%
X64734761Y-143603333D02*
X64782380Y-143460476D01*
X64782380Y-143222380D01*
X64734761Y-143127142D01*
X64687142Y-143079523D01*
X64591904Y-143031904D01*
X64496666Y-143031904D01*
X64401428Y-143079523D01*
X64353809Y-143127142D01*
X64306190Y-143222380D01*
X64258571Y-143412857D01*
X64210952Y-143508095D01*
X64163333Y-143555714D01*
X64068095Y-143603333D01*
X63972857Y-143603333D01*
X63877619Y-143555714D01*
X63830000Y-143508095D01*
X63782380Y-143412857D01*
X63782380Y-143174761D01*
X63830000Y-143031904D01*
X63782380Y-142698571D02*
X64782380Y-142460476D01*
X64068095Y-142270000D01*
X64782380Y-142079523D01*
X63782380Y-141841428D01*
X63877619Y-141508095D02*
X63830000Y-141460476D01*
X63782380Y-141365238D01*
X63782380Y-141127142D01*
X63830000Y-141031904D01*
X63877619Y-140984285D01*
X63972857Y-140936666D01*
X64068095Y-140936666D01*
X64210952Y-140984285D01*
X64782380Y-141555714D01*
X64782380Y-140936666D01*
%TO.C,D3*%
X78001904Y-134522380D02*
X78001904Y-133522380D01*
X78240000Y-133522380D01*
X78382857Y-133570000D01*
X78478095Y-133665238D01*
X78525714Y-133760476D01*
X78573333Y-133950952D01*
X78573333Y-134093809D01*
X78525714Y-134284285D01*
X78478095Y-134379523D01*
X78382857Y-134474761D01*
X78240000Y-134522380D01*
X78001904Y-134522380D01*
X78906666Y-133522380D02*
X79525714Y-133522380D01*
X79192380Y-133903333D01*
X79335238Y-133903333D01*
X79430476Y-133950952D01*
X79478095Y-133998571D01*
X79525714Y-134093809D01*
X79525714Y-134331904D01*
X79478095Y-134427142D01*
X79430476Y-134474761D01*
X79335238Y-134522380D01*
X79049523Y-134522380D01*
X78954285Y-134474761D01*
X78906666Y-134427142D01*
%TO.C,J17*%
X62640476Y-67197380D02*
X62640476Y-67911666D01*
X62592857Y-68054523D01*
X62497619Y-68149761D01*
X62354761Y-68197380D01*
X62259523Y-68197380D01*
X63640476Y-68197380D02*
X63069047Y-68197380D01*
X63354761Y-68197380D02*
X63354761Y-67197380D01*
X63259523Y-67340238D01*
X63164285Y-67435476D01*
X63069047Y-67483095D01*
X63973809Y-67197380D02*
X64640476Y-67197380D01*
X64211904Y-68197380D01*
%TO.C,R2*%
X68413333Y-130712380D02*
X68080000Y-130236190D01*
X67841904Y-130712380D02*
X67841904Y-129712380D01*
X68222857Y-129712380D01*
X68318095Y-129760000D01*
X68365714Y-129807619D01*
X68413333Y-129902857D01*
X68413333Y-130045714D01*
X68365714Y-130140952D01*
X68318095Y-130188571D01*
X68222857Y-130236190D01*
X67841904Y-130236190D01*
X68794285Y-129807619D02*
X68841904Y-129760000D01*
X68937142Y-129712380D01*
X69175238Y-129712380D01*
X69270476Y-129760000D01*
X69318095Y-129807619D01*
X69365714Y-129902857D01*
X69365714Y-129998095D01*
X69318095Y-130140952D01*
X68746666Y-130712380D01*
X69365714Y-130712380D01*
%TO.C,R4*%
X88733333Y-130712380D02*
X88400000Y-130236190D01*
X88161904Y-130712380D02*
X88161904Y-129712380D01*
X88542857Y-129712380D01*
X88638095Y-129760000D01*
X88685714Y-129807619D01*
X88733333Y-129902857D01*
X88733333Y-130045714D01*
X88685714Y-130140952D01*
X88638095Y-130188571D01*
X88542857Y-130236190D01*
X88161904Y-130236190D01*
X89590476Y-130045714D02*
X89590476Y-130712380D01*
X89352380Y-129664761D02*
X89114285Y-130379047D01*
X89733333Y-130379047D01*
%TO.C,SW7*%
X115244761Y-143603333D02*
X115292380Y-143460476D01*
X115292380Y-143222380D01*
X115244761Y-143127142D01*
X115197142Y-143079523D01*
X115101904Y-143031904D01*
X115006666Y-143031904D01*
X114911428Y-143079523D01*
X114863809Y-143127142D01*
X114816190Y-143222380D01*
X114768571Y-143412857D01*
X114720952Y-143508095D01*
X114673333Y-143555714D01*
X114578095Y-143603333D01*
X114482857Y-143603333D01*
X114387619Y-143555714D01*
X114340000Y-143508095D01*
X114292380Y-143412857D01*
X114292380Y-143174761D01*
X114340000Y-143031904D01*
X114292380Y-142698571D02*
X115292380Y-142460476D01*
X114578095Y-142270000D01*
X115292380Y-142079523D01*
X114292380Y-141841428D01*
X114292380Y-141555714D02*
X114292380Y-140889047D01*
X115292380Y-141317619D01*
%TO.C,J8*%
X244776666Y-117352380D02*
X244776666Y-118066666D01*
X244729047Y-118209523D01*
X244633809Y-118304761D01*
X244490952Y-118352380D01*
X244395714Y-118352380D01*
X245395714Y-117780952D02*
X245300476Y-117733333D01*
X245252857Y-117685714D01*
X245205238Y-117590476D01*
X245205238Y-117542857D01*
X245252857Y-117447619D01*
X245300476Y-117400000D01*
X245395714Y-117352380D01*
X245586190Y-117352380D01*
X245681428Y-117400000D01*
X245729047Y-117447619D01*
X245776666Y-117542857D01*
X245776666Y-117590476D01*
X245729047Y-117685714D01*
X245681428Y-117733333D01*
X245586190Y-117780952D01*
X245395714Y-117780952D01*
X245300476Y-117828571D01*
X245252857Y-117876190D01*
X245205238Y-117971428D01*
X245205238Y-118161904D01*
X245252857Y-118257142D01*
X245300476Y-118304761D01*
X245395714Y-118352380D01*
X245586190Y-118352380D01*
X245681428Y-118304761D01*
X245729047Y-118257142D01*
X245776666Y-118161904D01*
X245776666Y-117971428D01*
X245729047Y-117876190D01*
X245681428Y-117828571D01*
X245586190Y-117780952D01*
%TO.C,J3*%
X154556666Y-67292380D02*
X154556666Y-68006666D01*
X154509047Y-68149523D01*
X154413809Y-68244761D01*
X154270952Y-68292380D01*
X154175714Y-68292380D01*
X154937619Y-67292380D02*
X155556666Y-67292380D01*
X155223333Y-67673333D01*
X155366190Y-67673333D01*
X155461428Y-67720952D01*
X155509047Y-67768571D01*
X155556666Y-67863809D01*
X155556666Y-68101904D01*
X155509047Y-68197142D01*
X155461428Y-68244761D01*
X155366190Y-68292380D01*
X155080476Y-68292380D01*
X154985238Y-68244761D01*
X154937619Y-68197142D01*
%TO.C,R8*%
X129373333Y-129992380D02*
X129040000Y-129516190D01*
X128801904Y-129992380D02*
X128801904Y-128992380D01*
X129182857Y-128992380D01*
X129278095Y-129040000D01*
X129325714Y-129087619D01*
X129373333Y-129182857D01*
X129373333Y-129325714D01*
X129325714Y-129420952D01*
X129278095Y-129468571D01*
X129182857Y-129516190D01*
X128801904Y-129516190D01*
X129944761Y-129420952D02*
X129849523Y-129373333D01*
X129801904Y-129325714D01*
X129754285Y-129230476D01*
X129754285Y-129182857D01*
X129801904Y-129087619D01*
X129849523Y-129040000D01*
X129944761Y-128992380D01*
X130135238Y-128992380D01*
X130230476Y-129040000D01*
X130278095Y-129087619D01*
X130325714Y-129182857D01*
X130325714Y-129230476D01*
X130278095Y-129325714D01*
X130230476Y-129373333D01*
X130135238Y-129420952D01*
X129944761Y-129420952D01*
X129849523Y-129468571D01*
X129801904Y-129516190D01*
X129754285Y-129611428D01*
X129754285Y-129801904D01*
X129801904Y-129897142D01*
X129849523Y-129944761D01*
X129944761Y-129992380D01*
X130135238Y-129992380D01*
X130230476Y-129944761D01*
X130278095Y-129897142D01*
X130325714Y-129801904D01*
X130325714Y-129611428D01*
X130278095Y-129516190D01*
X130230476Y-129468571D01*
X130135238Y-129420952D01*
%TO.C,R1*%
X58253333Y-130712380D02*
X57920000Y-130236190D01*
X57681904Y-130712380D02*
X57681904Y-129712380D01*
X58062857Y-129712380D01*
X58158095Y-129760000D01*
X58205714Y-129807619D01*
X58253333Y-129902857D01*
X58253333Y-130045714D01*
X58205714Y-130140952D01*
X58158095Y-130188571D01*
X58062857Y-130236190D01*
X57681904Y-130236190D01*
X59205714Y-130712380D02*
X58634285Y-130712380D01*
X58920000Y-130712380D02*
X58920000Y-129712380D01*
X58824761Y-129855238D01*
X58729523Y-129950476D01*
X58634285Y-129998095D01*
%TO.C,SW9*%
X135854761Y-143603333D02*
X135902380Y-143460476D01*
X135902380Y-143222380D01*
X135854761Y-143127142D01*
X135807142Y-143079523D01*
X135711904Y-143031904D01*
X135616666Y-143031904D01*
X135521428Y-143079523D01*
X135473809Y-143127142D01*
X135426190Y-143222380D01*
X135378571Y-143412857D01*
X135330952Y-143508095D01*
X135283333Y-143555714D01*
X135188095Y-143603333D01*
X135092857Y-143603333D01*
X134997619Y-143555714D01*
X134950000Y-143508095D01*
X134902380Y-143412857D01*
X134902380Y-143174761D01*
X134950000Y-143031904D01*
X134902380Y-142698571D02*
X135902380Y-142460476D01*
X135188095Y-142270000D01*
X135902380Y-142079523D01*
X134902380Y-141841428D01*
X135902380Y-141412857D02*
X135902380Y-141222380D01*
X135854761Y-141127142D01*
X135807142Y-141079523D01*
X135664285Y-140984285D01*
X135473809Y-140936666D01*
X135092857Y-140936666D01*
X134997619Y-140984285D01*
X134950000Y-141031904D01*
X134902380Y-141127142D01*
X134902380Y-141317619D01*
X134950000Y-141412857D01*
X134997619Y-141460476D01*
X135092857Y-141508095D01*
X135330952Y-141508095D01*
X135426190Y-141460476D01*
X135473809Y-141412857D01*
X135521428Y-141317619D01*
X135521428Y-141127142D01*
X135473809Y-141031904D01*
X135426190Y-140984285D01*
X135330952Y-140936666D01*
%TO.C,SW3*%
X74604761Y-143603333D02*
X74652380Y-143460476D01*
X74652380Y-143222380D01*
X74604761Y-143127142D01*
X74557142Y-143079523D01*
X74461904Y-143031904D01*
X74366666Y-143031904D01*
X74271428Y-143079523D01*
X74223809Y-143127142D01*
X74176190Y-143222380D01*
X74128571Y-143412857D01*
X74080952Y-143508095D01*
X74033333Y-143555714D01*
X73938095Y-143603333D01*
X73842857Y-143603333D01*
X73747619Y-143555714D01*
X73700000Y-143508095D01*
X73652380Y-143412857D01*
X73652380Y-143174761D01*
X73700000Y-143031904D01*
X73652380Y-142698571D02*
X74652380Y-142460476D01*
X73938095Y-142270000D01*
X74652380Y-142079523D01*
X73652380Y-141841428D01*
X73652380Y-141555714D02*
X73652380Y-140936666D01*
X74033333Y-141270000D01*
X74033333Y-141127142D01*
X74080952Y-141031904D01*
X74128571Y-140984285D01*
X74223809Y-140936666D01*
X74461904Y-140936666D01*
X74557142Y-140984285D01*
X74604761Y-141031904D01*
X74652380Y-141127142D01*
X74652380Y-141412857D01*
X74604761Y-141508095D01*
X74557142Y-141555714D01*
%TO.C,J4*%
X161591666Y-62952380D02*
X161591666Y-63666666D01*
X161544047Y-63809523D01*
X161448809Y-63904761D01*
X161305952Y-63952380D01*
X161210714Y-63952380D01*
X162496428Y-63285714D02*
X162496428Y-63952380D01*
X162258333Y-62904761D02*
X162020238Y-63619047D01*
X162639285Y-63619047D01*
%TO.C,H3*%
X243078095Y-51332380D02*
X243078095Y-50332380D01*
X243078095Y-50808571D02*
X243649523Y-50808571D01*
X243649523Y-51332380D02*
X243649523Y-50332380D01*
X244030476Y-50332380D02*
X244649523Y-50332380D01*
X244316190Y-50713333D01*
X244459047Y-50713333D01*
X244554285Y-50760952D01*
X244601904Y-50808571D01*
X244649523Y-50903809D01*
X244649523Y-51141904D01*
X244601904Y-51237142D01*
X244554285Y-51284761D01*
X244459047Y-51332380D01*
X244173333Y-51332380D01*
X244078095Y-51284761D01*
X244030476Y-51237142D01*
%TO.C,R7*%
X119213333Y-130712380D02*
X118880000Y-130236190D01*
X118641904Y-130712380D02*
X118641904Y-129712380D01*
X119022857Y-129712380D01*
X119118095Y-129760000D01*
X119165714Y-129807619D01*
X119213333Y-129902857D01*
X119213333Y-130045714D01*
X119165714Y-130140952D01*
X119118095Y-130188571D01*
X119022857Y-130236190D01*
X118641904Y-130236190D01*
X119546666Y-129712380D02*
X120213333Y-129712380D01*
X119784761Y-130712380D01*
%TO.C,D4*%
X88161904Y-134522380D02*
X88161904Y-133522380D01*
X88400000Y-133522380D01*
X88542857Y-133570000D01*
X88638095Y-133665238D01*
X88685714Y-133760476D01*
X88733333Y-133950952D01*
X88733333Y-134093809D01*
X88685714Y-134284285D01*
X88638095Y-134379523D01*
X88542857Y-134474761D01*
X88400000Y-134522380D01*
X88161904Y-134522380D01*
X89590476Y-133855714D02*
X89590476Y-134522380D01*
X89352380Y-133474761D02*
X89114285Y-134189047D01*
X89733333Y-134189047D01*
%TO.C,H1*%
X44958095Y-51332380D02*
X44958095Y-50332380D01*
X44958095Y-50808571D02*
X45529523Y-50808571D01*
X45529523Y-51332380D02*
X45529523Y-50332380D01*
X46529523Y-51332380D02*
X45958095Y-51332380D01*
X46243809Y-51332380D02*
X46243809Y-50332380D01*
X46148571Y-50475238D01*
X46053333Y-50570476D01*
X45958095Y-50618095D01*
%TO.C,D2*%
X67841904Y-134522380D02*
X67841904Y-133522380D01*
X68080000Y-133522380D01*
X68222857Y-133570000D01*
X68318095Y-133665238D01*
X68365714Y-133760476D01*
X68413333Y-133950952D01*
X68413333Y-134093809D01*
X68365714Y-134284285D01*
X68318095Y-134379523D01*
X68222857Y-134474761D01*
X68080000Y-134522380D01*
X67841904Y-134522380D01*
X68794285Y-133617619D02*
X68841904Y-133570000D01*
X68937142Y-133522380D01*
X69175238Y-133522380D01*
X69270476Y-133570000D01*
X69318095Y-133617619D01*
X69365714Y-133712857D01*
X69365714Y-133808095D01*
X69318095Y-133950952D01*
X68746666Y-134522380D01*
X69365714Y-134522380D01*
%TO.C,D6*%
X108481904Y-134522380D02*
X108481904Y-133522380D01*
X108720000Y-133522380D01*
X108862857Y-133570000D01*
X108958095Y-133665238D01*
X109005714Y-133760476D01*
X109053333Y-133950952D01*
X109053333Y-134093809D01*
X109005714Y-134284285D01*
X108958095Y-134379523D01*
X108862857Y-134474761D01*
X108720000Y-134522380D01*
X108481904Y-134522380D01*
X109910476Y-133522380D02*
X109720000Y-133522380D01*
X109624761Y-133570000D01*
X109577142Y-133617619D01*
X109481904Y-133760476D01*
X109434285Y-133950952D01*
X109434285Y-134331904D01*
X109481904Y-134427142D01*
X109529523Y-134474761D01*
X109624761Y-134522380D01*
X109815238Y-134522380D01*
X109910476Y-134474761D01*
X109958095Y-134427142D01*
X110005714Y-134331904D01*
X110005714Y-134093809D01*
X109958095Y-133998571D01*
X109910476Y-133950952D01*
X109815238Y-133903333D01*
X109624761Y-133903333D01*
X109529523Y-133950952D01*
X109481904Y-133998571D01*
X109434285Y-134093809D01*
%TO.C,J16*%
X93120476Y-67197380D02*
X93120476Y-67911666D01*
X93072857Y-68054523D01*
X92977619Y-68149761D01*
X92834761Y-68197380D01*
X92739523Y-68197380D01*
X94120476Y-68197380D02*
X93549047Y-68197380D01*
X93834761Y-68197380D02*
X93834761Y-67197380D01*
X93739523Y-67340238D01*
X93644285Y-67435476D01*
X93549047Y-67483095D01*
X94977619Y-67197380D02*
X94787142Y-67197380D01*
X94691904Y-67245000D01*
X94644285Y-67292619D01*
X94549047Y-67435476D01*
X94501428Y-67625952D01*
X94501428Y-68006904D01*
X94549047Y-68102142D01*
X94596666Y-68149761D01*
X94691904Y-68197380D01*
X94882380Y-68197380D01*
X94977619Y-68149761D01*
X95025238Y-68102142D01*
X95072857Y-68006904D01*
X95072857Y-67768809D01*
X95025238Y-67673571D01*
X94977619Y-67625952D01*
X94882380Y-67578333D01*
X94691904Y-67578333D01*
X94596666Y-67625952D01*
X94549047Y-67673571D01*
X94501428Y-67768809D01*
%TO.C,J9*%
X173021666Y-62952380D02*
X173021666Y-63666666D01*
X172974047Y-63809523D01*
X172878809Y-63904761D01*
X172735952Y-63952380D01*
X172640714Y-63952380D01*
X173545476Y-63952380D02*
X173735952Y-63952380D01*
X173831190Y-63904761D01*
X173878809Y-63857142D01*
X173974047Y-63714285D01*
X174021666Y-63523809D01*
X174021666Y-63142857D01*
X173974047Y-63047619D01*
X173926428Y-63000000D01*
X173831190Y-62952380D01*
X173640714Y-62952380D01*
X173545476Y-63000000D01*
X173497857Y-63047619D01*
X173450238Y-63142857D01*
X173450238Y-63380952D01*
X173497857Y-63476190D01*
X173545476Y-63523809D01*
X173640714Y-63571428D01*
X173831190Y-63571428D01*
X173926428Y-63523809D01*
X173974047Y-63476190D01*
X174021666Y-63380952D01*
%TO.C,J13*%
X147780476Y-48347380D02*
X147780476Y-49061666D01*
X147732857Y-49204523D01*
X147637619Y-49299761D01*
X147494761Y-49347380D01*
X147399523Y-49347380D01*
X148780476Y-49347380D02*
X148209047Y-49347380D01*
X148494761Y-49347380D02*
X148494761Y-48347380D01*
X148399523Y-48490238D01*
X148304285Y-48585476D01*
X148209047Y-48633095D01*
X149113809Y-48347380D02*
X149732857Y-48347380D01*
X149399523Y-48728333D01*
X149542380Y-48728333D01*
X149637619Y-48775952D01*
X149685238Y-48823571D01*
X149732857Y-48918809D01*
X149732857Y-49156904D01*
X149685238Y-49252142D01*
X149637619Y-49299761D01*
X149542380Y-49347380D01*
X149256666Y-49347380D01*
X149161428Y-49299761D01*
X149113809Y-49252142D01*
%TO.C,SW6*%
X105374761Y-143603333D02*
X105422380Y-143460476D01*
X105422380Y-143222380D01*
X105374761Y-143127142D01*
X105327142Y-143079523D01*
X105231904Y-143031904D01*
X105136666Y-143031904D01*
X105041428Y-143079523D01*
X104993809Y-143127142D01*
X104946190Y-143222380D01*
X104898571Y-143412857D01*
X104850952Y-143508095D01*
X104803333Y-143555714D01*
X104708095Y-143603333D01*
X104612857Y-143603333D01*
X104517619Y-143555714D01*
X104470000Y-143508095D01*
X104422380Y-143412857D01*
X104422380Y-143174761D01*
X104470000Y-143031904D01*
X104422380Y-142698571D02*
X105422380Y-142460476D01*
X104708095Y-142270000D01*
X105422380Y-142079523D01*
X104422380Y-141841428D01*
X104422380Y-141031904D02*
X104422380Y-141222380D01*
X104470000Y-141317619D01*
X104517619Y-141365238D01*
X104660476Y-141460476D01*
X104850952Y-141508095D01*
X105231904Y-141508095D01*
X105327142Y-141460476D01*
X105374761Y-141412857D01*
X105422380Y-141317619D01*
X105422380Y-141127142D01*
X105374761Y-141031904D01*
X105327142Y-140984285D01*
X105231904Y-140936666D01*
X104993809Y-140936666D01*
X104898571Y-140984285D01*
X104850952Y-141031904D01*
X104803333Y-141127142D01*
X104803333Y-141317619D01*
X104850952Y-141412857D01*
X104898571Y-141460476D01*
X104993809Y-141508095D01*
%TO.C,SW10*%
X146014761Y-144079523D02*
X146062380Y-143936666D01*
X146062380Y-143698571D01*
X146014761Y-143603333D01*
X145967142Y-143555714D01*
X145871904Y-143508095D01*
X145776666Y-143508095D01*
X145681428Y-143555714D01*
X145633809Y-143603333D01*
X145586190Y-143698571D01*
X145538571Y-143889047D01*
X145490952Y-143984285D01*
X145443333Y-144031904D01*
X145348095Y-144079523D01*
X145252857Y-144079523D01*
X145157619Y-144031904D01*
X145110000Y-143984285D01*
X145062380Y-143889047D01*
X145062380Y-143650952D01*
X145110000Y-143508095D01*
X145062380Y-143174761D02*
X146062380Y-142936666D01*
X145348095Y-142746190D01*
X146062380Y-142555714D01*
X145062380Y-142317619D01*
X146062380Y-141412857D02*
X146062380Y-141984285D01*
X146062380Y-141698571D02*
X145062380Y-141698571D01*
X145205238Y-141793809D01*
X145300476Y-141889047D01*
X145348095Y-141984285D01*
X145062380Y-140793809D02*
X145062380Y-140698571D01*
X145110000Y-140603333D01*
X145157619Y-140555714D01*
X145252857Y-140508095D01*
X145443333Y-140460476D01*
X145681428Y-140460476D01*
X145871904Y-140508095D01*
X145967142Y-140555714D01*
X146014761Y-140603333D01*
X146062380Y-140698571D01*
X146062380Y-140793809D01*
X146014761Y-140889047D01*
X145967142Y-140936666D01*
X145871904Y-140984285D01*
X145681428Y-141031904D01*
X145443333Y-141031904D01*
X145252857Y-140984285D01*
X145157619Y-140936666D01*
X145110000Y-140889047D01*
X145062380Y-140793809D01*
%TO.C,R5*%
X98893333Y-130712380D02*
X98560000Y-130236190D01*
X98321904Y-130712380D02*
X98321904Y-129712380D01*
X98702857Y-129712380D01*
X98798095Y-129760000D01*
X98845714Y-129807619D01*
X98893333Y-129902857D01*
X98893333Y-130045714D01*
X98845714Y-130140952D01*
X98798095Y-130188571D01*
X98702857Y-130236190D01*
X98321904Y-130236190D01*
X99798095Y-129712380D02*
X99321904Y-129712380D01*
X99274285Y-130188571D01*
X99321904Y-130140952D01*
X99417142Y-130093333D01*
X99655238Y-130093333D01*
X99750476Y-130140952D01*
X99798095Y-130188571D01*
X99845714Y-130283809D01*
X99845714Y-130521904D01*
X99798095Y-130617142D01*
X99750476Y-130664761D01*
X99655238Y-130712380D01*
X99417142Y-130712380D01*
X99321904Y-130664761D01*
X99274285Y-130617142D01*
%TO.C,JP1*%
X177677380Y-68143333D02*
X178391666Y-68143333D01*
X178534523Y-68190952D01*
X178629761Y-68286190D01*
X178677380Y-68429047D01*
X178677380Y-68524285D01*
X178677380Y-67667142D02*
X177677380Y-67667142D01*
X177677380Y-67286190D01*
X177725000Y-67190952D01*
X177772619Y-67143333D01*
X177867857Y-67095714D01*
X178010714Y-67095714D01*
X178105952Y-67143333D01*
X178153571Y-67190952D01*
X178201190Y-67286190D01*
X178201190Y-67667142D01*
X178677380Y-66143333D02*
X178677380Y-66714761D01*
X178677380Y-66429047D02*
X177677380Y-66429047D01*
X177820238Y-66524285D01*
X177915476Y-66619523D01*
X177963095Y-66714761D01*
%TO.C,J10*%
X172545476Y-136642380D02*
X172545476Y-137356666D01*
X172497857Y-137499523D01*
X172402619Y-137594761D01*
X172259761Y-137642380D01*
X172164523Y-137642380D01*
X173545476Y-137642380D02*
X172974047Y-137642380D01*
X173259761Y-137642380D02*
X173259761Y-136642380D01*
X173164523Y-136785238D01*
X173069285Y-136880476D01*
X172974047Y-136928095D01*
X174164523Y-136642380D02*
X174259761Y-136642380D01*
X174355000Y-136690000D01*
X174402619Y-136737619D01*
X174450238Y-136832857D01*
X174497857Y-137023333D01*
X174497857Y-137261428D01*
X174450238Y-137451904D01*
X174402619Y-137547142D01*
X174355000Y-137594761D01*
X174259761Y-137642380D01*
X174164523Y-137642380D01*
X174069285Y-137594761D01*
X174021666Y-137547142D01*
X173974047Y-137451904D01*
X173926428Y-137261428D01*
X173926428Y-137023333D01*
X173974047Y-136832857D01*
X174021666Y-136737619D01*
X174069285Y-136690000D01*
X174164523Y-136642380D01*
%TO.C,SW4*%
X85054761Y-143603333D02*
X85102380Y-143460476D01*
X85102380Y-143222380D01*
X85054761Y-143127142D01*
X85007142Y-143079523D01*
X84911904Y-143031904D01*
X84816666Y-143031904D01*
X84721428Y-143079523D01*
X84673809Y-143127142D01*
X84626190Y-143222380D01*
X84578571Y-143412857D01*
X84530952Y-143508095D01*
X84483333Y-143555714D01*
X84388095Y-143603333D01*
X84292857Y-143603333D01*
X84197619Y-143555714D01*
X84150000Y-143508095D01*
X84102380Y-143412857D01*
X84102380Y-143174761D01*
X84150000Y-143031904D01*
X84102380Y-142698571D02*
X85102380Y-142460476D01*
X84388095Y-142270000D01*
X85102380Y-142079523D01*
X84102380Y-141841428D01*
X84435714Y-141031904D02*
X85102380Y-141031904D01*
X84054761Y-141270000D02*
X84769047Y-141508095D01*
X84769047Y-140889047D01*
%TO.C,R3*%
X78573333Y-130712380D02*
X78240000Y-130236190D01*
X78001904Y-130712380D02*
X78001904Y-129712380D01*
X78382857Y-129712380D01*
X78478095Y-129760000D01*
X78525714Y-129807619D01*
X78573333Y-129902857D01*
X78573333Y-130045714D01*
X78525714Y-130140952D01*
X78478095Y-130188571D01*
X78382857Y-130236190D01*
X78001904Y-130236190D01*
X78906666Y-129712380D02*
X79525714Y-129712380D01*
X79192380Y-130093333D01*
X79335238Y-130093333D01*
X79430476Y-130140952D01*
X79478095Y-130188571D01*
X79525714Y-130283809D01*
X79525714Y-130521904D01*
X79478095Y-130617142D01*
X79430476Y-130664761D01*
X79335238Y-130712380D01*
X79049523Y-130712380D01*
X78954285Y-130664761D01*
X78906666Y-130617142D01*
%TO.C,D1*%
X57464404Y-134522380D02*
X57464404Y-133522380D01*
X57702500Y-133522380D01*
X57845357Y-133570000D01*
X57940595Y-133665238D01*
X57988214Y-133760476D01*
X58035833Y-133950952D01*
X58035833Y-134093809D01*
X57988214Y-134284285D01*
X57940595Y-134379523D01*
X57845357Y-134474761D01*
X57702500Y-134522380D01*
X57464404Y-134522380D01*
X58988214Y-134522380D02*
X58416785Y-134522380D01*
X58702500Y-134522380D02*
X58702500Y-133522380D01*
X58607261Y-133665238D01*
X58512023Y-133760476D01*
X58416785Y-133808095D01*
%TO.C,J14*%
X123600476Y-67197380D02*
X123600476Y-67911666D01*
X123552857Y-68054523D01*
X123457619Y-68149761D01*
X123314761Y-68197380D01*
X123219523Y-68197380D01*
X124600476Y-68197380D02*
X124029047Y-68197380D01*
X124314761Y-68197380D02*
X124314761Y-67197380D01*
X124219523Y-67340238D01*
X124124285Y-67435476D01*
X124029047Y-67483095D01*
X125457619Y-67530714D02*
X125457619Y-68197380D01*
X125219523Y-67149761D02*
X124981428Y-67864047D01*
X125600476Y-67864047D01*
%TO.C,SW5*%
X95214761Y-143603333D02*
X95262380Y-143460476D01*
X95262380Y-143222380D01*
X95214761Y-143127142D01*
X95167142Y-143079523D01*
X95071904Y-143031904D01*
X94976666Y-143031904D01*
X94881428Y-143079523D01*
X94833809Y-143127142D01*
X94786190Y-143222380D01*
X94738571Y-143412857D01*
X94690952Y-143508095D01*
X94643333Y-143555714D01*
X94548095Y-143603333D01*
X94452857Y-143603333D01*
X94357619Y-143555714D01*
X94310000Y-143508095D01*
X94262380Y-143412857D01*
X94262380Y-143174761D01*
X94310000Y-143031904D01*
X94262380Y-142698571D02*
X95262380Y-142460476D01*
X94548095Y-142270000D01*
X95262380Y-142079523D01*
X94262380Y-141841428D01*
X94262380Y-140984285D02*
X94262380Y-141460476D01*
X94738571Y-141508095D01*
X94690952Y-141460476D01*
X94643333Y-141365238D01*
X94643333Y-141127142D01*
X94690952Y-141031904D01*
X94738571Y-140984285D01*
X94833809Y-140936666D01*
X95071904Y-140936666D01*
X95167142Y-140984285D01*
X95214761Y-141031904D01*
X95262380Y-141127142D01*
X95262380Y-141365238D01*
X95214761Y-141460476D01*
X95167142Y-141508095D01*
%TO.C,U1*%
X109728095Y-100552380D02*
X109728095Y-101361904D01*
X109775714Y-101457142D01*
X109823333Y-101504761D01*
X109918571Y-101552380D01*
X110109047Y-101552380D01*
X110204285Y-101504761D01*
X110251904Y-101457142D01*
X110299523Y-101361904D01*
X110299523Y-100552380D01*
X111299523Y-101552380D02*
X110728095Y-101552380D01*
X111013809Y-101552380D02*
X111013809Y-100552380D01*
X110918571Y-100695238D01*
X110823333Y-100790476D01*
X110728095Y-100838095D01*
%TO.C,H2*%
X243078095Y-137692380D02*
X243078095Y-136692380D01*
X243078095Y-137168571D02*
X243649523Y-137168571D01*
X243649523Y-137692380D02*
X243649523Y-136692380D01*
X244078095Y-136787619D02*
X244125714Y-136740000D01*
X244220952Y-136692380D01*
X244459047Y-136692380D01*
X244554285Y-136740000D01*
X244601904Y-136787619D01*
X244649523Y-136882857D01*
X244649523Y-136978095D01*
X244601904Y-137120952D01*
X244030476Y-137692380D01*
X244649523Y-137692380D01*
%TO.C,R6*%
X108793333Y-126777380D02*
X108460000Y-126301190D01*
X108221904Y-126777380D02*
X108221904Y-125777380D01*
X108602857Y-125777380D01*
X108698095Y-125825000D01*
X108745714Y-125872619D01*
X108793333Y-125967857D01*
X108793333Y-126110714D01*
X108745714Y-126205952D01*
X108698095Y-126253571D01*
X108602857Y-126301190D01*
X108221904Y-126301190D01*
X109650476Y-125777380D02*
X109460000Y-125777380D01*
X109364761Y-125825000D01*
X109317142Y-125872619D01*
X109221904Y-126015476D01*
X109174285Y-126205952D01*
X109174285Y-126586904D01*
X109221904Y-126682142D01*
X109269523Y-126729761D01*
X109364761Y-126777380D01*
X109555238Y-126777380D01*
X109650476Y-126729761D01*
X109698095Y-126682142D01*
X109745714Y-126586904D01*
X109745714Y-126348809D01*
X109698095Y-126253571D01*
X109650476Y-126205952D01*
X109555238Y-126158333D01*
X109364761Y-126158333D01*
X109269523Y-126205952D01*
X109221904Y-126253571D01*
X109174285Y-126348809D01*
%TO.C,D7*%
X118641904Y-134522380D02*
X118641904Y-133522380D01*
X118880000Y-133522380D01*
X119022857Y-133570000D01*
X119118095Y-133665238D01*
X119165714Y-133760476D01*
X119213333Y-133950952D01*
X119213333Y-134093809D01*
X119165714Y-134284285D01*
X119118095Y-134379523D01*
X119022857Y-134474761D01*
X118880000Y-134522380D01*
X118641904Y-134522380D01*
X119546666Y-133522380D02*
X120213333Y-133522380D01*
X119784761Y-134522380D01*
%TO.C,D5*%
X98321904Y-134522380D02*
X98321904Y-133522380D01*
X98560000Y-133522380D01*
X98702857Y-133570000D01*
X98798095Y-133665238D01*
X98845714Y-133760476D01*
X98893333Y-133950952D01*
X98893333Y-134093809D01*
X98845714Y-134284285D01*
X98798095Y-134379523D01*
X98702857Y-134474761D01*
X98560000Y-134522380D01*
X98321904Y-134522380D01*
X99798095Y-133522380D02*
X99321904Y-133522380D01*
X99274285Y-133998571D01*
X99321904Y-133950952D01*
X99417142Y-133903333D01*
X99655238Y-133903333D01*
X99750476Y-133950952D01*
X99798095Y-133998571D01*
X99845714Y-134093809D01*
X99845714Y-134331904D01*
X99798095Y-134427142D01*
X99750476Y-134474761D01*
X99655238Y-134522380D01*
X99417142Y-134522380D01*
X99321904Y-134474761D01*
X99274285Y-134427142D01*
%TO.C,J6*%
X244776666Y-85602380D02*
X244776666Y-86316666D01*
X244729047Y-86459523D01*
X244633809Y-86554761D01*
X244490952Y-86602380D01*
X244395714Y-86602380D01*
X245681428Y-85602380D02*
X245490952Y-85602380D01*
X245395714Y-85650000D01*
X245348095Y-85697619D01*
X245252857Y-85840476D01*
X245205238Y-86030952D01*
X245205238Y-86411904D01*
X245252857Y-86507142D01*
X245300476Y-86554761D01*
X245395714Y-86602380D01*
X245586190Y-86602380D01*
X245681428Y-86554761D01*
X245729047Y-86507142D01*
X245776666Y-86411904D01*
X245776666Y-86173809D01*
X245729047Y-86078571D01*
X245681428Y-86030952D01*
X245586190Y-85983333D01*
X245395714Y-85983333D01*
X245300476Y-86030952D01*
X245252857Y-86078571D01*
X245205238Y-86173809D01*
%TO.C,D8*%
X128801904Y-134522380D02*
X128801904Y-133522380D01*
X129040000Y-133522380D01*
X129182857Y-133570000D01*
X129278095Y-133665238D01*
X129325714Y-133760476D01*
X129373333Y-133950952D01*
X129373333Y-134093809D01*
X129325714Y-134284285D01*
X129278095Y-134379523D01*
X129182857Y-134474761D01*
X129040000Y-134522380D01*
X128801904Y-134522380D01*
X129944761Y-133950952D02*
X129849523Y-133903333D01*
X129801904Y-133855714D01*
X129754285Y-133760476D01*
X129754285Y-133712857D01*
X129801904Y-133617619D01*
X129849523Y-133570000D01*
X129944761Y-133522380D01*
X130135238Y-133522380D01*
X130230476Y-133570000D01*
X130278095Y-133617619D01*
X130325714Y-133712857D01*
X130325714Y-133760476D01*
X130278095Y-133855714D01*
X130230476Y-133903333D01*
X130135238Y-133950952D01*
X129944761Y-133950952D01*
X129849523Y-133998571D01*
X129801904Y-134046190D01*
X129754285Y-134141428D01*
X129754285Y-134331904D01*
X129801904Y-134427142D01*
X129849523Y-134474761D01*
X129944761Y-134522380D01*
X130135238Y-134522380D01*
X130230476Y-134474761D01*
X130278095Y-134427142D01*
X130325714Y-134331904D01*
X130325714Y-134141428D01*
X130278095Y-134046190D01*
X130230476Y-133998571D01*
X130135238Y-133950952D01*
%TO.C,J11*%
X96930476Y-48242380D02*
X96930476Y-48956666D01*
X96882857Y-49099523D01*
X96787619Y-49194761D01*
X96644761Y-49242380D01*
X96549523Y-49242380D01*
X97930476Y-49242380D02*
X97359047Y-49242380D01*
X97644761Y-49242380D02*
X97644761Y-48242380D01*
X97549523Y-48385238D01*
X97454285Y-48480476D01*
X97359047Y-48528095D01*
X98882857Y-49242380D02*
X98311428Y-49242380D01*
X98597142Y-49242380D02*
X98597142Y-48242380D01*
X98501904Y-48385238D01*
X98406666Y-48480476D01*
X98311428Y-48528095D01*
%TO.C,SW8*%
X125694761Y-143603333D02*
X125742380Y-143460476D01*
X125742380Y-143222380D01*
X125694761Y-143127142D01*
X125647142Y-143079523D01*
X125551904Y-143031904D01*
X125456666Y-143031904D01*
X125361428Y-143079523D01*
X125313809Y-143127142D01*
X125266190Y-143222380D01*
X125218571Y-143412857D01*
X125170952Y-143508095D01*
X125123333Y-143555714D01*
X125028095Y-143603333D01*
X124932857Y-143603333D01*
X124837619Y-143555714D01*
X124790000Y-143508095D01*
X124742380Y-143412857D01*
X124742380Y-143174761D01*
X124790000Y-143031904D01*
X124742380Y-142698571D02*
X125742380Y-142460476D01*
X125028095Y-142270000D01*
X125742380Y-142079523D01*
X124742380Y-141841428D01*
X125170952Y-141317619D02*
X125123333Y-141412857D01*
X125075714Y-141460476D01*
X124980476Y-141508095D01*
X124932857Y-141508095D01*
X124837619Y-141460476D01*
X124790000Y-141412857D01*
X124742380Y-141317619D01*
X124742380Y-141127142D01*
X124790000Y-141031904D01*
X124837619Y-140984285D01*
X124932857Y-140936666D01*
X124980476Y-140936666D01*
X125075714Y-140984285D01*
X125123333Y-141031904D01*
X125170952Y-141127142D01*
X125170952Y-141317619D01*
X125218571Y-141412857D01*
X125266190Y-141460476D01*
X125361428Y-141508095D01*
X125551904Y-141508095D01*
X125647142Y-141460476D01*
X125694761Y-141412857D01*
X125742380Y-141317619D01*
X125742380Y-141127142D01*
X125694761Y-141031904D01*
X125647142Y-140984285D01*
X125551904Y-140936666D01*
X125361428Y-140936666D01*
X125266190Y-140984285D01*
X125218571Y-141031904D01*
X125170952Y-141127142D01*
%TO.C,H4*%
X44958095Y-137692380D02*
X44958095Y-136692380D01*
X44958095Y-137168571D02*
X45529523Y-137168571D01*
X45529523Y-137692380D02*
X45529523Y-136692380D01*
X46434285Y-137025714D02*
X46434285Y-137692380D01*
X46196190Y-136644761D02*
X45958095Y-137359047D01*
X46577142Y-137359047D01*
%TO.C,J7*%
X244776666Y-100842380D02*
X244776666Y-101556666D01*
X244729047Y-101699523D01*
X244633809Y-101794761D01*
X244490952Y-101842380D01*
X244395714Y-101842380D01*
X245157619Y-100842380D02*
X245824285Y-100842380D01*
X245395714Y-101842380D01*
%TO.C,SW1*%
X54574761Y-143603333D02*
X54622380Y-143460476D01*
X54622380Y-143222380D01*
X54574761Y-143127142D01*
X54527142Y-143079523D01*
X54431904Y-143031904D01*
X54336666Y-143031904D01*
X54241428Y-143079523D01*
X54193809Y-143127142D01*
X54146190Y-143222380D01*
X54098571Y-143412857D01*
X54050952Y-143508095D01*
X54003333Y-143555714D01*
X53908095Y-143603333D01*
X53812857Y-143603333D01*
X53717619Y-143555714D01*
X53670000Y-143508095D01*
X53622380Y-143412857D01*
X53622380Y-143174761D01*
X53670000Y-143031904D01*
X53622380Y-142698571D02*
X54622380Y-142460476D01*
X53908095Y-142270000D01*
X54622380Y-142079523D01*
X53622380Y-141841428D01*
X54622380Y-140936666D02*
X54622380Y-141508095D01*
X54622380Y-141222380D02*
X53622380Y-141222380D01*
X53765238Y-141317619D01*
X53860476Y-141412857D01*
X53908095Y-141508095D01*
%TO.C,J12*%
X127410476Y-48242380D02*
X127410476Y-48956666D01*
X127362857Y-49099523D01*
X127267619Y-49194761D01*
X127124761Y-49242380D01*
X127029523Y-49242380D01*
X128410476Y-49242380D02*
X127839047Y-49242380D01*
X128124761Y-49242380D02*
X128124761Y-48242380D01*
X128029523Y-48385238D01*
X127934285Y-48480476D01*
X127839047Y-48528095D01*
X128791428Y-48337619D02*
X128839047Y-48290000D01*
X128934285Y-48242380D01*
X129172380Y-48242380D01*
X129267619Y-48290000D01*
X129315238Y-48337619D01*
X129362857Y-48432857D01*
X129362857Y-48528095D01*
X129315238Y-48670952D01*
X128743809Y-49242380D01*
X129362857Y-49242380D01*
D12*
%TO.C,SW11*%
X243090000Y-133040000D02*
X244590000Y-133040000D01*
X244590000Y-126040000D02*
X243090000Y-126040000D01*
X240590000Y-127290000D02*
X240590000Y-131790000D01*
X247090000Y-131790000D02*
X247090000Y-127290000D01*
%TO.C,J2*%
X52070000Y-49530000D02*
X52070000Y-57150000D01*
X52070000Y-49530000D02*
X82550000Y-49530000D01*
X52070000Y-57150000D02*
X82550000Y-57150000D01*
X82550000Y-57150000D02*
X82550000Y-49530000D01*
X52070000Y-55880000D02*
X82550000Y-55880000D01*
%TO.C,SW2*%
X71830000Y-144520000D02*
X71830000Y-140020000D01*
X67830000Y-145770000D02*
X69330000Y-145770000D01*
X65330000Y-140020000D02*
X65330000Y-144520000D01*
X69330000Y-138770000D02*
X67830000Y-138770000D01*
%TO.C,D3*%
X76280000Y-137025000D02*
X80340000Y-137025000D01*
X76280000Y-134755000D02*
X76280000Y-137025000D01*
X80340000Y-134755000D02*
X76280000Y-134755000D01*
%TO.C,J17*%
X48260000Y-68485000D02*
X48260000Y-76105000D01*
X78740000Y-76105000D02*
X78740000Y-68485000D01*
X48260000Y-68485000D02*
X78740000Y-68485000D01*
X48260000Y-74835000D02*
X78740000Y-74835000D01*
X48260000Y-76105000D02*
X78740000Y-76105000D01*
%TO.C,R2*%
X67852936Y-132990000D02*
X69307064Y-132990000D01*
X67852936Y-131170000D02*
X69307064Y-131170000D01*
%TO.C,R4*%
X88172936Y-132990000D02*
X89627064Y-132990000D01*
X88172936Y-131170000D02*
X89627064Y-131170000D01*
%TO.C,SW7*%
X119840000Y-138770000D02*
X118340000Y-138770000D01*
X118340000Y-145770000D02*
X119840000Y-145770000D01*
X122340000Y-144520000D02*
X122340000Y-140020000D01*
X115840000Y-140020000D02*
X115840000Y-144520000D01*
%TO.C,J8*%
X247710000Y-115570000D02*
X247710000Y-116900000D01*
X245110000Y-116900000D02*
X242510000Y-116900000D01*
X242510000Y-116900000D02*
X242510000Y-106620000D01*
X247710000Y-116900000D02*
X246380000Y-116900000D01*
X247710000Y-106620000D02*
X242510000Y-106620000D01*
X247710000Y-114300000D02*
X247710000Y-106620000D01*
X247710000Y-114300000D02*
X245110000Y-114300000D01*
X245110000Y-114300000D02*
X245110000Y-116900000D01*
%TO.C,J3*%
X139700000Y-76200000D02*
X170180000Y-76200000D01*
X170180000Y-76200000D02*
X170180000Y-68580000D01*
X139700000Y-68580000D02*
X170180000Y-68580000D01*
X139700000Y-74930000D02*
X170180000Y-74930000D01*
X139700000Y-68580000D02*
X139700000Y-76200000D01*
%TO.C,R8*%
X128812936Y-131170000D02*
X130267064Y-131170000D01*
X128812936Y-132990000D02*
X130267064Y-132990000D01*
%TO.C,R1*%
X57692936Y-132990000D02*
X59147064Y-132990000D01*
X57692936Y-131170000D02*
X59147064Y-131170000D01*
%TO.C,SW9*%
X136450000Y-140020000D02*
X136450000Y-144520000D01*
X142950000Y-144520000D02*
X142950000Y-140020000D01*
X140450000Y-138770000D02*
X138950000Y-138770000D01*
X138950000Y-145770000D02*
X140450000Y-145770000D01*
%TO.C,SW3*%
X75200000Y-140020000D02*
X75200000Y-144520000D01*
X77700000Y-145770000D02*
X79200000Y-145770000D01*
X81700000Y-144520000D02*
X81700000Y-140020000D01*
X79200000Y-138770000D02*
X77700000Y-138770000D01*
%TO.C,J4*%
X156845000Y-62230000D02*
X167005000Y-62230000D01*
X156845000Y-54610000D02*
X156845000Y-62230000D01*
X167005000Y-62230000D02*
X167005000Y-54610000D01*
X167005000Y-54610000D02*
X156845000Y-54610000D01*
X167005000Y-60960000D02*
X156845000Y-60960000D01*
%TO.C,R7*%
X118652936Y-132990000D02*
X120107064Y-132990000D01*
X118652936Y-131170000D02*
X120107064Y-131170000D01*
%TO.C,D4*%
X86440000Y-134755000D02*
X86440000Y-137025000D01*
X90500000Y-134755000D02*
X86440000Y-134755000D01*
X86440000Y-137025000D02*
X90500000Y-137025000D01*
%TO.C,D2*%
X70180000Y-134755000D02*
X66120000Y-134755000D01*
X66120000Y-137025000D02*
X70180000Y-137025000D01*
X66120000Y-134755000D02*
X66120000Y-137025000D01*
%TO.C,D6*%
X110820000Y-134755000D02*
X106760000Y-134755000D01*
X106760000Y-137025000D02*
X110820000Y-137025000D01*
X106760000Y-134755000D02*
X106760000Y-137025000D01*
%TO.C,J16*%
X78740000Y-68485000D02*
X109220000Y-68485000D01*
X78740000Y-76105000D02*
X109220000Y-76105000D01*
X78740000Y-68485000D02*
X78740000Y-76105000D01*
X78740000Y-74835000D02*
X109220000Y-74835000D01*
X109220000Y-76105000D02*
X109220000Y-68485000D01*
%TO.C,J9*%
X178605000Y-60990000D02*
X168445000Y-60990000D01*
X178605000Y-62260000D02*
X178605000Y-54640000D01*
X168445000Y-62260000D02*
X178605000Y-62260000D01*
X178605000Y-54640000D02*
X168445000Y-54640000D01*
X168445000Y-54640000D02*
X168445000Y-62260000D01*
%TO.C,J13*%
X153670000Y-55880000D02*
X143510000Y-55880000D01*
X153670000Y-57150000D02*
X153670000Y-49530000D01*
X143510000Y-57150000D02*
X153670000Y-57150000D01*
X153670000Y-49530000D02*
X143510000Y-49530000D01*
X143510000Y-49530000D02*
X143510000Y-57150000D01*
%TO.C,SW6*%
X108470000Y-145770000D02*
X109970000Y-145770000D01*
X105970000Y-140020000D02*
X105970000Y-144520000D01*
X109970000Y-138770000D02*
X108470000Y-138770000D01*
X112470000Y-144520000D02*
X112470000Y-140020000D01*
%TO.C,SW10*%
X150610000Y-138770000D02*
X149110000Y-138770000D01*
X153110000Y-144520000D02*
X153110000Y-140020000D01*
X146610000Y-140020000D02*
X146610000Y-144520000D01*
X149110000Y-145770000D02*
X150610000Y-145770000D01*
%TO.C,R5*%
X98332936Y-131170000D02*
X99787064Y-131170000D01*
X98332936Y-132990000D02*
X99787064Y-132990000D01*
%TO.C,JP1*%
X172025000Y-65980000D02*
X172025000Y-68640000D01*
X175895000Y-65980000D02*
X177225000Y-65980000D01*
X177225000Y-65980000D02*
X177225000Y-67310000D01*
X174625000Y-65980000D02*
X174625000Y-68640000D01*
X174625000Y-65980000D02*
X172025000Y-65980000D01*
X174625000Y-68640000D02*
X172025000Y-68640000D01*
%TO.C,J10*%
X178435000Y-138460000D02*
X168275000Y-138460000D01*
X168275000Y-138460000D02*
X168275000Y-146080000D01*
X168275000Y-146080000D02*
X178435000Y-146080000D01*
X178435000Y-146080000D02*
X178435000Y-138460000D01*
X178435000Y-144810000D02*
X168275000Y-144810000D01*
%TO.C,SW4*%
X92150000Y-144520000D02*
X92150000Y-140020000D01*
X88150000Y-145770000D02*
X89650000Y-145770000D01*
X85650000Y-140020000D02*
X85650000Y-144520000D01*
X89650000Y-138770000D02*
X88150000Y-138770000D01*
%TO.C,R3*%
X78012936Y-132990000D02*
X79467064Y-132990000D01*
X78012936Y-131170000D02*
X79467064Y-131170000D01*
%TO.C,D1*%
X55742500Y-137025000D02*
X59802500Y-137025000D01*
X55742500Y-134755000D02*
X55742500Y-137025000D01*
X59802500Y-134755000D02*
X55742500Y-134755000D01*
%TO.C,J14*%
X109220000Y-74835000D02*
X139700000Y-74835000D01*
X109220000Y-68485000D02*
X139700000Y-68485000D01*
X139700000Y-76105000D02*
X139700000Y-68485000D01*
X109220000Y-68485000D02*
X109220000Y-76105000D01*
X109220000Y-76105000D02*
X139700000Y-76105000D01*
%TO.C,SW5*%
X95810000Y-140020000D02*
X95810000Y-144520000D01*
X102310000Y-144520000D02*
X102310000Y-140020000D01*
X99810000Y-138770000D02*
X98310000Y-138770000D01*
X98310000Y-145770000D02*
X99810000Y-145770000D01*
D13*
%TO.C,U1*%
X43640000Y-75700000D02*
X177340000Y-75700000D01*
X177340000Y-75700000D02*
X177340000Y-127500000D01*
X177340000Y-127500000D02*
X43640000Y-127500000D01*
X43640000Y-127500000D02*
X43640000Y-75700000D01*
D12*
%TO.C,R6*%
X108492936Y-132990000D02*
X109947064Y-132990000D01*
X108492936Y-131170000D02*
X109947064Y-131170000D01*
%TO.C,D7*%
X116920000Y-137025000D02*
X120980000Y-137025000D01*
X120980000Y-134755000D02*
X116920000Y-134755000D01*
X116920000Y-134755000D02*
X116920000Y-137025000D01*
%TO.C,D5*%
X100660000Y-134755000D02*
X96600000Y-134755000D01*
X96600000Y-137025000D02*
X100660000Y-137025000D01*
X96600000Y-134755000D02*
X96600000Y-137025000D01*
%TO.C,J6*%
X245110000Y-82550000D02*
X245110000Y-85150000D01*
X242510000Y-85150000D02*
X242510000Y-74870000D01*
X247710000Y-74870000D02*
X242510000Y-74870000D01*
X247710000Y-82550000D02*
X247710000Y-74870000D01*
X247710000Y-85150000D02*
X246380000Y-85150000D01*
X247710000Y-83820000D02*
X247710000Y-85150000D01*
X247710000Y-82550000D02*
X245110000Y-82550000D01*
X245110000Y-85150000D02*
X242510000Y-85150000D01*
%TO.C,D8*%
X127080000Y-134755000D02*
X127080000Y-137025000D01*
X131140000Y-134755000D02*
X127080000Y-134755000D01*
X127080000Y-137025000D02*
X131140000Y-137025000D01*
%TO.C,J11*%
X82550000Y-55880000D02*
X113030000Y-55880000D01*
X82550000Y-57150000D02*
X113030000Y-57150000D01*
X82550000Y-49530000D02*
X82550000Y-57150000D01*
X113030000Y-57150000D02*
X113030000Y-49530000D01*
X82550000Y-49530000D02*
X113030000Y-49530000D01*
%TO.C,SW8*%
X128790000Y-145770000D02*
X130290000Y-145770000D01*
X130290000Y-138770000D02*
X128790000Y-138770000D01*
X132790000Y-144520000D02*
X132790000Y-140020000D01*
X126290000Y-140020000D02*
X126290000Y-144520000D01*
%TO.C,J7*%
X245110000Y-97790000D02*
X245110000Y-100390000D01*
X247710000Y-97790000D02*
X245110000Y-97790000D01*
X242510000Y-100390000D02*
X242510000Y-90110000D01*
X247710000Y-97790000D02*
X247710000Y-90110000D01*
X247710000Y-100390000D02*
X246380000Y-100390000D01*
X247710000Y-99060000D02*
X247710000Y-100390000D01*
X247710000Y-90110000D02*
X242510000Y-90110000D01*
X245110000Y-100390000D02*
X242510000Y-100390000D01*
%TO.C,SW1*%
X59170000Y-138770000D02*
X57670000Y-138770000D01*
X57670000Y-145770000D02*
X59170000Y-145770000D01*
X55170000Y-140020000D02*
X55170000Y-144520000D01*
X61670000Y-144520000D02*
X61670000Y-140020000D01*
%TO.C,J12*%
X113030000Y-57150000D02*
X143510000Y-57150000D01*
X113030000Y-55880000D02*
X143510000Y-55880000D01*
X113030000Y-49530000D02*
X113030000Y-57150000D01*
X113030000Y-49530000D02*
X143510000Y-49530000D01*
X143510000Y-57150000D02*
X143510000Y-49530000D01*
%TD*%
%LPC*%
D14*
%TO.C,SW11*%
X241590000Y-132790000D03*
X241590000Y-126290000D03*
X246090000Y-132790000D03*
X246090000Y-126290000D03*
%TD*%
D15*
%TO.C,J2*%
X54610000Y-53340000D03*
D16*
X59690000Y-53340000D03*
X64770000Y-53340000D03*
X69850000Y-53340000D03*
X74930000Y-53340000D03*
X80010000Y-53340000D03*
%TD*%
D14*
%TO.C,SW2*%
X66330000Y-139020000D03*
X66330000Y-145520000D03*
X70830000Y-139020000D03*
X70830000Y-145520000D03*
%TD*%
D17*
%TO.C,D3*%
X77252500Y-135890000D03*
X80227500Y-135890000D03*
%TD*%
D15*
%TO.C,J17*%
X50800000Y-72295000D03*
D16*
X55880000Y-72295000D03*
X60960000Y-72295000D03*
X66040000Y-72295000D03*
X71120000Y-72295000D03*
X76200000Y-72295000D03*
%TD*%
D18*
%TO.C,R2*%
X67030000Y-132080000D03*
X70130000Y-132080000D03*
%TD*%
%TO.C,R4*%
X87350000Y-132080000D03*
X90450000Y-132080000D03*
%TD*%
D14*
%TO.C,SW7*%
X116840000Y-145520000D03*
X116840000Y-139020000D03*
X121340000Y-145520000D03*
X121340000Y-139020000D03*
%TD*%
D19*
%TO.C,J8*%
X246380000Y-115570000D03*
D20*
X243840000Y-115570000D03*
X246380000Y-113030000D03*
X243840000Y-113030000D03*
X246380000Y-110490000D03*
X243840000Y-110490000D03*
X246380000Y-107950000D03*
X243840000Y-107950000D03*
%TD*%
D15*
%TO.C,J3*%
X142240000Y-72390000D03*
D16*
X147320000Y-72390000D03*
X152400000Y-72390000D03*
X157480000Y-72390000D03*
X162560000Y-72390000D03*
X167640000Y-72390000D03*
%TD*%
D18*
%TO.C,R8*%
X127990000Y-132080000D03*
X131090000Y-132080000D03*
%TD*%
%TO.C,R1*%
X56870000Y-132080000D03*
X59970000Y-132080000D03*
%TD*%
D14*
%TO.C,SW9*%
X137450000Y-145520000D03*
X137450000Y-139020000D03*
X141950000Y-145520000D03*
X141950000Y-139020000D03*
%TD*%
%TO.C,SW3*%
X76200000Y-145520000D03*
X76200000Y-139020000D03*
X80700000Y-139020000D03*
X80700000Y-145520000D03*
%TD*%
D15*
%TO.C,J4*%
X159385000Y-58420000D03*
D16*
X164465000Y-58420000D03*
%TD*%
D21*
%TO.C,H3*%
X243840000Y-55880000D03*
%TD*%
D18*
%TO.C,R7*%
X117830000Y-132080000D03*
X120930000Y-132080000D03*
%TD*%
D17*
%TO.C,D4*%
X87412500Y-135890000D03*
X90387500Y-135890000D03*
%TD*%
D21*
%TO.C,H1*%
X45720000Y-55880000D03*
%TD*%
D17*
%TO.C,D2*%
X67092500Y-135890000D03*
X70067500Y-135890000D03*
%TD*%
%TO.C,D6*%
X107732500Y-135890000D03*
X110707500Y-135890000D03*
%TD*%
D15*
%TO.C,J16*%
X81280000Y-72295000D03*
D16*
X86360000Y-72295000D03*
X91440000Y-72295000D03*
X96520000Y-72295000D03*
X101600000Y-72295000D03*
X106680000Y-72295000D03*
%TD*%
D15*
%TO.C,J9*%
X170985000Y-58450000D03*
D16*
X176065000Y-58450000D03*
%TD*%
D15*
%TO.C,J13*%
X146050000Y-53340000D03*
D16*
X151130000Y-53340000D03*
%TD*%
D14*
%TO.C,SW6*%
X106970000Y-145520000D03*
X106970000Y-139020000D03*
X111470000Y-145520000D03*
X111470000Y-139020000D03*
%TD*%
%TO.C,SW10*%
X147610000Y-139020000D03*
X147610000Y-145520000D03*
X152110000Y-145520000D03*
X152110000Y-139020000D03*
%TD*%
D18*
%TO.C,R5*%
X97510000Y-132080000D03*
X100610000Y-132080000D03*
%TD*%
D19*
%TO.C,JP1*%
X175895000Y-67310000D03*
D20*
X173355000Y-67310000D03*
%TD*%
D15*
%TO.C,J10*%
X170815000Y-142270000D03*
D16*
X175895000Y-142270000D03*
%TD*%
D14*
%TO.C,SW4*%
X86650000Y-139020000D03*
X86650000Y-145520000D03*
X91150000Y-145520000D03*
X91150000Y-139020000D03*
%TD*%
D18*
%TO.C,R3*%
X77190000Y-132080000D03*
X80290000Y-132080000D03*
%TD*%
D17*
%TO.C,D1*%
X56715000Y-135890000D03*
X59690000Y-135890000D03*
%TD*%
D15*
%TO.C,J14*%
X111760000Y-72295000D03*
D16*
X116840000Y-72295000D03*
X121920000Y-72295000D03*
X127000000Y-72295000D03*
X132080000Y-72295000D03*
X137160000Y-72295000D03*
%TD*%
D14*
%TO.C,SW5*%
X96810000Y-145520000D03*
X96810000Y-139020000D03*
X101310000Y-145520000D03*
X101310000Y-139020000D03*
%TD*%
D22*
%TO.C,U1*%
X46090000Y-78350000D03*
X174890000Y-124850000D03*
X174890000Y-78350000D03*
X46090000Y-124850000D03*
D23*
X99060000Y-123800000D03*
X101600000Y-123800000D03*
X104140000Y-123800000D03*
X106680000Y-123800000D03*
X109220000Y-123800000D03*
X111760000Y-123800000D03*
X114300000Y-123800000D03*
X116840000Y-123800000D03*
X119380000Y-123800000D03*
X121920000Y-123800000D03*
%TD*%
D21*
%TO.C,H2*%
X243840000Y-142240000D03*
%TD*%
D18*
%TO.C,R6*%
X107670000Y-132080000D03*
X110770000Y-132080000D03*
%TD*%
D17*
%TO.C,D7*%
X117892500Y-135890000D03*
X120867500Y-135890000D03*
%TD*%
%TO.C,D5*%
X97572500Y-135890000D03*
X100547500Y-135890000D03*
%TD*%
D19*
%TO.C,J6*%
X246380000Y-83820000D03*
D20*
X243840000Y-83820000D03*
X246380000Y-81280000D03*
X243840000Y-81280000D03*
X246380000Y-78740000D03*
X243840000Y-78740000D03*
X246380000Y-76200000D03*
X243840000Y-76200000D03*
%TD*%
D17*
%TO.C,D8*%
X128052500Y-135890000D03*
X131027500Y-135890000D03*
%TD*%
D15*
%TO.C,J11*%
X85090000Y-53340000D03*
D16*
X90170000Y-53340000D03*
X95250000Y-53340000D03*
X100330000Y-53340000D03*
X105410000Y-53340000D03*
X110490000Y-53340000D03*
%TD*%
D14*
%TO.C,SW8*%
X127290000Y-145520000D03*
X127290000Y-139020000D03*
X131790000Y-145520000D03*
X131790000Y-139020000D03*
%TD*%
D21*
%TO.C,H4*%
X45720000Y-142240000D03*
%TD*%
D19*
%TO.C,J7*%
X246380000Y-99060000D03*
D20*
X243840000Y-99060000D03*
X246380000Y-96520000D03*
X243840000Y-96520000D03*
X246380000Y-93980000D03*
X243840000Y-93980000D03*
X246380000Y-91440000D03*
X243840000Y-91440000D03*
%TD*%
D14*
%TO.C,SW1*%
X56170000Y-139020000D03*
X56170000Y-145520000D03*
X60670000Y-139020000D03*
X60670000Y-145520000D03*
%TD*%
D15*
%TO.C,J12*%
X115570000Y-53340000D03*
D16*
X120650000Y-53340000D03*
X125730000Y-53340000D03*
X130810000Y-53340000D03*
X135890000Y-53340000D03*
X140970000Y-53340000D03*
%TD*%
D24*
%TO.C,J1*%
X186690000Y-56261000D03*
X186690000Y-58801000D03*
X186690000Y-61341000D03*
X186690000Y-63881000D03*
X186690000Y-66421000D03*
X186690000Y-68961000D03*
X186690000Y-71501000D03*
X186690000Y-74041000D03*
X186690000Y-76581000D03*
X186690000Y-79121000D03*
X186690000Y-83185000D03*
X186690000Y-85725000D03*
X186690000Y-88265000D03*
X186690000Y-90805000D03*
X186690000Y-93345000D03*
X186690000Y-95885000D03*
X186690000Y-98425000D03*
X186690000Y-100965000D03*
X186690000Y-106045000D03*
X186690000Y-108585000D03*
X186690000Y-111125000D03*
X186690000Y-113665000D03*
X186690000Y-116205000D03*
X186690000Y-118745000D03*
X186690000Y-121285000D03*
X186690000Y-123825000D03*
D25*
X186690000Y-134231380D03*
X189230000Y-134231380D03*
X191770000Y-134231380D03*
X194310000Y-134231380D03*
X196850000Y-134231380D03*
X199390000Y-134231380D03*
X201930000Y-134231380D03*
X204470000Y-134231380D03*
X207010000Y-134231380D03*
X209550000Y-134231380D03*
X212090000Y-134231380D03*
X214630000Y-134231380D03*
X217170000Y-134231380D03*
X219710000Y-134231380D03*
X222250000Y-134231380D03*
X224790000Y-134231380D03*
X227330000Y-134231380D03*
X229870000Y-134231380D03*
D26*
X186690000Y-131196080D03*
X189230000Y-131196080D03*
X191770000Y-131196080D03*
X194310000Y-131196080D03*
X196850000Y-131196080D03*
X199390000Y-131196080D03*
X201930000Y-131196080D03*
X204470000Y-131196080D03*
X207010000Y-131196080D03*
X209550000Y-131196080D03*
X212090000Y-131196080D03*
X214630000Y-131196080D03*
X217170000Y-131196080D03*
X219710000Y-131196080D03*
X222250000Y-131196080D03*
X224790000Y-131196080D03*
X227330000Y-131196080D03*
X229870000Y-131196080D03*
D24*
X234950000Y-128905000D03*
X234950000Y-126365000D03*
X234950000Y-123825000D03*
X234950000Y-121285000D03*
X234950000Y-118745000D03*
D27*
X234950000Y-116205000D03*
X234950000Y-113665000D03*
X234950000Y-111125000D03*
X234950000Y-106045000D03*
X234950000Y-103505000D03*
X234950000Y-100965000D03*
X234950000Y-98425000D03*
X234950000Y-95885000D03*
X234950000Y-93345000D03*
X234950000Y-90805000D03*
X234950000Y-88265000D03*
X234950000Y-83185000D03*
X234950000Y-80645000D03*
X234950000Y-78105000D03*
X234950000Y-75565000D03*
X234950000Y-73025000D03*
X234950000Y-70485000D03*
X234950000Y-67945000D03*
X234950000Y-65405000D03*
D28*
X186690000Y-52705000D03*
X201930000Y-103505000D03*
X229870000Y-103505000D03*
X234950000Y-51435000D03*
X186690000Y-127635000D03*
X234950000Y-133985000D03*
%TD*%
M02*
