%TF.GenerationSoftware,KiCad,Pcbnew,(6.0.9)*%
%TF.CreationDate,2022-11-08T23:38:09-07:00*%
%TF.ProjectId,gnctr-wack-a-mole-pcb,676e6374-722d-4776-9163-6b2d612d6d6f,rev?*%
%TF.SameCoordinates,Original*%
%TF.FileFunction,Drillmap*%
%TF.FilePolarity,Positive*%
%FSLAX45Y45*%
G04 Gerber Fmt 4.5, Leading zero omitted, Abs format (unit mm)*
G04 Created by KiCad (PCBNEW (6.0.9)) date 2022-11-08 23:38:09*
%MOMM*%
%LPD*%
G01*
G04 APERTURE LIST*
%ADD10C,0.100000*%
%ADD11C,0.200000*%
%ADD12C,0.319786*%
%ADD13C,0.400000*%
G04 APERTURE END LIST*
D10*
X3763500Y-4829000D02*
X25099500Y-4829000D01*
X25099500Y-4829000D02*
X25099500Y-14989000D01*
X25099500Y-14989000D02*
X3763500Y-14989000D01*
X3763500Y-14989000D02*
X3763500Y-4829000D01*
D11*
D12*
X18509107Y-5110607D02*
X18828893Y-5430393D01*
X18828893Y-5110607D02*
X18509107Y-5430393D01*
X18509107Y-12603607D02*
X18828893Y-12923393D01*
X18828893Y-12603607D02*
X18509107Y-12923393D01*
X20033107Y-10190607D02*
X20352893Y-10510393D01*
X20352893Y-10190607D02*
X20033107Y-10510393D01*
X22827107Y-10190607D02*
X23146893Y-10510393D01*
X23146893Y-10190607D02*
X22827107Y-10510393D01*
X23335107Y-4983607D02*
X23654893Y-5303393D01*
X23654893Y-4983607D02*
X23335107Y-5303393D01*
X23335107Y-13238607D02*
X23654893Y-13558393D01*
X23654893Y-13238607D02*
X23335107Y-13558393D01*
D13*
X4772000Y-5588000D02*
G75*
G03*
X4772000Y-5588000I-200000J0D01*
G01*
X4772000Y-14224000D02*
G75*
G03*
X4772000Y-14224000I-200000J0D01*
G01*
X4809000Y-7835000D02*
G75*
G03*
X4809000Y-7835000I-200000J0D01*
G01*
X4809000Y-12485000D02*
G75*
G03*
X4809000Y-12485000I-200000J0D01*
G01*
X17689000Y-7835000D02*
G75*
G03*
X17689000Y-7835000I-200000J0D01*
G01*
X17689000Y-12485000D02*
G75*
G03*
X17689000Y-12485000I-200000J0D01*
G01*
X24584000Y-5588000D02*
G75*
G03*
X24584000Y-5588000I-200000J0D01*
G01*
X24584000Y-14224000D02*
G75*
G03*
X24584000Y-14224000I-200000J0D01*
G01*
D11*
X4016119Y-15304476D02*
X4016119Y-15104476D01*
X4063738Y-15104476D01*
X4092309Y-15114000D01*
X4111357Y-15133048D01*
X4120881Y-15152095D01*
X4130405Y-15190190D01*
X4130405Y-15218762D01*
X4120881Y-15256857D01*
X4111357Y-15275905D01*
X4092309Y-15294952D01*
X4063738Y-15304476D01*
X4016119Y-15304476D01*
X4216119Y-15304476D02*
X4216119Y-15171143D01*
X4216119Y-15209238D02*
X4225643Y-15190190D01*
X4235167Y-15180667D01*
X4254214Y-15171143D01*
X4273262Y-15171143D01*
X4339929Y-15304476D02*
X4339929Y-15171143D01*
X4339929Y-15104476D02*
X4330405Y-15114000D01*
X4339929Y-15123524D01*
X4349452Y-15114000D01*
X4339929Y-15104476D01*
X4339929Y-15123524D01*
X4463738Y-15304476D02*
X4444690Y-15294952D01*
X4435167Y-15275905D01*
X4435167Y-15104476D01*
X4568500Y-15304476D02*
X4549452Y-15294952D01*
X4539929Y-15275905D01*
X4539929Y-15104476D01*
X4797071Y-15304476D02*
X4797071Y-15104476D01*
X4863738Y-15247333D01*
X4930405Y-15104476D01*
X4930405Y-15304476D01*
X5111357Y-15304476D02*
X5111357Y-15199714D01*
X5101833Y-15180667D01*
X5082786Y-15171143D01*
X5044690Y-15171143D01*
X5025643Y-15180667D01*
X5111357Y-15294952D02*
X5092310Y-15304476D01*
X5044690Y-15304476D01*
X5025643Y-15294952D01*
X5016119Y-15275905D01*
X5016119Y-15256857D01*
X5025643Y-15237809D01*
X5044690Y-15228286D01*
X5092310Y-15228286D01*
X5111357Y-15218762D01*
X5206595Y-15171143D02*
X5206595Y-15371143D01*
X5206595Y-15180667D02*
X5225643Y-15171143D01*
X5263738Y-15171143D01*
X5282786Y-15180667D01*
X5292310Y-15190190D01*
X5301833Y-15209238D01*
X5301833Y-15266381D01*
X5292310Y-15285428D01*
X5282786Y-15294952D01*
X5263738Y-15304476D01*
X5225643Y-15304476D01*
X5206595Y-15294952D01*
X5387548Y-15285428D02*
X5397071Y-15294952D01*
X5387548Y-15304476D01*
X5378024Y-15294952D01*
X5387548Y-15285428D01*
X5387548Y-15304476D01*
X5387548Y-15180667D02*
X5397071Y-15190190D01*
X5387548Y-15199714D01*
X5378024Y-15190190D01*
X5387548Y-15180667D01*
X5387548Y-15199714D01*
X3558500Y-15534000D02*
X3758500Y-15734000D01*
X3758500Y-15534000D02*
X3558500Y-15734000D01*
X3997071Y-15524476D02*
X4120881Y-15524476D01*
X4054214Y-15600667D01*
X4082786Y-15600667D01*
X4101833Y-15610190D01*
X4111357Y-15619714D01*
X4120881Y-15638762D01*
X4120881Y-15686381D01*
X4111357Y-15705428D01*
X4101833Y-15714952D01*
X4082786Y-15724476D01*
X4025643Y-15724476D01*
X4006595Y-15714952D01*
X3997071Y-15705428D01*
X4206595Y-15705428D02*
X4216119Y-15714952D01*
X4206595Y-15724476D01*
X4197071Y-15714952D01*
X4206595Y-15705428D01*
X4206595Y-15724476D01*
X4406595Y-15724476D02*
X4292310Y-15724476D01*
X4349452Y-15724476D02*
X4349452Y-15524476D01*
X4330405Y-15553048D01*
X4311357Y-15572095D01*
X4292310Y-15581619D01*
X4501833Y-15724476D02*
X4539929Y-15724476D01*
X4558976Y-15714952D01*
X4568500Y-15705428D01*
X4587548Y-15676857D01*
X4597071Y-15638762D01*
X4597071Y-15562571D01*
X4587548Y-15543524D01*
X4578024Y-15534000D01*
X4558976Y-15524476D01*
X4520881Y-15524476D01*
X4501833Y-15534000D01*
X4492310Y-15543524D01*
X4482786Y-15562571D01*
X4482786Y-15610190D01*
X4492310Y-15629238D01*
X4501833Y-15638762D01*
X4520881Y-15648286D01*
X4558976Y-15648286D01*
X4578024Y-15638762D01*
X4587548Y-15629238D01*
X4597071Y-15610190D01*
X4711357Y-15610190D02*
X4692310Y-15600667D01*
X4682786Y-15591143D01*
X4673262Y-15572095D01*
X4673262Y-15562571D01*
X4682786Y-15543524D01*
X4692310Y-15534000D01*
X4711357Y-15524476D01*
X4749452Y-15524476D01*
X4768500Y-15534000D01*
X4778024Y-15543524D01*
X4787548Y-15562571D01*
X4787548Y-15572095D01*
X4778024Y-15591143D01*
X4768500Y-15600667D01*
X4749452Y-15610190D01*
X4711357Y-15610190D01*
X4692310Y-15619714D01*
X4682786Y-15629238D01*
X4673262Y-15648286D01*
X4673262Y-15686381D01*
X4682786Y-15705428D01*
X4692310Y-15714952D01*
X4711357Y-15724476D01*
X4749452Y-15724476D01*
X4768500Y-15714952D01*
X4778024Y-15705428D01*
X4787548Y-15686381D01*
X4787548Y-15648286D01*
X4778024Y-15629238D01*
X4768500Y-15619714D01*
X4749452Y-15610190D01*
X4873262Y-15724476D02*
X4873262Y-15591143D01*
X4873262Y-15610190D02*
X4882786Y-15600667D01*
X4901833Y-15591143D01*
X4930405Y-15591143D01*
X4949452Y-15600667D01*
X4958976Y-15619714D01*
X4958976Y-15724476D01*
X4958976Y-15619714D02*
X4968500Y-15600667D01*
X4987548Y-15591143D01*
X5016119Y-15591143D01*
X5035167Y-15600667D01*
X5044690Y-15619714D01*
X5044690Y-15724476D01*
X5139929Y-15724476D02*
X5139929Y-15591143D01*
X5139929Y-15610190D02*
X5149452Y-15600667D01*
X5168500Y-15591143D01*
X5197071Y-15591143D01*
X5216119Y-15600667D01*
X5225643Y-15619714D01*
X5225643Y-15724476D01*
X5225643Y-15619714D02*
X5235167Y-15600667D01*
X5254214Y-15591143D01*
X5282786Y-15591143D01*
X5301833Y-15600667D01*
X5311357Y-15619714D01*
X5311357Y-15724476D01*
X5701833Y-15514952D02*
X5530405Y-15772095D01*
X5958976Y-15524476D02*
X5978024Y-15524476D01*
X5997071Y-15534000D01*
X6006595Y-15543524D01*
X6016119Y-15562571D01*
X6025643Y-15600667D01*
X6025643Y-15648286D01*
X6016119Y-15686381D01*
X6006595Y-15705428D01*
X5997071Y-15714952D01*
X5978024Y-15724476D01*
X5958976Y-15724476D01*
X5939928Y-15714952D01*
X5930405Y-15705428D01*
X5920881Y-15686381D01*
X5911357Y-15648286D01*
X5911357Y-15600667D01*
X5920881Y-15562571D01*
X5930405Y-15543524D01*
X5939928Y-15534000D01*
X5958976Y-15524476D01*
X6111357Y-15705428D02*
X6120881Y-15714952D01*
X6111357Y-15724476D01*
X6101833Y-15714952D01*
X6111357Y-15705428D01*
X6111357Y-15724476D01*
X6311357Y-15724476D02*
X6197071Y-15724476D01*
X6254214Y-15724476D02*
X6254214Y-15524476D01*
X6235167Y-15553048D01*
X6216119Y-15572095D01*
X6197071Y-15581619D01*
X6387548Y-15543524D02*
X6397071Y-15534000D01*
X6416119Y-15524476D01*
X6463738Y-15524476D01*
X6482786Y-15534000D01*
X6492309Y-15543524D01*
X6501833Y-15562571D01*
X6501833Y-15581619D01*
X6492309Y-15610190D01*
X6378024Y-15724476D01*
X6501833Y-15724476D01*
X6682786Y-15524476D02*
X6587548Y-15524476D01*
X6578024Y-15619714D01*
X6587548Y-15610190D01*
X6606595Y-15600667D01*
X6654214Y-15600667D01*
X6673262Y-15610190D01*
X6682786Y-15619714D01*
X6692309Y-15638762D01*
X6692309Y-15686381D01*
X6682786Y-15705428D01*
X6673262Y-15714952D01*
X6654214Y-15724476D01*
X6606595Y-15724476D01*
X6587548Y-15714952D01*
X6578024Y-15705428D01*
X6787548Y-15724476D02*
X6825643Y-15724476D01*
X6844690Y-15714952D01*
X6854214Y-15705428D01*
X6873262Y-15676857D01*
X6882786Y-15638762D01*
X6882786Y-15562571D01*
X6873262Y-15543524D01*
X6863738Y-15534000D01*
X6844690Y-15524476D01*
X6806595Y-15524476D01*
X6787548Y-15534000D01*
X6778024Y-15543524D01*
X6768500Y-15562571D01*
X6768500Y-15610190D01*
X6778024Y-15629238D01*
X6787548Y-15638762D01*
X6806595Y-15648286D01*
X6844690Y-15648286D01*
X6863738Y-15638762D01*
X6873262Y-15629238D01*
X6882786Y-15610190D01*
X6958976Y-15524476D02*
X6958976Y-15562571D01*
X7035167Y-15524476D02*
X7035167Y-15562571D01*
X7330405Y-15800667D02*
X7320881Y-15791143D01*
X7301833Y-15762571D01*
X7292309Y-15743524D01*
X7282786Y-15714952D01*
X7273262Y-15667333D01*
X7273262Y-15629238D01*
X7282786Y-15581619D01*
X7292309Y-15553048D01*
X7301833Y-15534000D01*
X7320881Y-15505428D01*
X7330405Y-15495905D01*
X7492309Y-15524476D02*
X7454214Y-15524476D01*
X7435167Y-15534000D01*
X7425643Y-15543524D01*
X7406595Y-15572095D01*
X7397071Y-15610190D01*
X7397071Y-15686381D01*
X7406595Y-15705428D01*
X7416119Y-15714952D01*
X7435167Y-15724476D01*
X7473262Y-15724476D01*
X7492309Y-15714952D01*
X7501833Y-15705428D01*
X7511357Y-15686381D01*
X7511357Y-15638762D01*
X7501833Y-15619714D01*
X7492309Y-15610190D01*
X7473262Y-15600667D01*
X7435167Y-15600667D01*
X7416119Y-15610190D01*
X7406595Y-15619714D01*
X7397071Y-15638762D01*
X7749452Y-15724476D02*
X7749452Y-15524476D01*
X7835167Y-15724476D02*
X7835167Y-15619714D01*
X7825643Y-15600667D01*
X7806595Y-15591143D01*
X7778024Y-15591143D01*
X7758976Y-15600667D01*
X7749452Y-15610190D01*
X7958976Y-15724476D02*
X7939928Y-15714952D01*
X7930405Y-15705428D01*
X7920881Y-15686381D01*
X7920881Y-15629238D01*
X7930405Y-15610190D01*
X7939928Y-15600667D01*
X7958976Y-15591143D01*
X7987548Y-15591143D01*
X8006595Y-15600667D01*
X8016119Y-15610190D01*
X8025643Y-15629238D01*
X8025643Y-15686381D01*
X8016119Y-15705428D01*
X8006595Y-15714952D01*
X7987548Y-15724476D01*
X7958976Y-15724476D01*
X8139928Y-15724476D02*
X8120881Y-15714952D01*
X8111357Y-15695905D01*
X8111357Y-15524476D01*
X8292309Y-15714952D02*
X8273262Y-15724476D01*
X8235167Y-15724476D01*
X8216119Y-15714952D01*
X8206595Y-15695905D01*
X8206595Y-15619714D01*
X8216119Y-15600667D01*
X8235167Y-15591143D01*
X8273262Y-15591143D01*
X8292309Y-15600667D01*
X8301833Y-15619714D01*
X8301833Y-15638762D01*
X8206595Y-15657809D01*
X8378024Y-15714952D02*
X8397071Y-15724476D01*
X8435167Y-15724476D01*
X8454214Y-15714952D01*
X8463738Y-15695905D01*
X8463738Y-15686381D01*
X8454214Y-15667333D01*
X8435167Y-15657809D01*
X8406595Y-15657809D01*
X8387548Y-15648286D01*
X8378024Y-15629238D01*
X8378024Y-15619714D01*
X8387548Y-15600667D01*
X8406595Y-15591143D01*
X8435167Y-15591143D01*
X8454214Y-15600667D01*
X8530405Y-15800667D02*
X8539929Y-15791143D01*
X8558976Y-15762571D01*
X8568500Y-15743524D01*
X8578024Y-15714952D01*
X8587548Y-15667333D01*
X8587548Y-15629238D01*
X8578024Y-15581619D01*
X8568500Y-15553048D01*
X8558976Y-15534000D01*
X8539929Y-15505428D01*
X8530405Y-15495905D01*
X8892310Y-15800667D02*
X8882786Y-15791143D01*
X8863738Y-15762571D01*
X8854214Y-15743524D01*
X8844690Y-15714952D01*
X8835167Y-15667333D01*
X8835167Y-15629238D01*
X8844690Y-15581619D01*
X8854214Y-15553048D01*
X8863738Y-15534000D01*
X8882786Y-15505428D01*
X8892310Y-15495905D01*
X8968500Y-15591143D02*
X8968500Y-15724476D01*
X8968500Y-15610190D02*
X8978024Y-15600667D01*
X8997071Y-15591143D01*
X9025643Y-15591143D01*
X9044690Y-15600667D01*
X9054214Y-15619714D01*
X9054214Y-15724476D01*
X9178024Y-15724476D02*
X9158976Y-15714952D01*
X9149452Y-15705428D01*
X9139929Y-15686381D01*
X9139929Y-15629238D01*
X9149452Y-15610190D01*
X9158976Y-15600667D01*
X9178024Y-15591143D01*
X9206595Y-15591143D01*
X9225643Y-15600667D01*
X9235167Y-15610190D01*
X9244690Y-15629238D01*
X9244690Y-15686381D01*
X9235167Y-15705428D01*
X9225643Y-15714952D01*
X9206595Y-15724476D01*
X9178024Y-15724476D01*
X9301833Y-15591143D02*
X9378024Y-15591143D01*
X9330405Y-15524476D02*
X9330405Y-15695905D01*
X9339929Y-15714952D01*
X9358976Y-15724476D01*
X9378024Y-15724476D01*
X9597071Y-15591143D02*
X9597071Y-15791143D01*
X9597071Y-15600667D02*
X9616119Y-15591143D01*
X9654214Y-15591143D01*
X9673262Y-15600667D01*
X9682786Y-15610190D01*
X9692310Y-15629238D01*
X9692310Y-15686381D01*
X9682786Y-15705428D01*
X9673262Y-15714952D01*
X9654214Y-15724476D01*
X9616119Y-15724476D01*
X9597071Y-15714952D01*
X9806595Y-15724476D02*
X9787548Y-15714952D01*
X9778024Y-15695905D01*
X9778024Y-15524476D01*
X9968500Y-15724476D02*
X9968500Y-15619714D01*
X9958976Y-15600667D01*
X9939929Y-15591143D01*
X9901833Y-15591143D01*
X9882786Y-15600667D01*
X9968500Y-15714952D02*
X9949452Y-15724476D01*
X9901833Y-15724476D01*
X9882786Y-15714952D01*
X9873262Y-15695905D01*
X9873262Y-15676857D01*
X9882786Y-15657809D01*
X9901833Y-15648286D01*
X9949452Y-15648286D01*
X9968500Y-15638762D01*
X10035167Y-15591143D02*
X10111357Y-15591143D01*
X10063738Y-15524476D02*
X10063738Y-15695905D01*
X10073262Y-15714952D01*
X10092310Y-15724476D01*
X10111357Y-15724476D01*
X10254214Y-15714952D02*
X10235167Y-15724476D01*
X10197071Y-15724476D01*
X10178024Y-15714952D01*
X10168500Y-15695905D01*
X10168500Y-15619714D01*
X10178024Y-15600667D01*
X10197071Y-15591143D01*
X10235167Y-15591143D01*
X10254214Y-15600667D01*
X10263738Y-15619714D01*
X10263738Y-15638762D01*
X10168500Y-15657809D01*
X10435167Y-15724476D02*
X10435167Y-15524476D01*
X10435167Y-15714952D02*
X10416119Y-15724476D01*
X10378024Y-15724476D01*
X10358976Y-15714952D01*
X10349452Y-15705428D01*
X10339929Y-15686381D01*
X10339929Y-15629238D01*
X10349452Y-15610190D01*
X10358976Y-15600667D01*
X10378024Y-15591143D01*
X10416119Y-15591143D01*
X10435167Y-15600667D01*
X10511357Y-15800667D02*
X10520881Y-15791143D01*
X10539929Y-15762571D01*
X10549452Y-15743524D01*
X10558976Y-15714952D01*
X10568500Y-15667333D01*
X10568500Y-15629238D01*
X10558976Y-15581619D01*
X10549452Y-15553048D01*
X10539929Y-15534000D01*
X10520881Y-15505428D01*
X10511357Y-15495905D01*
X3758500Y-15954000D02*
G75*
G03*
X3758500Y-15954000I-100000J0D01*
G01*
X4101833Y-15911143D02*
X4101833Y-16044476D01*
X4054214Y-15834952D02*
X4006595Y-15977809D01*
X4130405Y-15977809D01*
X4206595Y-16025428D02*
X4216119Y-16034952D01*
X4206595Y-16044476D01*
X4197071Y-16034952D01*
X4206595Y-16025428D01*
X4206595Y-16044476D01*
X4339929Y-15844476D02*
X4358976Y-15844476D01*
X4378024Y-15854000D01*
X4387548Y-15863524D01*
X4397071Y-15882571D01*
X4406595Y-15920667D01*
X4406595Y-15968286D01*
X4397071Y-16006381D01*
X4387548Y-16025428D01*
X4378024Y-16034952D01*
X4358976Y-16044476D01*
X4339929Y-16044476D01*
X4320881Y-16034952D01*
X4311357Y-16025428D01*
X4301833Y-16006381D01*
X4292310Y-15968286D01*
X4292310Y-15920667D01*
X4301833Y-15882571D01*
X4311357Y-15863524D01*
X4320881Y-15854000D01*
X4339929Y-15844476D01*
X4530405Y-15844476D02*
X4549452Y-15844476D01*
X4568500Y-15854000D01*
X4578024Y-15863524D01*
X4587548Y-15882571D01*
X4597071Y-15920667D01*
X4597071Y-15968286D01*
X4587548Y-16006381D01*
X4578024Y-16025428D01*
X4568500Y-16034952D01*
X4549452Y-16044476D01*
X4530405Y-16044476D01*
X4511357Y-16034952D01*
X4501833Y-16025428D01*
X4492310Y-16006381D01*
X4482786Y-15968286D01*
X4482786Y-15920667D01*
X4492310Y-15882571D01*
X4501833Y-15863524D01*
X4511357Y-15854000D01*
X4530405Y-15844476D01*
X4720881Y-15844476D02*
X4739929Y-15844476D01*
X4758976Y-15854000D01*
X4768500Y-15863524D01*
X4778024Y-15882571D01*
X4787548Y-15920667D01*
X4787548Y-15968286D01*
X4778024Y-16006381D01*
X4768500Y-16025428D01*
X4758976Y-16034952D01*
X4739929Y-16044476D01*
X4720881Y-16044476D01*
X4701833Y-16034952D01*
X4692310Y-16025428D01*
X4682786Y-16006381D01*
X4673262Y-15968286D01*
X4673262Y-15920667D01*
X4682786Y-15882571D01*
X4692310Y-15863524D01*
X4701833Y-15854000D01*
X4720881Y-15844476D01*
X4873262Y-16044476D02*
X4873262Y-15911143D01*
X4873262Y-15930190D02*
X4882786Y-15920667D01*
X4901833Y-15911143D01*
X4930405Y-15911143D01*
X4949452Y-15920667D01*
X4958976Y-15939714D01*
X4958976Y-16044476D01*
X4958976Y-15939714D02*
X4968500Y-15920667D01*
X4987548Y-15911143D01*
X5016119Y-15911143D01*
X5035167Y-15920667D01*
X5044690Y-15939714D01*
X5044690Y-16044476D01*
X5139929Y-16044476D02*
X5139929Y-15911143D01*
X5139929Y-15930190D02*
X5149452Y-15920667D01*
X5168500Y-15911143D01*
X5197071Y-15911143D01*
X5216119Y-15920667D01*
X5225643Y-15939714D01*
X5225643Y-16044476D01*
X5225643Y-15939714D02*
X5235167Y-15920667D01*
X5254214Y-15911143D01*
X5282786Y-15911143D01*
X5301833Y-15920667D01*
X5311357Y-15939714D01*
X5311357Y-16044476D01*
X5701833Y-15834952D02*
X5530405Y-16092095D01*
X5958976Y-15844476D02*
X5978024Y-15844476D01*
X5997071Y-15854000D01*
X6006595Y-15863524D01*
X6016119Y-15882571D01*
X6025643Y-15920667D01*
X6025643Y-15968286D01*
X6016119Y-16006381D01*
X6006595Y-16025428D01*
X5997071Y-16034952D01*
X5978024Y-16044476D01*
X5958976Y-16044476D01*
X5939928Y-16034952D01*
X5930405Y-16025428D01*
X5920881Y-16006381D01*
X5911357Y-15968286D01*
X5911357Y-15920667D01*
X5920881Y-15882571D01*
X5930405Y-15863524D01*
X5939928Y-15854000D01*
X5958976Y-15844476D01*
X6111357Y-16025428D02*
X6120881Y-16034952D01*
X6111357Y-16044476D01*
X6101833Y-16034952D01*
X6111357Y-16025428D01*
X6111357Y-16044476D01*
X6311357Y-16044476D02*
X6197071Y-16044476D01*
X6254214Y-16044476D02*
X6254214Y-15844476D01*
X6235167Y-15873048D01*
X6216119Y-15892095D01*
X6197071Y-15901619D01*
X6492309Y-15844476D02*
X6397071Y-15844476D01*
X6387548Y-15939714D01*
X6397071Y-15930190D01*
X6416119Y-15920667D01*
X6463738Y-15920667D01*
X6482786Y-15930190D01*
X6492309Y-15939714D01*
X6501833Y-15958762D01*
X6501833Y-16006381D01*
X6492309Y-16025428D01*
X6482786Y-16034952D01*
X6463738Y-16044476D01*
X6416119Y-16044476D01*
X6397071Y-16034952D01*
X6387548Y-16025428D01*
X6568500Y-15844476D02*
X6701833Y-15844476D01*
X6616119Y-16044476D01*
X6873262Y-15844476D02*
X6778024Y-15844476D01*
X6768500Y-15939714D01*
X6778024Y-15930190D01*
X6797071Y-15920667D01*
X6844690Y-15920667D01*
X6863738Y-15930190D01*
X6873262Y-15939714D01*
X6882786Y-15958762D01*
X6882786Y-16006381D01*
X6873262Y-16025428D01*
X6863738Y-16034952D01*
X6844690Y-16044476D01*
X6797071Y-16044476D01*
X6778024Y-16034952D01*
X6768500Y-16025428D01*
X6958976Y-15844476D02*
X6958976Y-15882571D01*
X7035167Y-15844476D02*
X7035167Y-15882571D01*
X7330405Y-16120667D02*
X7320881Y-16111143D01*
X7301833Y-16082571D01*
X7292309Y-16063524D01*
X7282786Y-16034952D01*
X7273262Y-15987333D01*
X7273262Y-15949238D01*
X7282786Y-15901619D01*
X7292309Y-15873048D01*
X7301833Y-15854000D01*
X7320881Y-15825428D01*
X7330405Y-15815905D01*
X7435167Y-15930190D02*
X7416119Y-15920667D01*
X7406595Y-15911143D01*
X7397071Y-15892095D01*
X7397071Y-15882571D01*
X7406595Y-15863524D01*
X7416119Y-15854000D01*
X7435167Y-15844476D01*
X7473262Y-15844476D01*
X7492309Y-15854000D01*
X7501833Y-15863524D01*
X7511357Y-15882571D01*
X7511357Y-15892095D01*
X7501833Y-15911143D01*
X7492309Y-15920667D01*
X7473262Y-15930190D01*
X7435167Y-15930190D01*
X7416119Y-15939714D01*
X7406595Y-15949238D01*
X7397071Y-15968286D01*
X7397071Y-16006381D01*
X7406595Y-16025428D01*
X7416119Y-16034952D01*
X7435167Y-16044476D01*
X7473262Y-16044476D01*
X7492309Y-16034952D01*
X7501833Y-16025428D01*
X7511357Y-16006381D01*
X7511357Y-15968286D01*
X7501833Y-15949238D01*
X7492309Y-15939714D01*
X7473262Y-15930190D01*
X7749452Y-16044476D02*
X7749452Y-15844476D01*
X7835167Y-16044476D02*
X7835167Y-15939714D01*
X7825643Y-15920667D01*
X7806595Y-15911143D01*
X7778024Y-15911143D01*
X7758976Y-15920667D01*
X7749452Y-15930190D01*
X7958976Y-16044476D02*
X7939928Y-16034952D01*
X7930405Y-16025428D01*
X7920881Y-16006381D01*
X7920881Y-15949238D01*
X7930405Y-15930190D01*
X7939928Y-15920667D01*
X7958976Y-15911143D01*
X7987548Y-15911143D01*
X8006595Y-15920667D01*
X8016119Y-15930190D01*
X8025643Y-15949238D01*
X8025643Y-16006381D01*
X8016119Y-16025428D01*
X8006595Y-16034952D01*
X7987548Y-16044476D01*
X7958976Y-16044476D01*
X8139928Y-16044476D02*
X8120881Y-16034952D01*
X8111357Y-16015905D01*
X8111357Y-15844476D01*
X8292309Y-16034952D02*
X8273262Y-16044476D01*
X8235167Y-16044476D01*
X8216119Y-16034952D01*
X8206595Y-16015905D01*
X8206595Y-15939714D01*
X8216119Y-15920667D01*
X8235167Y-15911143D01*
X8273262Y-15911143D01*
X8292309Y-15920667D01*
X8301833Y-15939714D01*
X8301833Y-15958762D01*
X8206595Y-15977809D01*
X8378024Y-16034952D02*
X8397071Y-16044476D01*
X8435167Y-16044476D01*
X8454214Y-16034952D01*
X8463738Y-16015905D01*
X8463738Y-16006381D01*
X8454214Y-15987333D01*
X8435167Y-15977809D01*
X8406595Y-15977809D01*
X8387548Y-15968286D01*
X8378024Y-15949238D01*
X8378024Y-15939714D01*
X8387548Y-15920667D01*
X8406595Y-15911143D01*
X8435167Y-15911143D01*
X8454214Y-15920667D01*
X8530405Y-16120667D02*
X8539929Y-16111143D01*
X8558976Y-16082571D01*
X8568500Y-16063524D01*
X8578024Y-16034952D01*
X8587548Y-15987333D01*
X8587548Y-15949238D01*
X8578024Y-15901619D01*
X8568500Y-15873048D01*
X8558976Y-15854000D01*
X8539929Y-15825428D01*
X8530405Y-15815905D01*
X8892310Y-16120667D02*
X8882786Y-16111143D01*
X8863738Y-16082571D01*
X8854214Y-16063524D01*
X8844690Y-16034952D01*
X8835167Y-15987333D01*
X8835167Y-15949238D01*
X8844690Y-15901619D01*
X8854214Y-15873048D01*
X8863738Y-15854000D01*
X8882786Y-15825428D01*
X8892310Y-15815905D01*
X8968500Y-15911143D02*
X8968500Y-16044476D01*
X8968500Y-15930190D02*
X8978024Y-15920667D01*
X8997071Y-15911143D01*
X9025643Y-15911143D01*
X9044690Y-15920667D01*
X9054214Y-15939714D01*
X9054214Y-16044476D01*
X9178024Y-16044476D02*
X9158976Y-16034952D01*
X9149452Y-16025428D01*
X9139929Y-16006381D01*
X9139929Y-15949238D01*
X9149452Y-15930190D01*
X9158976Y-15920667D01*
X9178024Y-15911143D01*
X9206595Y-15911143D01*
X9225643Y-15920667D01*
X9235167Y-15930190D01*
X9244690Y-15949238D01*
X9244690Y-16006381D01*
X9235167Y-16025428D01*
X9225643Y-16034952D01*
X9206595Y-16044476D01*
X9178024Y-16044476D01*
X9301833Y-15911143D02*
X9378024Y-15911143D01*
X9330405Y-15844476D02*
X9330405Y-16015905D01*
X9339929Y-16034952D01*
X9358976Y-16044476D01*
X9378024Y-16044476D01*
X9597071Y-15911143D02*
X9597071Y-16111143D01*
X9597071Y-15920667D02*
X9616119Y-15911143D01*
X9654214Y-15911143D01*
X9673262Y-15920667D01*
X9682786Y-15930190D01*
X9692310Y-15949238D01*
X9692310Y-16006381D01*
X9682786Y-16025428D01*
X9673262Y-16034952D01*
X9654214Y-16044476D01*
X9616119Y-16044476D01*
X9597071Y-16034952D01*
X9806595Y-16044476D02*
X9787548Y-16034952D01*
X9778024Y-16015905D01*
X9778024Y-15844476D01*
X9968500Y-16044476D02*
X9968500Y-15939714D01*
X9958976Y-15920667D01*
X9939929Y-15911143D01*
X9901833Y-15911143D01*
X9882786Y-15920667D01*
X9968500Y-16034952D02*
X9949452Y-16044476D01*
X9901833Y-16044476D01*
X9882786Y-16034952D01*
X9873262Y-16015905D01*
X9873262Y-15996857D01*
X9882786Y-15977809D01*
X9901833Y-15968286D01*
X9949452Y-15968286D01*
X9968500Y-15958762D01*
X10035167Y-15911143D02*
X10111357Y-15911143D01*
X10063738Y-15844476D02*
X10063738Y-16015905D01*
X10073262Y-16034952D01*
X10092310Y-16044476D01*
X10111357Y-16044476D01*
X10254214Y-16034952D02*
X10235167Y-16044476D01*
X10197071Y-16044476D01*
X10178024Y-16034952D01*
X10168500Y-16015905D01*
X10168500Y-15939714D01*
X10178024Y-15920667D01*
X10197071Y-15911143D01*
X10235167Y-15911143D01*
X10254214Y-15920667D01*
X10263738Y-15939714D01*
X10263738Y-15958762D01*
X10168500Y-15977809D01*
X10435167Y-16044476D02*
X10435167Y-15844476D01*
X10435167Y-16034952D02*
X10416119Y-16044476D01*
X10378024Y-16044476D01*
X10358976Y-16034952D01*
X10349452Y-16025428D01*
X10339929Y-16006381D01*
X10339929Y-15949238D01*
X10349452Y-15930190D01*
X10358976Y-15920667D01*
X10378024Y-15911143D01*
X10416119Y-15911143D01*
X10435167Y-15920667D01*
X10511357Y-16120667D02*
X10520881Y-16111143D01*
X10539929Y-16082571D01*
X10549452Y-16063524D01*
X10558976Y-16034952D01*
X10568500Y-15987333D01*
X10568500Y-15949238D01*
X10558976Y-15901619D01*
X10549452Y-15873048D01*
X10539929Y-15854000D01*
X10520881Y-15825428D01*
X10511357Y-15815905D01*
M02*
